NotoSerifGeorgian-Light.ufo
<glyph name="acutecomb" format="2">
  <unicode hex="0301"/>
  <anchor x="-30" y="536" name="_top"/>
  <anchor x="-20" y="766" name="top"/>
  <outline>
    <contour>
      <point x="-69" y="606" type="line"/>
      <point x="-67" y="606" type="line"/>
      <point x="-26" y="642"/>
      <point x="44" y="721"/>
      <point x="69" y="756" type="curve"/>
      <point x="69" y="766" type="line"/>
      <point x="26" y="766" type="line"/>
      <point x="5" y="721"/>
      <point x="-40" y="657"/>
      <point x="-69" y="619" type="curve"/>
    </contour>
  </outline>
</glyph>
<glyph name="circumflexcomb" format="2">
  <unicode hex="0302"/>
  <anchor x="0" y="536" name="_top"/>
  <anchor x="0" y="766" name="top"/>
  <outline>
    <contour>
      <point x="-110" y="606" type="line"/>
      <point x="-103" y="606" type="line"/>
      <point x="-53" y="656"/>
      <point x="-31" y="687"/>
      <point x="-1" y="736" type="curve"/>
      <point x="29" y="687"/>
      <point x="52" y="656"/>
      <point x="102" y="606" type="curve"/>
      <point x="109" y="606" type="line"/>
      <point x="109" y="619" type="line"/>
      <point x="78" y="657"/>
      <point x="33" y="721"/>
      <point x="17" y="766" type="curve"/>
      <point x="-18" y="766" type="line"/>
      <point x="-34" y="721"/>
      <point x="-79" y="657"/>
      <point x="-110" y="619" type="curve"/>
    </contour>
  </outline>
</glyph>
<glyph name="macroncomb" format="2">
  <unicode hex="0304"/>
  <anchor x="0" y="536" name="_top"/>
  <anchor x="0" y="663" name="top"/>
  <outline>
    <contour>
      <point x="-145" y="648" type="line"/>
      <point x="145" y="648" type="line"/>
      <point x="145" y="673" type="line"/>
      <point x="-145" y="673" type="line"/>
    </contour>
  </outline>
</glyph>
<glyph name="dieresiscomb" format="2">
  <unicode hex="0308"/>
  <anchor x="0" y="536" name="_top"/>
  <anchor x="0" y="738" name="top"/>
  <outline>
    <contour>
      <point x="80" y="628" type="curve" smooth="yes"/>
      <point x="95" y="628"/>
      <point x="103" y="636"/>
      <point x="103" y="668" type="curve" smooth="yes"/>
      <point x="103" y="699"/>
      <point x="95" y="708"/>
      <point x="80" y="708" type="curve" smooth="yes"/>
      <point x="66" y="708"/>
      <point x="57" y="699"/>
      <point x="57" y="668" type="curve" smooth="yes"/>
      <point x="57" y="636"/>
      <point x="66" y="628"/>
    </contour>
    <contour>
      <point x="-81" y="628" type="curve" smooth="yes"/>
      <point x="-66" y="628"/>
      <point x="-58" y="636"/>
      <point x="-58" y="668" type="curve" smooth="yes"/>
      <point x="-58" y="699"/>
      <point x="-66" y="708"/>
      <point x="-81" y="708" type="curve" smooth="yes"/>
      <point x="-95" y="708"/>
      <point x="-104" y="699"/>
      <point x="-104" y="668" type="curve" smooth="yes"/>
      <point x="-104" y="636"/>
      <point x="-95" y="628"/>
    </contour>
  </outline>
</glyph>
<glyph name="period-arm" format="2">
  <advance width="180"/>
  <unicode hex="0589"/>
  <note>
uni0589
</note>
  <outline>
    <contour>
      <point x="90" y="420" type="curve" smooth="yes"/>
      <point x="106" y="420"/>
      <point x="119" y="429"/>
      <point x="119" y="460" type="curve" smooth="yes"/>
      <point x="119" y="490"/>
      <point x="106" y="498"/>
      <point x="90" y="498" type="curve" smooth="yes"/>
      <point x="75" y="498"/>
      <point x="61" y="490"/>
      <point x="61" y="460" type="curve" smooth="yes"/>
      <point x="61" y="429"/>
      <point x="75" y="420"/>
    </contour>
    <contour>
      <point x="90" y="-5" type="curve" smooth="yes"/>
      <point x="106" y="-5"/>
      <point x="119" y="4"/>
      <point x="119" y="35" type="curve" smooth="yes"/>
      <point x="119" y="65"/>
      <point x="106" y="73"/>
      <point x="90" y="73" type="curve" smooth="yes"/>
      <point x="75" y="73"/>
      <point x="61" y="65"/>
      <point x="61" y="35" type="curve" smooth="yes"/>
      <point x="61" y="4"/>
      <point x="75" y="-5"/>
    </contour>
  </outline>
</glyph>
<glyph name="An-oldgeorgian" format="2">
  <advance width="573"/>
  <unicode hex="10A0"/>
  <note>
uni10A0
</note>
  <outline>
    <contour>
      <point x="327" y="-10" type="curve" smooth="yes"/>
      <point x="457" y="-10"/>
      <point x="519" y="58"/>
      <point x="519" y="107" type="curve" smooth="yes"/>
      <point x="519" y="131"/>
      <point x="504" y="146"/>
      <point x="495" y="146" type="curve"/>
      <point x="495" y="73"/>
      <point x="450" y="15"/>
      <point x="326" y="15" type="curve" smooth="yes"/>
      <point x="175" y="15"/>
      <point x="78" y="127"/>
      <point x="78" y="328" type="curve" smooth="yes"/>
      <point x="78" y="558"/>
      <point x="203" y="697"/>
      <point x="424" y="697" type="curve" smooth="yes"/>
      <point x="465" y="697"/>
      <point x="478" y="679"/>
      <point x="483" y="649" type="curve"/>
      <point x="501" y="654"/>
      <point x="514" y="668"/>
      <point x="514" y="685" type="curve" smooth="yes"/>
      <point x="514" y="711"/>
      <point x="495" y="724"/>
      <point x="466" y="724" type="curve" smooth="yes"/>
      <point x="418" y="724"/>
      <point x="364" y="713"/>
      <point x="302" y="702" type="curve" smooth="yes"/>
      <point x="255" y="694"/>
      <point x="193" y="685"/>
      <point x="128" y="685" type="curve" smooth="yes"/>
      <point x="98" y="685"/>
      <point x="85" y="694"/>
      <point x="83" y="724" type="curve"/>
      <point x="61" y="720"/>
      <point x="50" y="707"/>
      <point x="50" y="694" type="curve" smooth="yes"/>
      <point x="50" y="671"/>
      <point x="69" y="660"/>
      <point x="100" y="660" type="curve" smooth="yes"/>
      <point x="138" y="660"/>
      <point x="183" y="662"/>
      <point x="224" y="667" type="curve"/>
      <point x="124" y="616"/>
      <point x="50" y="502"/>
      <point x="50" y="328" type="curve" smooth="yes"/>
      <point x="50" y="111"/>
      <point x="158" y="-10"/>
    </contour>
  </outline>
</glyph>
<glyph name="Ban-oldgeorgian" format="2">
  <advance width="683"/>
  <unicode hex="10A1"/>
  <note>
uni10A1
</note>
  <outline>
    <contour>
      <point x="631" y="-81" type="curve"/>
      <point x="645" y="-81"/>
      <point x="658" y="-70"/>
      <point x="658" y="-51" type="curve" smooth="yes"/>
      <point x="658" y="-6"/>
      <point x="631" y="25"/>
      <point x="541" y="25" type="curve" smooth="yes"/>
      <point x="499" y="25" type="line"/>
      <point x="499" y="624" type="line" smooth="yes"/>
      <point x="499" y="685"/>
      <point x="509" y="694"/>
      <point x="555" y="694" type="curve" smooth="yes"/>
      <point x="575" y="694" type="line"/>
      <point x="575" y="714" type="line"/>
      <point x="392" y="714" type="line"/>
      <point x="392" y="694" type="line"/>
      <point x="415" y="694" type="line" smooth="yes"/>
      <point x="461" y="694"/>
      <point x="471" y="685"/>
      <point x="471" y="624" type="curve" smooth="yes"/>
      <point x="471" y="467" type="line" smooth="yes"/>
      <point x="471" y="354"/>
      <point x="414" y="263"/>
      <point x="267" y="263" type="curve" smooth="yes"/>
      <point x="148" y="263"/>
      <point x="90" y="340"/>
      <point x="90" y="477" type="curve" smooth="yes"/>
      <point x="90" y="619"/>
      <point x="148" y="701"/>
      <point x="237" y="701" type="curve"/>
      <point x="237" y="707"/>
      <point x="235" y="721"/>
      <point x="215" y="721" type="curve" smooth="yes"/>
      <point x="118" y="721"/>
      <point x="62" y="608"/>
      <point x="62" y="477" type="curve" smooth="yes"/>
      <point x="62" y="315"/>
      <point x="136" y="238"/>
      <point x="267" y="238" type="curve" smooth="yes"/>
      <point x="376" y="238"/>
      <point x="437" y="282"/>
      <point x="471" y="350" type="curve"/>
      <point x="474" y="350" type="line"/>
      <point x="472" y="318"/>
      <point x="471" y="285"/>
      <point x="471" y="253" type="curve" smooth="yes"/>
      <point x="471" y="0" type="line"/>
      <point x="534" y="0" type="line" smooth="yes"/>
      <point x="606" y="0"/>
      <point x="631" y="-18"/>
    </contour>
  </outline>
</glyph>
<glyph name="Gan-oldgeorgian" format="2">
  <advance width="732"/>
  <unicode hex="10A2"/>
  <note>
uni10A2
</note>
  <outline>
    <contour>
      <point x="590" y="25" type="curve" smooth="yes"/>
      <point x="548" y="25" type="line"/>
      <point x="548" y="624" type="line" smooth="yes"/>
      <point x="548" y="685"/>
      <point x="558" y="694"/>
      <point x="604" y="694" type="curve" smooth="yes"/>
      <point x="627" y="694" type="line"/>
      <point x="627" y="714" type="line"/>
      <point x="50" y="714" type="line"/>
      <point x="50" y="694" type="line"/>
      <point x="73" y="694" type="line" smooth="yes"/>
      <point x="119" y="694"/>
      <point x="129" y="685"/>
      <point x="129" y="624" type="curve" smooth="yes"/>
      <point x="129" y="446" type="line" smooth="yes"/>
      <point x="129" y="385"/>
      <point x="119" y="376"/>
      <point x="73" y="376" type="curve" smooth="yes"/>
      <point x="50" y="376" type="line"/>
      <point x="50" y="356" type="line"/>
      <point x="157" y="356" type="line"/>
      <point x="157" y="689" type="line"/>
      <point x="520" y="689" type="line"/>
      <point x="520" y="0" type="line"/>
      <point x="583" y="0" type="line" smooth="yes"/>
      <point x="655" y="0"/>
      <point x="680" y="-18"/>
      <point x="680" y="-81" type="curve"/>
      <point x="694" y="-81"/>
      <point x="707" y="-70"/>
      <point x="707" y="-51" type="curve" smooth="yes"/>
      <point x="707" y="-6"/>
      <point x="680" y="25"/>
    </contour>
  </outline>
</glyph>
<glyph name="Don-oldgeorgian" format="2">
  <advance width="686"/>
  <unicode hex="10A3"/>
  <note>
uni10A3
</note>
  <outline>
    <contour>
      <point x="343" y="-10" type="curve" smooth="yes"/>
      <point x="545" y="-10"/>
      <point x="627" y="111"/>
      <point x="627" y="298" type="curve" smooth="yes"/>
      <point x="627" y="488"/>
      <point x="550" y="601"/>
      <point x="355" y="605" type="curve"/>
      <point x="355" y="676" type="line"/>
      <point x="420" y="689"/>
      <point x="471" y="699"/>
      <point x="503" y="699" type="curve" smooth="yes"/>
      <point x="549" y="699"/>
      <point x="562" y="679"/>
      <point x="565" y="649" type="curve"/>
      <point x="582" y="651"/>
      <point x="597" y="668"/>
      <point x="597" y="685" type="curve" smooth="yes"/>
      <point x="597" y="711"/>
      <point x="578" y="724"/>
      <point x="542" y="724" type="curve" smooth="yes"/>
      <point x="500" y="724"/>
      <point x="444" y="715"/>
      <point x="361" y="698" type="curve" smooth="yes"/>
      <point x="277" y="681"/>
      <point x="202" y="671"/>
      <point x="167" y="671" type="curve" smooth="yes"/>
      <point x="137" y="671"/>
      <point x="124" y="684"/>
      <point x="122" y="714" type="curve"/>
      <point x="102" y="710"/>
      <point x="89" y="697"/>
      <point x="89" y="683" type="curve" smooth="yes"/>
      <point x="89" y="660"/>
      <point x="108" y="646"/>
      <point x="139" y="646" type="curve" smooth="yes"/>
      <point x="181" y="646"/>
      <point x="243" y="656"/>
      <point x="330" y="671" type="curve"/>
      <point x="330" y="605" type="line"/>
      <point x="152" y="599"/>
      <point x="58" y="487"/>
      <point x="58" y="299" type="curve" smooth="yes"/>
      <point x="58" y="103"/>
      <point x="153" y="-10"/>
    </contour>
    <contour>
      <point x="343" y="15" type="curve" smooth="yes"/>
      <point x="172" y="15"/>
      <point x="86" y="121"/>
      <point x="86" y="298" type="curve" smooth="yes"/>
      <point x="86" y="475"/>
      <point x="172" y="580"/>
      <point x="344" y="580" type="curve" smooth="yes"/>
      <point x="530" y="580"/>
      <point x="599" y="475"/>
      <point x="599" y="298" type="curve" smooth="yes"/>
      <point x="599" y="122"/>
      <point x="524" y="15"/>
    </contour>
  </outline>
</glyph>
<glyph name="En-oldgeorgian" format="2">
  <advance width="677"/>
  <unicode hex="10A4"/>
  <note>
uni10A4
</note>
  <outline>
    <contour>
      <point x="520" y="0" type="line"/>
      <point x="548" y="0" type="line"/>
      <point x="548" y="624" type="line" smooth="yes"/>
      <point x="548" y="685"/>
      <point x="558" y="694"/>
      <point x="604" y="694" type="curve" smooth="yes"/>
      <point x="627" y="694" type="line"/>
      <point x="627" y="714" type="line"/>
      <point x="50" y="714" type="line"/>
      <point x="50" y="694" type="line"/>
      <point x="73" y="694" type="line" smooth="yes"/>
      <point x="119" y="694"/>
      <point x="129" y="685"/>
      <point x="129" y="624" type="curve" smooth="yes"/>
      <point x="129" y="446" type="line" smooth="yes"/>
      <point x="129" y="385"/>
      <point x="119" y="376"/>
      <point x="73" y="376" type="curve" smooth="yes"/>
      <point x="50" y="376" type="line"/>
      <point x="50" y="356" type="line"/>
      <point x="157" y="356" type="line"/>
      <point x="157" y="689" type="line"/>
      <point x="520" y="689" type="line"/>
    </contour>
  </outline>
</glyph>
<glyph name="Vin-oldgeorgian" format="2">
  <advance width="732"/>
  <unicode hex="10A5"/>
  <note>
uni10A5
</note>
  <outline>
    <contour>
      <point x="587" y="365" type="curve" smooth="yes"/>
      <point x="548" y="365" type="line"/>
      <point x="548" y="624" type="line" smooth="yes"/>
      <point x="548" y="685"/>
      <point x="558" y="694"/>
      <point x="604" y="694" type="curve" smooth="yes"/>
      <point x="627" y="694" type="line"/>
      <point x="627" y="714" type="line"/>
      <point x="50" y="714" type="line"/>
      <point x="50" y="694" type="line"/>
      <point x="73" y="694" type="line" smooth="yes"/>
      <point x="119" y="694"/>
      <point x="129" y="685"/>
      <point x="129" y="624" type="curve" smooth="yes"/>
      <point x="129" y="446" type="line" smooth="yes"/>
      <point x="129" y="385"/>
      <point x="119" y="376"/>
      <point x="73" y="376" type="curve" smooth="yes"/>
      <point x="50" y="376" type="line"/>
      <point x="50" y="356" type="line"/>
      <point x="157" y="356" type="line"/>
      <point x="157" y="689" type="line"/>
      <point x="520" y="689" type="line"/>
      <point x="520" y="0" type="line"/>
      <point x="548" y="0" type="line"/>
      <point x="548" y="340" type="line"/>
      <point x="583" y="340" type="line" smooth="yes"/>
      <point x="659" y="340"/>
      <point x="680" y="324"/>
      <point x="680" y="259" type="curve"/>
      <point x="697" y="260"/>
      <point x="707" y="271"/>
      <point x="707" y="289" type="curve" smooth="yes"/>
      <point x="707" y="334"/>
      <point x="680" y="365"/>
    </contour>
  </outline>
</glyph>
<glyph name="Zen-oldgeorgian" format="2">
  <advance width="722"/>
  <unicode hex="10A6"/>
  <note>
uni10A6
</note>
  <outline>
    <contour>
      <point x="449" y="-10" type="curve" smooth="yes"/>
      <point x="581" y="-10"/>
      <point x="668" y="82"/>
      <point x="668" y="264" type="curve" smooth="yes"/>
      <point x="668" y="459"/>
      <point x="594" y="542"/>
      <point x="454" y="542" type="curve" smooth="yes"/>
      <point x="350" y="542"/>
      <point x="294" y="495"/>
      <point x="260" y="417" type="curve"/>
      <point x="257" y="417" type="line"/>
      <point x="259" y="449"/>
      <point x="260" y="482"/>
      <point x="260" y="524" type="curve" smooth="yes"/>
      <point x="260" y="714" type="line"/>
      <point x="24" y="714" type="line"/>
      <point x="24" y="689" type="line"/>
      <point x="232" y="689" type="line"/>
      <point x="232" y="256" type="line" smooth="yes"/>
      <point x="232" y="88"/>
      <point x="292" y="-10"/>
    </contour>
    <contour>
      <point x="449" y="15" type="curve" smooth="yes"/>
      <point x="310" y="15"/>
      <point x="260" y="102"/>
      <point x="260" y="269" type="curve" smooth="yes"/>
      <point x="260" y="437"/>
      <point x="325" y="517"/>
      <point x="448" y="517" type="curve" smooth="yes"/>
      <point x="582" y="517"/>
      <point x="640" y="441"/>
      <point x="640" y="264" type="curve" smooth="yes"/>
      <point x="640" y="111"/>
      <point x="578" y="15"/>
    </contour>
  </outline>
</glyph>
<glyph name="Tan-oldgeorgian" format="2">
  <advance width="712"/>
  <unicode hex="10A7"/>
  <note>
uni10A7
</note>
  <outline>
    <contour>
      <point x="570" y="365" type="curve" smooth="yes"/>
      <point x="528" y="365" type="line"/>
      <point x="528" y="606" type="line" smooth="yes"/>
      <point x="528" y="683"/>
      <point x="534" y="694"/>
      <point x="584" y="694" type="curve" smooth="yes"/>
      <point x="627" y="694" type="line"/>
      <point x="627" y="714" type="line"/>
      <point x="362" y="714" type="line" smooth="yes"/>
      <point x="163" y="714"/>
      <point x="61" y="569"/>
      <point x="61" y="342" type="curve" smooth="yes"/>
      <point x="61" y="123"/>
      <point x="154" y="0"/>
      <point x="358" y="0" type="curve" smooth="yes"/>
      <point x="627" y="0" type="line"/>
      <point x="627" y="20" type="line"/>
      <point x="584" y="20" type="line" smooth="yes"/>
      <point x="534" y="20"/>
      <point x="528" y="31"/>
      <point x="528" y="108" type="curve" smooth="yes"/>
      <point x="528" y="340" type="line"/>
      <point x="563" y="340" type="line" smooth="yes"/>
      <point x="639" y="340"/>
      <point x="660" y="324"/>
      <point x="660" y="259" type="curve"/>
      <point x="679" y="259"/>
      <point x="687" y="270"/>
      <point x="687" y="289" type="curve" smooth="yes"/>
      <point x="687" y="335"/>
      <point x="660" y="365"/>
    </contour>
    <contour>
      <point x="500" y="25" type="line"/>
      <point x="372" y="25" type="line" smooth="yes"/>
      <point x="172" y="25"/>
      <point x="89" y="132"/>
      <point x="89" y="342" type="curve" smooth="yes"/>
      <point x="89" y="552"/>
      <point x="174" y="689"/>
      <point x="371" y="689" type="curve" smooth="yes"/>
      <point x="500" y="689" type="line"/>
    </contour>
  </outline>
</glyph>
<glyph name="In-oldgeorgian" format="2">
  <advance width="405"/>
  <unicode hex="10A8"/>
  <note>
uni10A8
</note>
  <outline>
    <contour>
      <point x="365" y="714" type="line"/>
      <point x="24" y="714" type="line"/>
      <point x="24" y="689" type="line"/>
      <point x="261" y="689" type="line"/>
      <point x="261" y="0" type="line"/>
      <point x="289" y="0" type="line"/>
      <point x="289" y="624" type="line" smooth="yes"/>
      <point x="289" y="685"/>
      <point x="299" y="694"/>
      <point x="345" y="694" type="curve" smooth="yes"/>
      <point x="365" y="694" type="line"/>
    </contour>
  </outline>
</glyph>
<glyph name="Kan-oldgeorgian" format="2">
  <advance width="651"/>
  <unicode hex="10A9"/>
  <note>
uni10A9
</note>
  <outline>
    <contour>
      <point x="428" y="0" type="line"/>
      <point x="611" y="0" type="line"/>
      <point x="611" y="20" type="line"/>
      <point x="591" y="20" type="line" smooth="yes"/>
      <point x="545" y="20"/>
      <point x="535" y="29"/>
      <point x="535" y="90" type="curve" smooth="yes"/>
      <point x="535" y="349" type="line" smooth="yes"/>
      <point x="535" y="495"/>
      <point x="461" y="581"/>
      <point x="331" y="581" type="curve" smooth="yes"/>
      <point x="237" y="581"/>
      <point x="181" y="534"/>
      <point x="147" y="456" type="curve"/>
      <point x="144" y="456" type="line"/>
      <point x="146" y="488"/>
      <point x="146" y="521"/>
      <point x="146" y="564" type="curve" smooth="yes"/>
      <point x="146" y="624" type="line" smooth="yes"/>
      <point x="146" y="685"/>
      <point x="157" y="694"/>
      <point x="203" y="694" type="curve" smooth="yes"/>
      <point x="223" y="694" type="line"/>
      <point x="223" y="714" type="line"/>
      <point x="40" y="714" type="line"/>
      <point x="40" y="694" type="line"/>
      <point x="63" y="694" type="line" smooth="yes"/>
      <point x="109" y="694"/>
      <point x="119" y="685"/>
      <point x="119" y="624" type="curve" smooth="yes"/>
      <point x="119" y="349" type="line" smooth="yes"/>
      <point x="119" y="203"/>
      <point x="193" y="117"/>
      <point x="323" y="117" type="curve" smooth="yes"/>
      <point x="417" y="117"/>
      <point x="473" y="164"/>
      <point x="507" y="242" type="curve"/>
      <point x="510" y="242" type="line"/>
      <point x="508" y="210"/>
      <point x="507" y="177"/>
      <point x="507" y="135" type="curve" smooth="yes"/>
      <point x="507" y="90" type="line" smooth="yes"/>
      <point x="507" y="29"/>
      <point x="497" y="20"/>
      <point x="451" y="20" type="curve" smooth="yes"/>
      <point x="428" y="20" type="line"/>
    </contour>
    <contour>
      <point x="329" y="142" type="curve" smooth="yes"/>
      <point x="215" y="142"/>
      <point x="147" y="221"/>
      <point x="147" y="349" type="curve" smooth="yes"/>
      <point x="147" y="473"/>
      <point x="222" y="556"/>
      <point x="325" y="556" type="curve" smooth="yes"/>
      <point x="439" y="556"/>
      <point x="507" y="477"/>
      <point x="507" y="349" type="curve" smooth="yes"/>
      <point x="507" y="225"/>
      <point x="432" y="142"/>
    </contour>
  </outline>
</glyph>
<glyph name="Las-oldgeorgian" format="2">
  <advance width="916"/>
  <unicode hex="10AA"/>
  <note>
uni10AA
</note>
  <outline>
    <contour>
      <point x="643" y="-10" type="curve" smooth="yes"/>
      <point x="775" y="-10"/>
      <point x="862" y="82"/>
      <point x="862" y="264" type="curve" smooth="yes"/>
      <point x="862" y="459"/>
      <point x="788" y="542"/>
      <point x="648" y="542" type="curve" smooth="yes"/>
      <point x="544" y="542"/>
      <point x="488" y="495"/>
      <point x="454" y="417" type="curve"/>
      <point x="451" y="417" type="line"/>
      <point x="453" y="449"/>
      <point x="454" y="482"/>
      <point x="454" y="524" type="curve" smooth="yes"/>
      <point x="454" y="624" type="line" smooth="yes"/>
      <point x="454" y="685"/>
      <point x="464" y="694"/>
      <point x="510" y="694" type="curve" smooth="yes"/>
      <point x="530" y="694" type="line"/>
      <point x="530" y="714" type="line"/>
      <point x="50" y="714" type="line"/>
      <point x="50" y="694" type="line"/>
      <point x="73" y="694" type="line" smooth="yes"/>
      <point x="119" y="694"/>
      <point x="129" y="685"/>
      <point x="129" y="624" type="curve" smooth="yes"/>
      <point x="129" y="446" type="line" smooth="yes"/>
      <point x="129" y="385"/>
      <point x="119" y="376"/>
      <point x="73" y="376" type="curve" smooth="yes"/>
      <point x="50" y="376" type="line"/>
      <point x="50" y="356" type="line"/>
      <point x="157" y="356" type="line"/>
      <point x="157" y="689" type="line"/>
      <point x="426" y="689" type="line"/>
      <point x="426" y="256" type="line" smooth="yes"/>
      <point x="426" y="88"/>
      <point x="486" y="-10"/>
    </contour>
    <contour>
      <point x="643" y="15" type="curve" smooth="yes"/>
      <point x="504" y="15"/>
      <point x="454" y="102"/>
      <point x="454" y="269" type="curve" smooth="yes"/>
      <point x="454" y="437"/>
      <point x="519" y="517"/>
      <point x="642" y="517" type="curve" smooth="yes"/>
      <point x="776" y="517"/>
      <point x="834" y="441"/>
      <point x="834" y="264" type="curve" smooth="yes"/>
      <point x="834" y="111"/>
      <point x="772" y="15"/>
    </contour>
  </outline>
</glyph>
<glyph name="Man-oldgeorgian" format="2">
  <advance width="595"/>
  <unicode hex="10AB"/>
  <note>
uni10AB
</note>
  <outline>
    <contour>
      <point x="252" y="-10" type="curve" smooth="yes"/>
      <point x="407" y="-10"/>
      <point x="449" y="73"/>
      <point x="449" y="212" type="curve" smooth="yes"/>
      <point x="449" y="391" type="line"/>
      <point x="545" y="391" type="line"/>
      <point x="545" y="416" type="line"/>
      <point x="449" y="416" type="line"/>
      <point x="449" y="624" type="line" smooth="yes"/>
      <point x="449" y="685"/>
      <point x="459" y="694"/>
      <point x="505" y="694" type="curve" smooth="yes"/>
      <point x="525" y="694" type="line"/>
      <point x="525" y="714" type="line"/>
      <point x="85" y="714" type="line"/>
      <point x="85" y="689" type="line"/>
      <point x="421" y="689" type="line"/>
      <point x="421" y="416" type="line"/>
      <point x="290" y="416" type="line" smooth="yes"/>
      <point x="144" y="416"/>
      <point x="46" y="343"/>
      <point x="46" y="205" type="curve" smooth="yes"/>
      <point x="46" y="62"/>
      <point x="118" y="-10"/>
    </contour>
    <contour>
      <point x="253" y="15" type="curve" smooth="yes"/>
      <point x="130" y="15"/>
      <point x="74" y="84"/>
      <point x="74" y="206" type="curve" smooth="yes"/>
      <point x="74" y="331"/>
      <point x="162" y="391"/>
      <point x="290" y="391" type="curve" smooth="yes"/>
      <point x="421" y="391" type="line"/>
      <point x="421" y="211" type="line" smooth="yes"/>
      <point x="421" y="90"/>
      <point x="388" y="15"/>
    </contour>
  </outline>
</glyph>
<glyph name="Nar-oldgeorgian" format="2">
  <advance width="698"/>
  <unicode hex="10AC"/>
  <note>
uni10AC
</note>
  <outline>
    <contour>
      <point x="50" y="0" type="line"/>
      <point x="278" y="0" type="line"/>
      <point x="278" y="20" type="line"/>
      <point x="233" y="20" type="line" smooth="yes"/>
      <point x="183" y="20"/>
      <point x="177" y="31"/>
      <point x="177" y="108" type="curve" smooth="yes"/>
      <point x="177" y="269" type="line" smooth="yes"/>
      <point x="177" y="382"/>
      <point x="241" y="473"/>
      <point x="354" y="473" type="curve" smooth="yes"/>
      <point x="453" y="473"/>
      <point x="521" y="422"/>
      <point x="521" y="278" type="curve" smooth="yes"/>
      <point x="521" y="0" type="line"/>
      <point x="648" y="0" type="line"/>
      <point x="648" y="20" type="line"/>
      <point x="605" y="20" type="line" smooth="yes"/>
      <point x="555" y="20"/>
      <point x="549" y="31"/>
      <point x="549" y="108" type="curve" smooth="yes"/>
      <point x="549" y="278" type="line" smooth="yes"/>
      <point x="549" y="437"/>
      <point x="466" y="498"/>
      <point x="352" y="498" type="curve" smooth="yes"/>
      <point x="274" y="498"/>
      <point x="207" y="451"/>
      <point x="177" y="383" type="curve"/>
      <point x="174" y="383" type="line"/>
      <point x="176" y="415"/>
      <point x="177" y="448"/>
      <point x="177" y="480" type="curve" smooth="yes"/>
      <point x="177" y="689" type="line"/>
      <point x="521" y="689" type="line"/>
      <point x="521" y="714" type="line"/>
      <point x="50" y="714" type="line"/>
      <point x="50" y="694" type="line"/>
      <point x="93" y="694" type="line" smooth="yes"/>
      <point x="143" y="694"/>
      <point x="149" y="683"/>
      <point x="149" y="606" type="curve" smooth="yes"/>
      <point x="149" y="108" type="line" smooth="yes"/>
      <point x="149" y="31"/>
      <point x="143" y="20"/>
      <point x="93" y="20" type="curve" smooth="yes"/>
      <point x="50" y="20" type="line"/>
    </contour>
  </outline>
</glyph>
<glyph name="On-oldgeorgian" format="2">
  <advance width="756"/>
  <unicode hex="10AD"/>
  <note>
uni10AD
</note>
  <outline>
    <contour>
      <point x="723" y="114" type="curve" smooth="yes"/>
      <point x="720" y="114"/>
      <point x="715" y="113"/>
      <point x="713" y="112" type="curve"/>
      <point x="714" y="107"/>
      <point x="715" y="102"/>
      <point x="715" y="97" type="curve" smooth="yes"/>
      <point x="715" y="57"/>
      <point x="688" y="15"/>
      <point x="642" y="15" type="curve" smooth="yes"/>
      <point x="600" y="15"/>
      <point x="562" y="37"/>
      <point x="550" y="77" type="curve"/>
      <point x="603" y="141"/>
      <point x="627" y="238"/>
      <point x="627" y="358" type="curve" smooth="yes"/>
      <point x="627" y="590"/>
      <point x="547" y="724"/>
      <point x="344" y="724" type="curve" smooth="yes"/>
      <point x="157" y="724"/>
      <point x="58" y="592"/>
      <point x="58" y="359" type="curve" smooth="yes"/>
      <point x="58" y="125"/>
      <point x="153" y="-10"/>
      <point x="343" y="-10" type="curve" smooth="yes"/>
      <point x="425" y="-10"/>
      <point x="488" y="14"/>
      <point x="533" y="58" type="curve"/>
      <point x="548" y="17"/>
      <point x="594" y="-10"/>
      <point x="639" y="-10" type="curve" smooth="yes"/>
      <point x="691" y="-10"/>
      <point x="741" y="26"/>
      <point x="741" y="87" type="curve" smooth="yes"/>
      <point x="741" y="103"/>
      <point x="735" y="114"/>
    </contour>
    <contour>
      <point x="343" y="15" type="curve" smooth="yes"/>
      <point x="172" y="15"/>
      <point x="86" y="143"/>
      <point x="86" y="358" type="curve" smooth="yes"/>
      <point x="86" y="573"/>
      <point x="172" y="699"/>
      <point x="344" y="699" type="curve" smooth="yes"/>
      <point x="530" y="699"/>
      <point x="599" y="573"/>
      <point x="599" y="358" type="curve" smooth="yes"/>
      <point x="599" y="145"/>
      <point x="524" y="15"/>
    </contour>
  </outline>
</glyph>
<glyph name="Par-oldgeorgian" format="2">
  <advance width="762"/>
  <unicode hex="10AE"/>
  <note>
uni10AE
</note>
  <outline>
    <contour>
      <point x="755" y="714" type="line"/>
      <point x="572" y="714" type="line"/>
      <point x="572" y="694" type="line"/>
      <point x="595" y="694" type="line" smooth="yes"/>
      <point x="641" y="694"/>
      <point x="651" y="685"/>
      <point x="651" y="624" type="curve" smooth="yes"/>
      <point x="651" y="219" type="line" smooth="yes"/>
      <point x="651" y="106"/>
      <point x="589" y="15"/>
      <point x="448" y="15" type="curve" smooth="yes"/>
      <point x="324" y="15"/>
      <point x="248" y="76"/>
      <point x="248" y="210" type="curve" smooth="yes"/>
      <point x="248" y="714" type="line"/>
      <point x="24" y="714" type="line"/>
      <point x="24" y="689" type="line"/>
      <point x="220" y="689" type="line"/>
      <point x="220" y="214" type="line" smooth="yes"/>
      <point x="220" y="51"/>
      <point x="312" y="-10"/>
      <point x="450" y="-10" type="curve" smooth="yes"/>
      <point x="605" y="-10"/>
      <point x="679" y="88"/>
      <point x="679" y="218" type="curve" smooth="yes"/>
      <point x="679" y="624" type="line" smooth="yes"/>
      <point x="679" y="685"/>
      <point x="689" y="694"/>
      <point x="735" y="694" type="curve" smooth="yes"/>
      <point x="755" y="694" type="line"/>
    </contour>
  </outline>
</glyph>
<glyph name="Zhar-oldgeorgian" format="2">
  <advance width="633"/>
  <unicode hex="10AF"/>
  <note>
uni10AF
</note>
  <outline>
    <contour>
      <point x="518" y="90" type="curve" smooth="yes"/>
      <point x="518" y="624" type="line" smooth="yes"/>
      <point x="518" y="685"/>
      <point x="528" y="694"/>
      <point x="574" y="694" type="curve" smooth="yes"/>
      <point x="594" y="694" type="line"/>
      <point x="594" y="714" type="line"/>
      <point x="411" y="714" type="line"/>
      <point x="411" y="694" type="line"/>
      <point x="434" y="694" type="line" smooth="yes"/>
      <point x="480" y="694"/>
      <point x="490" y="685"/>
      <point x="490" y="624" type="curve" smooth="yes"/>
      <point x="490" y="467" type="line" smooth="yes"/>
      <point x="490" y="354"/>
      <point x="433" y="263"/>
      <point x="291" y="263" type="curve" smooth="yes"/>
      <point x="167" y="263"/>
      <point x="109" y="342"/>
      <point x="109" y="477" type="curve" smooth="yes"/>
      <point x="109" y="619"/>
      <point x="174" y="690"/>
      <point x="256" y="690" type="curve"/>
      <point x="256" y="714" type="line"/>
      <point x="12" y="714" type="line"/>
      <point x="12" y="689" type="line"/>
      <point x="175" y="689" type="line"/>
      <point x="115" y="655"/>
      <point x="81" y="585"/>
      <point x="81" y="477" type="curve" smooth="yes"/>
      <point x="81" y="315"/>
      <point x="155" y="238"/>
      <point x="290" y="238" type="curve" smooth="yes"/>
      <point x="395" y="238"/>
      <point x="456" y="281"/>
      <point x="490" y="349" type="curve"/>
      <point x="493" y="349" type="line"/>
      <point x="491" y="317"/>
      <point x="490" y="284"/>
      <point x="490" y="252" type="curve" smooth="yes"/>
      <point x="490" y="90" type="line" smooth="yes"/>
      <point x="490" y="29"/>
      <point x="480" y="20"/>
      <point x="434" y="20" type="curve" smooth="yes"/>
      <point x="411" y="20" type="line"/>
      <point x="411" y="0" type="line"/>
      <point x="594" y="0" type="line"/>
      <point x="594" y="20" type="line"/>
      <point x="574" y="20" type="line" smooth="yes"/>
      <point x="528" y="20"/>
      <point x="518" y="29"/>
    </contour>
  </outline>
</glyph>
<glyph name="Rae-oldgeorgian" format="2">
  <advance width="837"/>
  <unicode hex="10B0"/>
  <note>
uni10B0
</note>
  <outline>
    <contour>
      <point x="256" y="-10" type="curve" smooth="yes"/>
      <point x="379" y="-10"/>
      <point x="453" y="65"/>
      <point x="453" y="214" type="curve" smooth="yes"/>
      <point x="453" y="293" type="line" smooth="yes"/>
      <point x="453" y="408"/>
      <point x="523" y="477"/>
      <point x="608" y="477" type="curve" smooth="yes"/>
      <point x="684" y="477"/>
      <point x="747" y="430"/>
      <point x="747" y="338" type="curve" smooth="yes"/>
      <point x="747" y="288"/>
      <point x="733" y="245"/>
      <point x="707" y="213" type="curve"/>
      <point x="710" y="211"/>
      <point x="715" y="210"/>
      <point x="720" y="210" type="curve" smooth="yes"/>
      <point x="753" y="210"/>
      <point x="775" y="281"/>
      <point x="775" y="338" type="curve" smooth="yes"/>
      <point x="775" y="445"/>
      <point x="697" y="502"/>
      <point x="613" y="502" type="curve" smooth="yes"/>
      <point x="555" y="502"/>
      <point x="483" y="474"/>
      <point x="453" y="396" type="curve"/>
      <point x="450" y="396" type="line"/>
      <point x="452" y="428"/>
      <point x="453" y="461"/>
      <point x="453" y="493" type="curve" smooth="yes"/>
      <point x="453" y="624" type="line" smooth="yes"/>
      <point x="453" y="685"/>
      <point x="463" y="694"/>
      <point x="509" y="694" type="curve" smooth="yes"/>
      <point x="529" y="694" type="line"/>
      <point x="529" y="714" type="line"/>
      <point x="346" y="714" type="line"/>
      <point x="346" y="694" type="line"/>
      <point x="369" y="694" type="line" smooth="yes"/>
      <point x="415" y="694"/>
      <point x="425" y="685"/>
      <point x="425" y="624" type="curve" smooth="yes"/>
      <point x="425" y="210" type="line" smooth="yes"/>
      <point x="425" y="76"/>
      <point x="359" y="15"/>
      <point x="259" y="15" type="curve" smooth="yes"/>
      <point x="161" y="15"/>
      <point x="90" y="86"/>
      <point x="90" y="200" type="curve" smooth="yes"/>
      <point x="90" y="252"/>
      <point x="104" y="316"/>
      <point x="130" y="348" type="curve"/>
      <point x="126" y="350"/>
      <point x="122" y="351"/>
      <point x="117" y="351" type="curve" smooth="yes"/>
      <point x="81" y="351"/>
      <point x="62" y="255"/>
      <point x="62" y="204" type="curve" smooth="yes"/>
      <point x="62" y="63"/>
      <point x="147" y="-10"/>
    </contour>
  </outline>
</glyph>
<glyph name="San-oldgeorgian" format="2">
  <advance width="563"/>
  <unicode hex="10B1"/>
  <note>
uni10B1
</note>
  <outline>
    <contour>
      <point x="307" y="-10" type="curve" smooth="yes"/>
      <point x="416" y="-10"/>
      <point x="501" y="63"/>
      <point x="501" y="204" type="curve" smooth="yes"/>
      <point x="501" y="255"/>
      <point x="482" y="351"/>
      <point x="446" y="351" type="curve" smooth="yes"/>
      <point x="441" y="351"/>
      <point x="437" y="350"/>
      <point x="433" y="348" type="curve"/>
      <point x="459" y="316"/>
      <point x="473" y="252"/>
      <point x="473" y="200" type="curve" smooth="yes"/>
      <point x="473" y="86"/>
      <point x="402" y="15"/>
      <point x="304" y="15" type="curve" smooth="yes"/>
      <point x="204" y="15"/>
      <point x="138" y="81"/>
      <point x="138" y="215" type="curve" smooth="yes"/>
      <point x="138" y="714" type="line"/>
      <point x="13" y="714" type="line"/>
      <point x="13" y="694" type="line"/>
      <point x="55" y="694" type="line" smooth="yes"/>
      <point x="102" y="694"/>
      <point x="110" y="683"/>
      <point x="110" y="606" type="curve" smooth="yes"/>
      <point x="110" y="214" type="line" smooth="yes"/>
      <point x="110" y="65"/>
      <point x="184" y="-10"/>
    </contour>
  </outline>
</glyph>
<glyph name="Tar-oldgeorgian" format="2">
  <advance width="562"/>
  <unicode hex="10B2"/>
  <note>
uni10B2
</note>
  <outline>
    <contour>
      <point x="453" y="-81" type="curve"/>
      <point x="472" y="-81"/>
      <point x="480" y="-70"/>
      <point x="480" y="-51" type="curve" smooth="yes"/>
      <point x="480" y="-10"/>
      <point x="453" y="25"/>
      <point x="364" y="25" type="curve" smooth="yes"/>
      <point x="177" y="25" type="line"/>
      <point x="177" y="284" type="line"/>
      <point x="277" y="284" type="line" smooth="yes"/>
      <point x="452" y="284"/>
      <point x="511" y="383"/>
      <point x="511" y="509" type="curve" smooth="yes"/>
      <point x="511" y="639"/>
      <point x="449" y="714"/>
      <point x="299" y="714" type="curve" smooth="yes"/>
      <point x="50" y="714" type="line"/>
      <point x="50" y="694" type="line"/>
      <point x="93" y="694" type="line" smooth="yes"/>
      <point x="143" y="694"/>
      <point x="149" y="683"/>
      <point x="149" y="606" type="curve" smooth="yes"/>
      <point x="149" y="0" type="line"/>
      <point x="356" y="0" type="line" smooth="yes"/>
      <point x="434" y="0"/>
      <point x="453" y="-25"/>
    </contour>
    <contour>
      <point x="177" y="309" type="line"/>
      <point x="177" y="689" type="line"/>
      <point x="299" y="689" type="line" smooth="yes"/>
      <point x="430" y="689"/>
      <point x="483" y="624"/>
      <point x="483" y="509" type="curve" smooth="yes"/>
      <point x="483" y="401"/>
      <point x="438" y="309"/>
      <point x="276" y="309" type="curve" smooth="yes"/>
    </contour>
  </outline>
</glyph>
<glyph name="Un-oldgeorgian" format="2">
  <advance width="686"/>
  <unicode hex="10B3"/>
  <note>
uni10B3
</note>
  <outline>
    <contour>
      <point x="517" y="-160" type="curve" smooth="yes"/>
      <point x="589" y="-160"/>
      <point x="657" y="-116"/>
      <point x="657" y="0" type="curve" smooth="yes"/>
      <point x="657" y="63"/>
      <point x="629" y="114"/>
      <point x="587" y="137" type="curve"/>
      <point x="615" y="196"/>
      <point x="627" y="271"/>
      <point x="627" y="358" type="curve" smooth="yes"/>
      <point x="627" y="590"/>
      <point x="547" y="724"/>
      <point x="344" y="724" type="curve" smooth="yes"/>
      <point x="157" y="724"/>
      <point x="58" y="592"/>
      <point x="58" y="359" type="curve" smooth="yes"/>
      <point x="58" y="125"/>
      <point x="153" y="-10"/>
      <point x="343" y="-10" type="curve" smooth="yes"/>
      <point x="456" y="-10"/>
      <point x="531" y="35"/>
      <point x="576" y="114" type="curve"/>
      <point x="607" y="92"/>
      <point x="629" y="49"/>
      <point x="629" y="0" type="curve" smooth="yes"/>
      <point x="629" y="-97"/>
      <point x="576" y="-137"/>
      <point x="521" y="-137" type="curve" smooth="yes"/>
      <point x="486" y="-137"/>
      <point x="444" y="-126"/>
      <point x="444" y="-84" type="curve"/>
      <point x="428" y="-84"/>
      <point x="418" y="-93"/>
      <point x="418" y="-106" type="curve" smooth="yes"/>
      <point x="418" y="-140"/>
      <point x="462" y="-160"/>
    </contour>
    <contour>
      <point x="343" y="15" type="curve" smooth="yes"/>
      <point x="172" y="15"/>
      <point x="86" y="143"/>
      <point x="86" y="358" type="curve" smooth="yes"/>
      <point x="86" y="573"/>
      <point x="172" y="699"/>
      <point x="344" y="699" type="curve" smooth="yes"/>
      <point x="530" y="699"/>
      <point x="599" y="573"/>
      <point x="599" y="358" type="curve" smooth="yes"/>
      <point x="599" y="145"/>
      <point x="524" y="15"/>
    </contour>
  </outline>
</glyph>
<glyph name="Phar-oldgeorgian" format="2">
  <advance width="696"/>
  <unicode hex="10B4"/>
  <note>
uni10B4
</note>
  <outline>
    <contour>
      <point x="334" y="0" type="line"/>
      <point x="362" y="0" type="line"/>
      <point x="362" y="238" type="line"/>
      <point x="549" y="248"/>
      <point x="639" y="324"/>
      <point x="639" y="477" type="curve" smooth="yes"/>
      <point x="639" y="632"/>
      <point x="544" y="724"/>
      <point x="349" y="724" type="curve" smooth="yes"/>
      <point x="153" y="724"/>
      <point x="57" y="631"/>
      <point x="57" y="477" type="curve" smooth="yes"/>
      <point x="57" y="326"/>
      <point x="145" y="248"/>
      <point x="334" y="238" type="curve"/>
    </contour>
    <contour>
      <point x="334" y="263" type="line"/>
      <point x="164" y="273"/>
      <point x="85" y="342"/>
      <point x="85" y="477" type="curve" smooth="yes"/>
      <point x="85" y="618"/>
      <point x="166" y="699"/>
      <point x="334" y="699" type="curve"/>
    </contour>
    <contour>
      <point x="362" y="263" type="curve"/>
      <point x="362" y="699" type="line"/>
      <point x="527" y="692"/>
      <point x="611" y="620"/>
      <point x="611" y="477" type="curve" smooth="yes"/>
      <point x="611" y="344"/>
      <point x="536" y="273"/>
    </contour>
  </outline>
</glyph>
<glyph name="Khar-oldgeorgian" format="2">
  <advance width="593"/>
  <unicode hex="10B5"/>
  <note>
uni10B5
</note>
  <outline>
    <contour>
      <point x="501" y="494" type="curve" smooth="yes"/>
      <point x="459" y="494"/>
      <point x="406" y="485"/>
      <point x="308" y="467" type="curve"/>
      <point x="308" y="624" type="line" smooth="yes"/>
      <point x="308" y="685"/>
      <point x="318" y="694"/>
      <point x="364" y="694" type="curve" smooth="yes"/>
      <point x="384" y="694" type="line"/>
      <point x="384" y="714" type="line"/>
      <point x="201" y="714" type="line"/>
      <point x="201" y="694" type="line"/>
      <point x="224" y="694" type="line" smooth="yes"/>
      <point x="270" y="694"/>
      <point x="280" y="685"/>
      <point x="280" y="624" type="curve" smooth="yes"/>
      <point x="280" y="461" type="line"/>
      <point x="208" y="449"/>
      <point x="143" y="442"/>
      <point x="121" y="442" type="curve" smooth="yes"/>
      <point x="91" y="442"/>
      <point x="78" y="454"/>
      <point x="76" y="484" type="curve"/>
      <point x="55" y="478"/>
      <point x="44" y="467"/>
      <point x="44" y="453" type="curve" smooth="yes"/>
      <point x="44" y="430"/>
      <point x="63" y="416"/>
      <point x="93" y="416" type="curve" smooth="yes"/>
      <point x="124" y="416"/>
      <point x="225" y="429"/>
      <point x="280" y="439" type="curve"/>
      <point x="280" y="0" type="line"/>
      <point x="308" y="0" type="line"/>
      <point x="308" y="445" type="line"/>
      <point x="374" y="458"/>
      <point x="424" y="468"/>
      <point x="471" y="468" type="curve" smooth="yes"/>
      <point x="502" y="468"/>
      <point x="513" y="449"/>
      <point x="518" y="419" type="curve"/>
      <point x="537" y="425"/>
      <point x="549" y="438"/>
      <point x="549" y="455" type="curve" smooth="yes"/>
      <point x="549" y="481"/>
      <point x="530" y="494"/>
    </contour>
  </outline>
</glyph>
<glyph name="Ghan-oldgeorgian" format="2">
  <advance width="729"/>
  <unicode hex="10B6"/>
  <note>
uni10B6
</note>
  <outline>
    <contour>
      <point x="650" y="20" type="line" smooth="yes"/>
      <point x="604" y="20"/>
      <point x="594" y="29"/>
      <point x="594" y="90" type="curve" smooth="yes"/>
      <point x="594" y="500" type="line" smooth="yes"/>
      <point x="594" y="663"/>
      <point x="502" y="724"/>
      <point x="364" y="724" type="curve" smooth="yes"/>
      <point x="209" y="724"/>
      <point x="135" y="626"/>
      <point x="135" y="496" type="curve" smooth="yes"/>
      <point x="135" y="90" type="line" smooth="yes"/>
      <point x="135" y="29"/>
      <point x="125" y="20"/>
      <point x="79" y="20" type="curve" smooth="yes"/>
      <point x="56" y="20" type="line"/>
      <point x="56" y="0" type="line"/>
      <point x="239" y="0" type="line"/>
      <point x="239" y="20" type="line"/>
      <point x="219" y="20" type="line" smooth="yes"/>
      <point x="173" y="20"/>
      <point x="163" y="29"/>
      <point x="163" y="90" type="curve" smooth="yes"/>
      <point x="163" y="495" type="line" smooth="yes"/>
      <point x="163" y="608"/>
      <point x="225" y="699"/>
      <point x="366" y="699" type="curve" smooth="yes"/>
      <point x="490" y="699"/>
      <point x="566" y="638"/>
      <point x="566" y="504" type="curve" smooth="yes"/>
      <point x="566" y="90" type="line" smooth="yes"/>
      <point x="566" y="29"/>
      <point x="556" y="20"/>
      <point x="510" y="20" type="curve" smooth="yes"/>
      <point x="487" y="20" type="line"/>
      <point x="487" y="0" type="line"/>
      <point x="670" y="0" type="line"/>
      <point x="670" y="20" type="line"/>
    </contour>
  </outline>
</glyph>
<glyph name="Qar-oldgeorgian" format="2">
  <advance width="639"/>
  <unicode hex="10B7"/>
  <note>
uni10B7
</note>
  <outline>
    <contour>
      <point x="395" y="0" type="line"/>
      <point x="578" y="0" type="line"/>
      <point x="578" y="20" type="line"/>
      <point x="555" y="20" type="line" smooth="yes"/>
      <point x="509" y="20"/>
      <point x="499" y="29"/>
      <point x="499" y="90" type="curve" smooth="yes"/>
      <point x="499" y="624" type="line" smooth="yes"/>
      <point x="499" y="685"/>
      <point x="509" y="694"/>
      <point x="555" y="694" type="curve" smooth="yes"/>
      <point x="575" y="694" type="line"/>
      <point x="575" y="714" type="line"/>
      <point x="392" y="714" type="line"/>
      <point x="392" y="694" type="line"/>
      <point x="415" y="694" type="line" smooth="yes"/>
      <point x="461" y="694"/>
      <point x="471" y="685"/>
      <point x="471" y="624" type="curve" smooth="yes"/>
      <point x="471" y="467" type="line" smooth="yes"/>
      <point x="471" y="354"/>
      <point x="414" y="263"/>
      <point x="267" y="263" type="curve" smooth="yes"/>
      <point x="148" y="263"/>
      <point x="90" y="340"/>
      <point x="90" y="477" type="curve" smooth="yes"/>
      <point x="90" y="619"/>
      <point x="148" y="701"/>
      <point x="237" y="701" type="curve"/>
      <point x="237" y="707"/>
      <point x="235" y="721"/>
      <point x="215" y="721" type="curve" smooth="yes"/>
      <point x="118" y="721"/>
      <point x="62" y="608"/>
      <point x="62" y="477" type="curve" smooth="yes"/>
      <point x="62" y="315"/>
      <point x="136" y="238"/>
      <point x="267" y="238" type="curve" smooth="yes"/>
      <point x="376" y="238"/>
      <point x="437" y="282"/>
      <point x="471" y="350" type="curve"/>
      <point x="474" y="350" type="line"/>
      <point x="472" y="318"/>
      <point x="471" y="285"/>
      <point x="471" y="253" type="curve" smooth="yes"/>
      <point x="471" y="90" type="line" smooth="yes"/>
      <point x="471" y="29"/>
      <point x="461" y="20"/>
      <point x="415" y="20" type="curve" smooth="yes"/>
      <point x="395" y="20" type="line"/>
    </contour>
  </outline>
</glyph>
<glyph name="Shin-oldgeorgian" format="2">
  <advance width="603"/>
  <unicode hex="10B8"/>
  <note>
uni10B8
</note>
  <outline>
    <contour>
      <point x="386" y="714" type="line"/>
      <point x="386" y="694" type="line"/>
      <point x="409" y="694" type="line" smooth="yes"/>
      <point x="455" y="694"/>
      <point x="465" y="685"/>
      <point x="465" y="624" type="curve" smooth="yes"/>
      <point x="465" y="537" type="line" smooth="yes"/>
      <point x="465" y="424"/>
      <point x="415" y="333"/>
      <point x="302" y="333" type="curve" smooth="yes"/>
      <point x="203" y="333"/>
      <point x="141" y="394"/>
      <point x="141" y="488" type="curve" smooth="yes"/>
      <point x="141" y="714" type="line"/>
      <point x="24" y="714" type="line"/>
      <point x="24" y="694" type="line"/>
      <point x="57" y="694" type="line" smooth="yes"/>
      <point x="107" y="694"/>
      <point x="113" y="683"/>
      <point x="113" y="606" type="curve" smooth="yes"/>
      <point x="113" y="488" type="line" smooth="yes"/>
      <point x="113" y="369"/>
      <point x="190" y="308"/>
      <point x="304" y="308" type="curve" smooth="yes"/>
      <point x="382" y="308"/>
      <point x="435" y="345"/>
      <point x="465" y="413" type="curve"/>
      <point x="468" y="413" type="line"/>
      <point x="466" y="381"/>
      <point x="465" y="348"/>
      <point x="465" y="316" type="curve" smooth="yes"/>
      <point x="465" y="210" type="line" smooth="yes"/>
      <point x="465" y="76"/>
      <point x="406" y="15"/>
      <point x="304" y="15" type="curve" smooth="yes"/>
      <point x="187" y="15"/>
      <point x="141" y="101"/>
      <point x="141" y="164" type="curve" smooth="yes"/>
      <point x="141" y="188"/>
      <point x="144" y="198"/>
      <point x="147" y="207" type="curve"/>
      <point x="144" y="208"/>
      <point x="141" y="209"/>
      <point x="138" y="209" type="curve" smooth="yes"/>
      <point x="123" y="209"/>
      <point x="113" y="192"/>
      <point x="113" y="164" type="curve" smooth="yes"/>
      <point x="113" y="79"/>
      <point x="178" y="-10"/>
      <point x="303" y="-10" type="curve" smooth="yes"/>
      <point x="419" y="-10"/>
      <point x="493" y="51"/>
      <point x="493" y="214" type="curve" smooth="yes"/>
      <point x="493" y="624" type="line" smooth="yes"/>
      <point x="493" y="685"/>
      <point x="503" y="694"/>
      <point x="549" y="694" type="curve" smooth="yes"/>
      <point x="569" y="694" type="line"/>
      <point x="569" y="714" type="line"/>
    </contour>
  </outline>
</glyph>
<glyph name="Chin-oldgeorgian" format="2">
  <advance width="687"/>
  <unicode hex="10B9"/>
  <note>
uni10B9
</note>
  <outline>
    <contour>
      <point x="608" y="20" type="line" smooth="yes"/>
      <point x="558" y="20"/>
      <point x="552" y="31"/>
      <point x="552" y="108" type="curve" smooth="yes"/>
      <point x="552" y="436" type="line"/>
      <point x="167" y="436" type="line"/>
      <point x="167" y="624" type="line" smooth="yes"/>
      <point x="167" y="685"/>
      <point x="177" y="694"/>
      <point x="223" y="694" type="curve" smooth="yes"/>
      <point x="243" y="694" type="line"/>
      <point x="243" y="714" type="line"/>
      <point x="60" y="714" type="line"/>
      <point x="60" y="694" type="line"/>
      <point x="83" y="694" type="line" smooth="yes"/>
      <point x="129" y="694"/>
      <point x="139" y="685"/>
      <point x="139" y="624" type="curve" smooth="yes"/>
      <point x="139" y="108" type="line" smooth="yes"/>
      <point x="139" y="31"/>
      <point x="133" y="20"/>
      <point x="83" y="20" type="curve" smooth="yes"/>
      <point x="40" y="20" type="line"/>
      <point x="40" y="0" type="line"/>
      <point x="268" y="0" type="line"/>
      <point x="268" y="20" type="line"/>
      <point x="223" y="20" type="line" smooth="yes"/>
      <point x="173" y="20"/>
      <point x="167" y="31"/>
      <point x="167" y="108" type="curve" smooth="yes"/>
      <point x="167" y="411" type="line"/>
      <point x="524" y="411" type="line"/>
      <point x="524" y="0" type="line"/>
      <point x="651" y="0" type="line"/>
      <point x="651" y="20" type="line"/>
    </contour>
  </outline>
</glyph>
<glyph name="Can-oldgeorgian" format="2">
  <advance width="550"/>
  <unicode hex="10BA"/>
  <note>
uni10BA
</note>
  <outline>
    <contour>
      <point x="319" y="-135" type="curve" smooth="yes"/>
      <point x="340" y="-135"/>
      <point x="387" y="-124"/>
      <point x="438" y="-74" type="curve" smooth="yes"/>
      <point x="484" y="-29"/>
      <point x="510" y="36"/>
      <point x="510" y="86" type="curve" smooth="yes"/>
      <point x="510" y="96"/>
      <point x="506" y="106"/>
      <point x="497" y="111" type="curve"/>
      <point x="473" y="59"/>
      <point x="422" y="15"/>
      <point x="323" y="15" type="curve" smooth="yes"/>
      <point x="162" y="15"/>
      <point x="85" y="147"/>
      <point x="85" y="358" type="curve" smooth="yes"/>
      <point x="85" y="566"/>
      <point x="166" y="699"/>
      <point x="318" y="699" type="curve" smooth="yes"/>
      <point x="457" y="699"/>
      <point x="495" y="650"/>
      <point x="495" y="568" type="curve"/>
      <point x="509" y="568"/>
      <point x="516" y="583"/>
      <point x="516" y="610" type="curve" smooth="yes"/>
      <point x="516" y="666"/>
      <point x="464" y="724"/>
      <point x="324" y="724" type="curve" smooth="yes"/>
      <point x="149" y="724"/>
      <point x="57" y="588"/>
      <point x="57" y="358" type="curve" smooth="yes"/>
      <point x="57" y="131"/>
      <point x="145" y="-10"/>
      <point x="324" y="-10" type="curve" smooth="yes"/>
      <point x="399" y="-10"/>
      <point x="450" y="16"/>
      <point x="479" y="41" type="curve"/>
      <point x="450" y="-49"/>
      <point x="374" y="-106"/>
      <point x="328" y="-106" type="curve" smooth="yes"/>
      <point x="308" y="-106"/>
      <point x="299" y="-101"/>
      <point x="291" y="-90" type="curve"/>
      <point x="286" y="-97"/>
      <point x="283" y="-103"/>
      <point x="283" y="-112" type="curve" smooth="yes"/>
      <point x="283" y="-129"/>
      <point x="301" y="-135"/>
    </contour>
  </outline>
</glyph>
<glyph name="Jil-oldgeorgian" format="2">
  <advance width="861"/>
  <unicode hex="10BB"/>
  <note>
uni10BB
</note>
  <outline>
    <contour>
      <point x="252" y="-10" type="curve" smooth="yes"/>
      <point x="378" y="-10"/>
      <point x="449" y="73"/>
      <point x="449" y="207" type="curve" smooth="yes"/>
      <point x="449" y="401" type="line"/>
      <point x="698" y="401" type="line"/>
      <point x="698" y="0" type="line"/>
      <point x="825" y="0" type="line"/>
      <point x="825" y="20" type="line"/>
      <point x="782" y="20" type="line" smooth="yes"/>
      <point x="732" y="20"/>
      <point x="726" y="31"/>
      <point x="726" y="108" type="curve" smooth="yes"/>
      <point x="726" y="426" type="line"/>
      <point x="449" y="426" type="line"/>
      <point x="449" y="624" type="line" smooth="yes"/>
      <point x="449" y="685"/>
      <point x="459" y="694"/>
      <point x="505" y="694" type="curve" smooth="yes"/>
      <point x="525" y="694" type="line"/>
      <point x="525" y="714" type="line"/>
      <point x="342" y="714" type="line"/>
      <point x="342" y="694" type="line"/>
      <point x="365" y="694" type="line" smooth="yes"/>
      <point x="411" y="694"/>
      <point x="421" y="685"/>
      <point x="421" y="624" type="curve" smooth="yes"/>
      <point x="421" y="426" type="line"/>
      <point x="270" y="426" type="line" smooth="yes"/>
      <point x="114" y="426"/>
      <point x="46" y="338"/>
      <point x="46" y="206" type="curve" smooth="yes"/>
      <point x="46" y="57"/>
      <point x="138" y="-10"/>
    </contour>
    <contour>
      <point x="253" y="15" type="curve" smooth="yes"/>
      <point x="150" y="15"/>
      <point x="74" y="76"/>
      <point x="74" y="207" type="curve" smooth="yes"/>
      <point x="74" y="326"/>
      <point x="136" y="401"/>
      <point x="270" y="401" type="curve" smooth="yes"/>
      <point x="421" y="401" type="line"/>
      <point x="421" y="212" type="line" smooth="yes"/>
      <point x="421" y="90"/>
      <point x="368" y="15"/>
    </contour>
  </outline>
</glyph>
<glyph name="Cil-oldgeorgian" format="2">
  <advance width="560"/>
  <unicode hex="10BC"/>
  <note>
uni10BC
</note>
  <outline>
    <contour>
      <point x="149" y="0" type="line"/>
      <point x="177" y="0" type="line"/>
      <point x="177" y="170" type="line"/>
      <point x="226" y="170" type="line" smooth="yes"/>
      <point x="292" y="170"/>
      <point x="320" y="147"/>
      <point x="320" y="89" type="curve"/>
      <point x="339" y="89"/>
      <point x="350" y="100"/>
      <point x="350" y="119" type="curve" smooth="yes"/>
      <point x="350" y="168"/>
      <point x="313" y="195"/>
      <point x="229" y="195" type="curve" smooth="yes"/>
      <point x="177" y="195" type="line"/>
      <point x="177" y="284" type="line"/>
      <point x="277" y="284" type="line" smooth="yes"/>
      <point x="452" y="284"/>
      <point x="511" y="383"/>
      <point x="511" y="509" type="curve" smooth="yes"/>
      <point x="511" y="639"/>
      <point x="449" y="714"/>
      <point x="299" y="714" type="curve" smooth="yes"/>
      <point x="50" y="714" type="line"/>
      <point x="50" y="694" type="line"/>
      <point x="93" y="694" type="line" smooth="yes"/>
      <point x="143" y="694"/>
      <point x="149" y="683"/>
      <point x="149" y="606" type="curve" smooth="yes"/>
    </contour>
    <contour>
      <point x="177" y="309" type="line"/>
      <point x="177" y="689" type="line"/>
      <point x="299" y="689" type="line" smooth="yes"/>
      <point x="430" y="689"/>
      <point x="483" y="624"/>
      <point x="483" y="509" type="curve" smooth="yes"/>
      <point x="483" y="401"/>
      <point x="438" y="309"/>
      <point x="276" y="309" type="curve" smooth="yes"/>
    </contour>
  </outline>
</glyph>
<glyph name="Char-oldgeorgian" format="2">
  <advance width="490"/>
  <unicode hex="10BD"/>
  <note>
uni10BD
</note>
  <outline>
    <contour>
      <point x="261" y="-10" type="curve" smooth="yes"/>
      <point x="379" y="-10"/>
      <point x="437" y="67"/>
      <point x="437" y="169" type="curve" smooth="yes"/>
      <point x="437" y="286"/>
      <point x="350" y="330"/>
      <point x="259" y="384" type="curve" smooth="yes"/>
      <point x="175" y="434"/>
      <point x="128" y="469"/>
      <point x="128" y="554" type="curve" smooth="yes"/>
      <point x="128" y="636"/>
      <point x="176" y="699"/>
      <point x="271" y="699" type="curve" smooth="yes"/>
      <point x="358" y="699"/>
      <point x="408" y="661"/>
      <point x="408" y="575" type="curve"/>
      <point x="422" y="575"/>
      <point x="429" y="589"/>
      <point x="429" y="614" type="curve" smooth="yes"/>
      <point x="429" y="675"/>
      <point x="364" y="724"/>
      <point x="272" y="724" type="curve" smooth="yes"/>
      <point x="167" y="724"/>
      <point x="100" y="650"/>
      <point x="100" y="559" type="curve" smooth="yes"/>
      <point x="100" y="458"/>
      <point x="142" y="417"/>
      <point x="249" y="357" type="curve" smooth="yes"/>
      <point x="363" y="293"/>
      <point x="409" y="249"/>
      <point x="409" y="168" type="curve" smooth="yes"/>
      <point x="409" y="78"/>
      <point x="364" y="15"/>
      <point x="261" y="15" type="curve" smooth="yes"/>
      <point x="155" y="15"/>
      <point x="96" y="66"/>
      <point x="96" y="166" type="curve"/>
      <point x="82" y="166"/>
      <point x="75" y="150"/>
      <point x="75" y="126" type="curve" smooth="yes"/>
      <point x="75" y="59"/>
      <point x="134" y="-10"/>
    </contour>
  </outline>
</glyph>
<glyph name="Xan-oldgeorgian" format="2">
  <advance width="692"/>
  <unicode hex="10BE"/>
  <note>
uni10BE
</note>
  <outline>
    <contour>
      <point x="60" y="0" type="line"/>
      <point x="562" y="0" type="line"/>
      <point x="562" y="25" type="line"/>
      <point x="177" y="25" type="line"/>
      <point x="177" y="308" type="line"/>
      <point x="552" y="308" type="line"/>
      <point x="552" y="606" type="line" smooth="yes"/>
      <point x="552" y="683"/>
      <point x="558" y="694"/>
      <point x="608" y="694" type="curve" smooth="yes"/>
      <point x="651" y="694" type="line"/>
      <point x="651" y="714" type="line"/>
      <point x="524" y="714" type="line"/>
      <point x="524" y="333" type="line"/>
      <point x="177" y="333" type="line"/>
      <point x="177" y="606" type="line" smooth="yes"/>
      <point x="177" y="683"/>
      <point x="183" y="694"/>
      <point x="233" y="694" type="curve" smooth="yes"/>
      <point x="278" y="694" type="line"/>
      <point x="278" y="714" type="line"/>
      <point x="50" y="714" type="line"/>
      <point x="50" y="694" type="line"/>
      <point x="93" y="694" type="line" smooth="yes"/>
      <point x="143" y="694"/>
      <point x="149" y="683"/>
      <point x="149" y="606" type="curve" smooth="yes"/>
      <point x="149" y="108" type="line" smooth="yes"/>
      <point x="149" y="31"/>
      <point x="143" y="20"/>
      <point x="93" y="20" type="curve" smooth="yes"/>
      <point x="60" y="20" type="line"/>
    </contour>
  </outline>
</glyph>
<glyph name="Jhan-oldgeorgian" format="2">
  <advance width="556"/>
  <unicode hex="10BF"/>
  <note>
uni10BF
</note>
  <outline>
    <contour>
      <point x="6" y="0" type="line"/>
      <point x="56" y="0" type="line" smooth="yes"/>
      <point x="106" y="0"/>
      <point x="124" y="29"/>
      <point x="152" y="83" type="curve" smooth="yes"/>
      <point x="288" y="340" type="line"/>
      <point x="398" y="120" type="line" smooth="yes"/>
      <point x="422" y="73"/>
      <point x="434" y="56"/>
      <point x="434" y="40" type="curve" smooth="yes"/>
      <point x="434" y="28"/>
      <point x="431" y="20"/>
      <point x="398" y="20" type="curve" smooth="yes"/>
      <point x="360" y="20" type="line"/>
      <point x="360" y="0" type="line"/>
      <point x="554" y="0" type="line"/>
      <point x="554" y="20" type="line"/>
      <point x="530" y="20" type="line" smooth="yes"/>
      <point x="486" y="20"/>
      <point x="482" y="24"/>
      <point x="459" y="68" type="curve" smooth="yes"/>
      <point x="302" y="369" type="line"/>
      <point x="470" y="691" type="line"/>
      <point x="470" y="714" type="line"/>
      <point x="18" y="714" type="line"/>
      <point x="18" y="694" type="line"/>
      <point x="95" y="694" type="line"/>
      <point x="271" y="370" type="line"/>
      <point x="124" y="88" type="line" smooth="yes"/>
      <point x="98" y="37"/>
      <point x="75" y="20"/>
      <point x="31" y="20" type="curve" smooth="yes"/>
      <point x="6" y="20" type="line"/>
    </contour>
    <contour>
      <point x="286" y="398" type="line"/>
      <point x="127" y="694" type="line"/>
      <point x="386" y="694" type="line" smooth="yes"/>
      <point x="420" y="694"/>
      <point x="423" y="686"/>
      <point x="423" y="674" type="curve" smooth="yes"/>
      <point x="423" y="658"/>
      <point x="410" y="636"/>
      <point x="395" y="607" type="curve" smooth="yes"/>
    </contour>
  </outline>
</glyph>
<glyph name="Hae-oldgeorgian" format="2">
  <advance width="896"/>
  <unicode hex="10C0"/>
  <note>
uni10C0
</note>
  <outline>
    <contour>
      <point x="643" y="-10" type="curve" smooth="yes"/>
      <point x="772" y="-10"/>
      <point x="859" y="61"/>
      <point x="859" y="214" type="curve" smooth="yes"/>
      <point x="859" y="252"/>
      <point x="842" y="351"/>
      <point x="804" y="351" type="curve" smooth="yes"/>
      <point x="799" y="351"/>
      <point x="795" y="350"/>
      <point x="791" y="348" type="curve"/>
      <point x="817" y="316"/>
      <point x="831" y="248"/>
      <point x="831" y="210" type="curve" smooth="yes"/>
      <point x="831" y="86"/>
      <point x="760" y="15"/>
      <point x="645" y="15" type="curve" smooth="yes"/>
      <point x="514" y="15"/>
      <point x="454" y="106"/>
      <point x="454" y="219" type="curve" smooth="yes"/>
      <point x="454" y="624" type="line" smooth="yes"/>
      <point x="454" y="685"/>
      <point x="464" y="694"/>
      <point x="510" y="694" type="curve" smooth="yes"/>
      <point x="530" y="694" type="line"/>
      <point x="530" y="714" type="line"/>
      <point x="50" y="714" type="line"/>
      <point x="50" y="694" type="line"/>
      <point x="73" y="694" type="line" smooth="yes"/>
      <point x="119" y="694"/>
      <point x="129" y="685"/>
      <point x="129" y="624" type="curve" smooth="yes"/>
      <point x="129" y="446" type="line" smooth="yes"/>
      <point x="129" y="385"/>
      <point x="119" y="376"/>
      <point x="73" y="376" type="curve" smooth="yes"/>
      <point x="50" y="376" type="line"/>
      <point x="50" y="356" type="line"/>
      <point x="157" y="356" type="line"/>
      <point x="157" y="689" type="line"/>
      <point x="426" y="689" type="line"/>
      <point x="426" y="218" type="line" smooth="yes"/>
      <point x="426" y="88"/>
      <point x="498" y="-10"/>
    </contour>
  </outline>
</glyph>
<glyph name="He-oldgeorgian" format="2">
  <advance width="688"/>
  <unicode hex="10C1"/>
  <note>
uni10C1
</note>
  <outline>
    <contour>
      <point x="139" y="0" type="line"/>
      <point x="167" y="0" type="line"/>
      <point x="167" y="313" type="line" smooth="yes"/>
      <point x="167" y="426"/>
      <point x="227" y="517"/>
      <point x="340" y="517" type="curve" smooth="yes"/>
      <point x="439" y="517"/>
      <point x="491" y="456"/>
      <point x="491" y="362" type="curve" smooth="yes"/>
      <point x="491" y="290" type="line"/>
      <point x="664" y="290" type="line"/>
      <point x="664" y="315" type="line"/>
      <point x="519" y="315" type="line"/>
      <point x="519" y="362" type="line" smooth="yes"/>
      <point x="519" y="481"/>
      <point x="452" y="542"/>
      <point x="338" y="542" type="curve" smooth="yes"/>
      <point x="260" y="542"/>
      <point x="197" y="498"/>
      <point x="167" y="430" type="curve"/>
      <point x="164" y="430" type="line"/>
      <point x="166" y="462"/>
      <point x="167" y="495"/>
      <point x="167" y="527" type="curve" smooth="yes"/>
      <point x="167" y="714" type="line"/>
      <point x="40" y="714" type="line"/>
      <point x="40" y="694" type="line"/>
      <point x="83" y="694" type="line" smooth="yes"/>
      <point x="133" y="694"/>
      <point x="139" y="683"/>
      <point x="139" y="606" type="curve" smooth="yes"/>
    </contour>
  </outline>
</glyph>
<glyph name="Hie-oldgeorgian" format="2">
  <advance width="546"/>
  <unicode hex="10C2"/>
  <note>
uni10C2
</note>
  <outline>
    <contour>
      <point x="222" y="-10" type="curve" smooth="yes"/>
      <point x="397" y="-10"/>
      <point x="489" y="106"/>
      <point x="489" y="306" type="curve" smooth="yes"/>
      <point x="489" y="497"/>
      <point x="403" y="614"/>
      <point x="227" y="614" type="curve" smooth="yes"/>
      <point x="177" y="614" type="line"/>
      <point x="177" y="714" type="line"/>
      <point x="53" y="714" type="line"/>
      <point x="53" y="694" type="line"/>
      <point x="96" y="694" type="line" smooth="yes"/>
      <point x="138" y="694"/>
      <point x="149" y="684"/>
      <point x="149" y="627" type="curve" smooth="yes"/>
      <point x="149" y="589" type="line"/>
      <point x="227" y="589" type="line" smooth="yes"/>
      <point x="386" y="589"/>
      <point x="461" y="481"/>
      <point x="461" y="306" type="curve" smooth="yes"/>
      <point x="461" y="127"/>
      <point x="380" y="15"/>
      <point x="228" y="15" type="curve" smooth="yes"/>
      <point x="89" y="15"/>
      <point x="54" y="73"/>
      <point x="54" y="146" type="curve"/>
      <point x="45" y="146"/>
      <point x="30" y="131"/>
      <point x="30" y="107" type="curve" smooth="yes"/>
      <point x="30" y="58"/>
      <point x="82" y="-10"/>
    </contour>
  </outline>
</glyph>
<glyph name="We-oldgeorgian" format="2">
  <advance width="604"/>
  <unicode hex="10C3"/>
  <note>
uni10C3
</note>
  <outline>
    <contour>
      <point x="362" y="714" type="line"/>
      <point x="362" y="694" type="line"/>
      <point x="385" y="694" type="line" smooth="yes"/>
      <point x="431" y="694"/>
      <point x="441" y="685"/>
      <point x="441" y="624" type="curve" smooth="yes"/>
      <point x="441" y="467" type="line" smooth="yes"/>
      <point x="441" y="354"/>
      <point x="384" y="263"/>
      <point x="258" y="263" type="curve" smooth="yes"/>
      <point x="148" y="263"/>
      <point x="90" y="323"/>
      <point x="90" y="436" type="curve" smooth="yes"/>
      <point x="90" y="507"/>
      <point x="108" y="548"/>
      <point x="142" y="585" type="curve"/>
      <point x="140" y="586"/>
      <point x="137" y="587"/>
      <point x="134" y="587" type="curve" smooth="yes"/>
      <point x="109" y="587"/>
      <point x="62" y="544"/>
      <point x="62" y="436" type="curve" smooth="yes"/>
      <point x="62" y="302"/>
      <point x="136" y="238"/>
      <point x="258" y="238" type="curve" smooth="yes"/>
      <point x="346" y="238"/>
      <point x="407" y="280"/>
      <point x="441" y="348" type="curve"/>
      <point x="444" y="348" type="line"/>
      <point x="442" y="316"/>
      <point x="441" y="278"/>
      <point x="441" y="246" type="curve" smooth="yes"/>
      <point x="441" y="0" type="line"/>
      <point x="469" y="0" type="line"/>
      <point x="469" y="624" type="line" smooth="yes"/>
      <point x="469" y="685"/>
      <point x="479" y="694"/>
      <point x="525" y="694" type="curve" smooth="yes"/>
      <point x="545" y="694" type="line"/>
      <point x="545" y="714" type="line"/>
    </contour>
  </outline>
</glyph>
<glyph name="Har-oldgeorgian" format="2">
  <advance width="603"/>
  <unicode hex="10C4"/>
  <note>
uni10C4
</note>
  <outline>
    <contour>
      <point x="386" y="714" type="line"/>
      <point x="386" y="694" type="line"/>
      <point x="409" y="694" type="line" smooth="yes"/>
      <point x="455" y="694"/>
      <point x="465" y="685"/>
      <point x="465" y="624" type="curve" smooth="yes"/>
      <point x="465" y="510" type="line" smooth="yes"/>
      <point x="465" y="376"/>
      <point x="406" y="315"/>
      <point x="304" y="315" type="curve" smooth="yes"/>
      <point x="187" y="315"/>
      <point x="141" y="396"/>
      <point x="141" y="509" type="curve" smooth="yes"/>
      <point x="141" y="624" type="line" smooth="yes"/>
      <point x="141" y="685"/>
      <point x="151" y="694"/>
      <point x="197" y="694" type="curve" smooth="yes"/>
      <point x="217" y="694" type="line"/>
      <point x="217" y="714" type="line"/>
      <point x="34" y="714" type="line"/>
      <point x="34" y="694" type="line"/>
      <point x="57" y="694" type="line" smooth="yes"/>
      <point x="103" y="694"/>
      <point x="113" y="685"/>
      <point x="113" y="624" type="curve" smooth="yes"/>
      <point x="113" y="508" type="line" smooth="yes"/>
      <point x="113" y="379"/>
      <point x="167" y="296"/>
      <point x="290" y="290" type="curve"/>
      <point x="290" y="0" type="line"/>
      <point x="318" y="0" type="line"/>
      <point x="318" y="290" type="line"/>
      <point x="425" y="296"/>
      <point x="493" y="358"/>
      <point x="493" y="514" type="curve" smooth="yes"/>
      <point x="493" y="624" type="line" smooth="yes"/>
      <point x="493" y="685"/>
      <point x="503" y="694"/>
      <point x="549" y="694" type="curve" smooth="yes"/>
      <point x="569" y="694" type="line"/>
      <point x="569" y="714" type="line"/>
    </contour>
  </outline>
</glyph>
<glyph name="Hoe-oldgeorgian" format="2">
  <advance width="693"/>
  <unicode hex="10C5"/>
  <note>
uni10C5
</note>
  <outline>
    <contour>
      <point x="160" y="-10" type="curve" smooth="yes"/>
      <point x="253" y="-10"/>
      <point x="308" y="37"/>
      <point x="308" y="165" type="curve" smooth="yes"/>
      <point x="308" y="235" type="line"/>
      <point x="431" y="235" type="line"/>
      <point x="497" y="235"/>
      <point x="525" y="212"/>
      <point x="525" y="154" type="curve"/>
      <point x="544" y="154"/>
      <point x="555" y="165"/>
      <point x="555" y="184" type="curve" smooth="yes"/>
      <point x="555" y="233"/>
      <point x="518" y="260"/>
      <point x="434" y="260" type="curve"/>
      <point x="308" y="260" type="line"/>
      <point x="308" y="344" type="line"/>
      <point x="408" y="344" type="line" smooth="yes"/>
      <point x="583" y="344"/>
      <point x="642" y="429"/>
      <point x="642" y="538" type="curve" smooth="yes"/>
      <point x="642" y="649"/>
      <point x="580" y="714"/>
      <point x="430" y="714" type="curve" smooth="yes"/>
      <point x="181" y="714" type="line"/>
      <point x="181" y="694" type="line"/>
      <point x="224" y="694" type="line" smooth="yes"/>
      <point x="274" y="694"/>
      <point x="280" y="683"/>
      <point x="280" y="606" type="curve" smooth="yes"/>
      <point x="280" y="260" type="line"/>
      <point x="211" y="260" type="line" smooth="yes"/>
      <point x="97" y="260"/>
      <point x="28" y="224"/>
      <point x="28" y="125" type="curve" smooth="yes"/>
      <point x="28" y="33"/>
      <point x="78" y="-10"/>
    </contour>
    <contour>
      <point x="160" y="15" type="curve" smooth="yes"/>
      <point x="92" y="15"/>
      <point x="56" y="58"/>
      <point x="56" y="125" type="curve" smooth="yes"/>
      <point x="56" y="208"/>
      <point x="109" y="235"/>
      <point x="211" y="235" type="curve" smooth="yes"/>
      <point x="280" y="235" type="line"/>
      <point x="280" y="165" type="line" smooth="yes"/>
      <point x="280" y="65"/>
      <point x="235" y="15"/>
    </contour>
    <contour>
      <point x="308" y="369" type="line"/>
      <point x="308" y="689" type="line"/>
      <point x="430" y="689" type="line" smooth="yes"/>
      <point x="561" y="689"/>
      <point x="614" y="634"/>
      <point x="614" y="537" type="curve" smooth="yes"/>
      <point x="614" y="446"/>
      <point x="569" y="369"/>
      <point x="407" y="369" type="curve" smooth="yes"/>
    </contour>
  </outline>
</glyph>
<glyph name="Yn-oldgeorgian" format="2">
  <advance width="490"/>
  <unicode hex="10C7"/>
  <outline>
    <contour>
      <point x="229" y="-10" type="curve" smooth="yes"/>
      <point x="356" y="-10"/>
      <point x="415" y="59"/>
      <point x="415" y="126" type="curve" smooth="yes"/>
      <point x="415" y="150"/>
      <point x="408" y="166"/>
      <point x="394" y="166" type="curve"/>
      <point x="394" y="66"/>
      <point x="335" y="15"/>
      <point x="229" y="15" type="curve" smooth="yes"/>
      <point x="126" y="15"/>
      <point x="81" y="78"/>
      <point x="81" y="168" type="curve" smooth="yes"/>
      <point x="81" y="249"/>
      <point x="127" y="293"/>
      <point x="241" y="357" type="curve" smooth="yes"/>
      <point x="348" y="417"/>
      <point x="390" y="458"/>
      <point x="390" y="559" type="curve" smooth="yes"/>
      <point x="390" y="650"/>
      <point x="323" y="724"/>
      <point x="218" y="724" type="curve" smooth="yes"/>
      <point x="126" y="724"/>
      <point x="61" y="675"/>
      <point x="61" y="614" type="curve" smooth="yes"/>
      <point x="61" y="589"/>
      <point x="68" y="575"/>
      <point x="82" y="575" type="curve"/>
      <point x="82" y="661"/>
      <point x="132" y="699"/>
      <point x="219" y="699" type="curve" smooth="yes"/>
      <point x="314" y="699"/>
      <point x="362" y="636"/>
      <point x="362" y="554" type="curve" smooth="yes"/>
      <point x="362" y="469"/>
      <point x="315" y="433"/>
      <point x="231" y="384" type="curve" smooth="yes"/>
      <point x="140" y="331"/>
      <point x="53" y="286"/>
      <point x="53" y="169" type="curve" smooth="yes"/>
      <point x="53" y="67"/>
      <point x="111" y="-10"/>
    </contour>
  </outline>
</glyph>
<glyph name="Aen-oldgeorgian" format="2">
  <advance width="498"/>
  <unicode hex="10CD"/>
  <outline>
    <contour>
      <point x="28" y="0" type="line"/>
      <point x="453" y="0" type="line"/>
      <point x="458" y="135" type="line"/>
      <point x="438" y="135" type="line"/>
      <point x="436" y="93" type="line" smooth="yes"/>
      <point x="433" y="39"/>
      <point x="427" y="25"/>
      <point x="375" y="25" type="curve" smooth="yes"/>
      <point x="62" y="25" type="line"/>
      <point x="450" y="685" type="line"/>
      <point x="450" y="714" type="line"/>
      <point x="52" y="714" type="line"/>
      <point x="47" y="579" type="line"/>
      <point x="67" y="579" type="line"/>
      <point x="69" y="620" type="line" smooth="yes"/>
      <point x="72" y="675"/>
      <point x="78" y="689"/>
      <point x="130" y="689" type="curve" smooth="yes"/>
      <point x="420" y="689" type="line"/>
      <point x="28" y="22" type="line"/>
    </contour>
  </outline>
</glyph>
<glyph name="an-georgian" format="2">
  <advance width="502"/>
  <unicode hex="10D0"/>
  <note>
uni10D0
</note>
  <anchor x="241" y="536" name="top"/>
  <outline>
    <contour>
      <point x="247" y="-10" type="curve" smooth="yes"/>
      <point x="347" y="-10"/>
      <point x="437" y="56"/>
      <point x="437" y="178" type="curve" smooth="yes"/>
      <point x="437" y="275"/>
      <point x="384" y="325"/>
      <point x="336" y="370" type="curve" smooth="yes"/>
      <point x="296" y="407"/>
      <point x="261" y="441"/>
      <point x="261" y="494" type="curve" smooth="yes"/>
      <point x="261" y="514"/>
      <point x="266" y="530"/>
      <point x="276" y="540" type="curve"/>
      <point x="273" y="544"/>
      <point x="268" y="546"/>
      <point x="263" y="546" type="curve" smooth="yes"/>
      <point x="245" y="546"/>
      <point x="233" y="519"/>
      <point x="233" y="494" type="curve" smooth="yes"/>
      <point x="233" y="427"/>
      <point x="276" y="391"/>
      <point x="318" y="350" type="curve" smooth="yes"/>
      <point x="363" y="307"/>
      <point x="409" y="263"/>
      <point x="409" y="178" type="curve" smooth="yes"/>
      <point x="409" y="78"/>
      <point x="335" y="15"/>
      <point x="247" y="15" type="curve" smooth="yes"/>
      <point x="168" y="15"/>
      <point x="89" y="67"/>
      <point x="89" y="178" type="curve" smooth="yes"/>
      <point x="89" y="214"/>
      <point x="98" y="245"/>
      <point x="114" y="267" type="curve"/>
      <point x="111" y="270"/>
      <point x="108" y="271"/>
      <point x="105" y="271" type="curve" smooth="yes"/>
      <point x="82" y="271"/>
      <point x="60" y="229"/>
      <point x="60" y="174" type="curve" smooth="yes"/>
      <point x="60" y="56"/>
      <point x="147" y="-10"/>
    </contour>
  </outline>
</glyph>
<glyph name="ban-georgian" format="2">
  <advance width="531"/>
  <unicode hex="10D1"/>
  <note>
uni10D1
</note>
  <outline>
    <contour>
      <point x="293" y="545" type="curve"/>
      <point x="300" y="557"/>
      <point x="303" y="571"/>
      <point x="303" y="586" type="curve" smooth="yes"/>
      <point x="303" y="629"/>
      <point x="275" y="652"/>
      <point x="252" y="671" type="curve" smooth="yes"/>
      <point x="234" y="686"/>
      <point x="218" y="700"/>
      <point x="218" y="724" type="curve" smooth="yes"/>
      <point x="218" y="738"/>
      <point x="222" y="754"/>
      <point x="229" y="764" type="curve"/>
      <point x="226" y="768"/>
      <point x="221" y="770"/>
      <point x="216" y="770" type="curve" smooth="yes"/>
      <point x="199" y="770"/>
      <point x="190" y="747"/>
      <point x="190" y="727" type="curve" smooth="yes"/>
      <point x="190" y="687"/>
      <point x="215" y="669"/>
      <point x="237" y="651" type="curve" smooth="yes"/>
      <point x="257" y="635"/>
      <point x="275" y="618"/>
      <point x="275" y="586" type="curve" smooth="yes"/>
      <point x="275" y="571"/>
      <point x="273" y="558"/>
      <point x="267" y="546" type="curve"/>
      <point x="134" y="545"/>
      <point x="65" y="457"/>
      <point x="65" y="267" type="curve" smooth="yes"/>
      <point x="65" y="79"/>
      <point x="141" y="-10"/>
      <point x="265" y="-10" type="curve" smooth="yes"/>
      <point x="397" y="-10"/>
      <point x="466" y="79"/>
      <point x="466" y="267" type="curve" smooth="yes"/>
      <point x="466" y="451"/>
      <point x="404" y="535"/>
    </contour>
    <contour>
      <point x="265" y="15" type="curve" smooth="yes"/>
      <point x="146" y="15"/>
      <point x="93" y="108"/>
      <point x="93" y="267" type="curve" smooth="yes"/>
      <point x="93" y="438"/>
      <point x="144" y="521"/>
      <point x="270" y="521" type="curve" smooth="yes"/>
      <point x="386" y="521"/>
      <point x="438" y="442"/>
      <point x="438" y="267" type="curve" smooth="yes"/>
      <point x="438" y="115"/>
      <point x="393" y="15"/>
    </contour>
  </outline>
</glyph>
<glyph name="gan-georgian" format="2">
  <advance width="521"/>
  <unicode hex="10D2"/>
  <note>
uni10D2
</note>
  <outline>
    <contour>
      <point x="260" y="-250" type="curve" smooth="yes"/>
      <point x="392" y="-250"/>
      <point x="461" y="-161"/>
      <point x="461" y="27" type="curve" smooth="yes"/>
      <point x="461" y="204"/>
      <point x="400" y="289"/>
      <point x="286" y="297" type="curve"/>
      <point x="286" y="299" type="line"/>
      <point x="362" y="314"/>
      <point x="397" y="368"/>
      <point x="397" y="423" type="curve" smooth="yes"/>
      <point x="397" y="491"/>
      <point x="339" y="546"/>
      <point x="255" y="546" type="curve" smooth="yes"/>
      <point x="184" y="546"/>
      <point x="111" y="504"/>
      <point x="111" y="429" type="curve" smooth="yes"/>
      <point x="111" y="402"/>
      <point x="126" y="376"/>
      <point x="140" y="376" type="curve" smooth="yes"/>
      <point x="142" y="376"/>
      <point x="146" y="377"/>
      <point x="148" y="378" type="curve"/>
      <point x="142" y="395"/>
      <point x="139" y="411"/>
      <point x="139" y="425" type="curve" smooth="yes"/>
      <point x="139" y="483"/>
      <point x="185" y="521"/>
      <point x="255" y="521" type="curve" smooth="yes"/>
      <point x="320" y="521"/>
      <point x="369" y="483"/>
      <point x="369" y="420" type="curve" smooth="yes"/>
      <point x="369" y="359"/>
      <point x="325" y="317"/>
      <point x="241" y="304" type="curve" smooth="yes"/>
      <point x="122" y="285"/>
      <point x="60" y="203"/>
      <point x="60" y="27" type="curve" smooth="yes"/>
      <point x="60" y="-161"/>
      <point x="136" y="-250"/>
    </contour>
    <contour>
      <point x="260" y="-225" type="curve" smooth="yes"/>
      <point x="140" y="-225"/>
      <point x="88" y="-130"/>
      <point x="88" y="32" type="curve" smooth="yes"/>
      <point x="88" y="197"/>
      <point x="140" y="278"/>
      <point x="265" y="278" type="curve" smooth="yes"/>
      <point x="381" y="278"/>
      <point x="433" y="197"/>
      <point x="433" y="27" type="curve" smooth="yes"/>
      <point x="433" y="-125"/>
      <point x="388" y="-225"/>
    </contour>
  </outline>
</glyph>
<glyph name="don-georgian" format="2">
  <advance width="832"/>
  <unicode hex="10D3"/>
  <note>
uni10D3
</note>
  <outline>
    <contour>
      <point x="575" y="-10" type="curve" smooth="yes"/>
      <point x="691" y="-10"/>
      <point x="767" y="79"/>
      <point x="767" y="267" type="curve" smooth="yes"/>
      <point x="767" y="454"/>
      <point x="697" y="546"/>
      <point x="570" y="546" type="curve" smooth="yes"/>
      <point x="479" y="546"/>
      <point x="413" y="492"/>
      <point x="399" y="394" type="curve"/>
      <point x="397" y="394" type="line"/>
      <point x="384" y="492"/>
      <point x="326" y="546"/>
      <point x="235" y="546" type="curve" smooth="yes"/>
      <point x="128" y="546"/>
      <point x="65" y="463"/>
      <point x="65" y="277" type="curve" smooth="yes"/>
      <point x="65" y="100"/>
      <point x="139" y="-37"/>
      <point x="309" y="-95" type="curve"/>
      <point x="309" y="-97" type="line"/>
      <point x="259" y="-99"/>
      <point x="220" y="-109"/>
      <point x="191" y="-125" type="curve"/>
      <point x="200" y="-143" type="line"/>
      <point x="227" y="-129"/>
      <point x="277" y="-116"/>
      <point x="331" y="-116" type="curve" smooth="yes"/>
      <point x="461" y="-116"/>
      <point x="587" y="-173"/>
      <point x="587" y="-250" type="curve"/>
      <point x="601" y="-250"/>
      <point x="610" y="-242"/>
      <point x="610" y="-229" type="curve" smooth="yes"/>
      <point x="610" y="-176"/>
      <point x="508" y="-113"/>
      <point x="389" y="-94" type="curve" smooth="yes"/>
      <point x="265" y="-74"/>
      <point x="93" y="17"/>
      <point x="93" y="277" type="curve" smooth="yes"/>
      <point x="93" y="442"/>
      <point x="140" y="521"/>
      <point x="237" y="521" type="curve" smooth="yes"/>
      <point x="337" y="521"/>
      <point x="382" y="446"/>
      <point x="382" y="293" type="curve" smooth="yes"/>
      <point x="382" y="267" type="line" smooth="yes"/>
      <point x="382" y="79"/>
      <point x="451" y="-10"/>
    </contour>
    <contour>
      <point x="570" y="521" type="curve" smooth="yes"/>
      <point x="688" y="521"/>
      <point x="739" y="434"/>
      <point x="739" y="267" type="curve" smooth="yes"/>
      <point x="739" y="108"/>
      <point x="686" y="15"/>
      <point x="575" y="15" type="curve" smooth="yes"/>
      <point x="455" y="15"/>
      <point x="410" y="115"/>
      <point x="410" y="267" type="curve" smooth="yes"/>
      <point x="410" y="442"/>
      <point x="458" y="521"/>
    </contour>
  </outline>
</glyph>
<glyph name="en-georgian" format="2">
  <advance width="529"/>
  <unicode hex="10D4"/>
  <note>
uni10D4
</note>
  <anchor x="265" y="536" name="top"/>
  <outline>
    <contour>
      <point x="252" y="-250" type="curve" smooth="yes"/>
      <point x="370" y="-250"/>
      <point x="444" y="-162"/>
      <point x="444" y="7" type="curve" smooth="yes"/>
      <point x="444" y="334" type="line" smooth="yes"/>
      <point x="444" y="483"/>
      <point x="357" y="546"/>
      <point x="258" y="546" type="curve" smooth="yes"/>
      <point x="162" y="546"/>
      <point x="80" y="485"/>
      <point x="80" y="366" type="curve" smooth="yes"/>
      <point x="80" y="328"/>
      <point x="92" y="283"/>
      <point x="116" y="283" type="curve" smooth="yes"/>
      <point x="119" y="283"/>
      <point x="122" y="284"/>
      <point x="126" y="286" type="curve"/>
      <point x="116" y="305"/>
      <point x="108" y="330"/>
      <point x="108" y="370" type="curve" smooth="yes"/>
      <point x="108" y="465"/>
      <point x="177" y="521"/>
      <point x="258" y="521" type="curve" smooth="yes"/>
      <point x="345" y="521"/>
      <point x="417" y="470"/>
      <point x="417" y="331" type="curve" smooth="yes"/>
      <point x="417" y="5" type="line" smooth="yes"/>
      <point x="417" y="-139"/>
      <point x="359" y="-226"/>
      <point x="253" y="-226" type="curve" smooth="yes"/>
      <point x="146" y="-226"/>
      <point x="88" y="-145"/>
      <point x="88" y="-50" type="curve" smooth="yes"/>
      <point x="88" y="20"/>
      <point x="105" y="55"/>
      <point x="124" y="82" type="curve"/>
      <point x="121" y="84"/>
      <point x="118" y="85"/>
      <point x="115" y="85" type="curve" smooth="yes"/>
      <point x="93" y="85"/>
      <point x="60" y="42"/>
      <point x="60" y="-50" type="curve" smooth="yes"/>
      <point x="60" y="-162"/>
      <point x="130" y="-250"/>
    </contour>
  </outline>
</glyph>
<glyph name="vin-georgian" format="2">
  <advance width="525"/>
  <unicode hex="10D5"/>
  <note>
uni10D5
</note>
  <outline>
    <contour>
      <point x="262" y="-250" type="curve" smooth="yes"/>
      <point x="380" y="-250"/>
      <point x="465" y="-162"/>
      <point x="465" y="-23" type="curve"/>
      <point x="465" y="101"/>
      <point x="391" y="171"/>
      <point x="317" y="186" type="curve"/>
      <point x="317" y="189" type="line"/>
      <point x="391" y="214"/>
      <point x="444" y="273"/>
      <point x="444" y="367" type="curve" smooth="yes"/>
      <point x="444" y="486"/>
      <point x="357" y="546"/>
      <point x="258" y="546" type="curve" smooth="yes"/>
      <point x="165" y="546"/>
      <point x="80" y="485"/>
      <point x="80" y="382" type="curve" smooth="yes"/>
      <point x="80" y="348"/>
      <point x="94" y="313"/>
      <point x="114" y="313" type="curve" smooth="yes"/>
      <point x="117" y="313"/>
      <point x="120" y="314"/>
      <point x="124" y="316" type="curve"/>
      <point x="114" y="335"/>
      <point x="108" y="350"/>
      <point x="108" y="383" type="curve" smooth="yes"/>
      <point x="108" y="468"/>
      <point x="177" y="521"/>
      <point x="258" y="521" type="curve" smooth="yes"/>
      <point x="345" y="521"/>
      <point x="416" y="470"/>
      <point x="416" y="364" type="curve" smooth="yes"/>
      <point x="416" y="264"/>
      <point x="345" y="200"/>
      <point x="258" y="200" type="curve" smooth="yes"/>
      <point x="212" y="200" type="line"/>
      <point x="212" y="175" type="line"/>
      <point x="262" y="175" type="line" smooth="yes"/>
      <point x="359" y="175"/>
      <point x="437" y="101"/>
      <point x="437" y="-25" type="curve" smooth="yes"/>
      <point x="437" y="-139"/>
      <point x="369" y="-226"/>
      <point x="263" y="-226" type="curve" smooth="yes"/>
      <point x="156" y="-226"/>
      <point x="88" y="-145"/>
      <point x="88" y="-50" type="curve" smooth="yes"/>
      <point x="88" y="-10"/>
      <point x="99" y="25"/>
      <point x="118" y="52" type="curve"/>
      <point x="115" y="54"/>
      <point x="112" y="55"/>
      <point x="109" y="55" type="curve" smooth="yes"/>
      <point x="87" y="55"/>
      <point x="60" y="12"/>
      <point x="60" y="-50" type="curve" smooth="yes"/>
      <point x="60" y="-162"/>
      <point x="140" y="-250"/>
    </contour>
  </outline>
</glyph>
<glyph name="zen-georgian" format="2">
  <advance width="570"/>
  <unicode hex="10D6"/>
  <note>
uni10D6
</note>
  <outline>
    <contour>
      <point x="304" y="-10" type="curve" smooth="yes"/>
      <point x="436" y="-10"/>
      <point x="505" y="79"/>
      <point x="505" y="267" type="curve" smooth="yes"/>
      <point x="505" y="453"/>
      <point x="435" y="536"/>
      <point x="311" y="536" type="curve" smooth="yes"/>
      <point x="297" y="536"/>
      <point x="286" y="535"/>
      <point x="269" y="529" type="curve"/>
      <point x="268" y="530" type="line"/>
      <point x="293" y="554"/>
      <point x="304" y="590"/>
      <point x="304" y="629" type="curve" smooth="yes"/>
      <point x="304" y="715"/>
      <point x="245" y="770"/>
      <point x="167" y="770" type="curve" smooth="yes"/>
      <point x="89" y="770"/>
      <point x="30" y="715"/>
      <point x="30" y="624" type="curve" smooth="yes"/>
      <point x="30" y="536"/>
      <point x="88" y="479"/>
      <point x="169" y="479" type="curve"/>
      <point x="170" y="478" type="line"/>
      <point x="124" y="433"/>
      <point x="104" y="362"/>
      <point x="104" y="267" type="curve" smooth="yes"/>
      <point x="104" y="79"/>
      <point x="180" y="-10"/>
    </contour>
    <contour>
      <point x="304" y="15" type="curve" smooth="yes"/>
      <point x="185" y="15"/>
      <point x="132" y="108"/>
      <point x="132" y="267" type="curve" smooth="yes"/>
      <point x="132" y="418"/>
      <point x="183" y="511"/>
      <point x="309" y="511" type="curve" smooth="yes"/>
      <point x="425" y="511"/>
      <point x="477" y="432"/>
      <point x="477" y="267" type="curve" smooth="yes"/>
      <point x="477" y="115"/>
      <point x="432" y="15"/>
    </contour>
    <contour>
      <point x="167" y="501" type="curve" smooth="yes"/>
      <point x="105" y="501"/>
      <point x="57" y="548"/>
      <point x="57" y="624" type="curve" smooth="yes"/>
      <point x="57" y="704"/>
      <point x="105" y="748"/>
      <point x="167" y="748" type="curve" smooth="yes"/>
      <point x="233" y="748"/>
      <point x="277" y="704"/>
      <point x="277" y="624" type="curve" smooth="yes"/>
      <point x="277" y="551"/>
      <point x="232" y="501"/>
    </contour>
  </outline>
</glyph>
<glyph name="tan-georgian" format="2">
  <advance width="832"/>
  <unicode hex="10D7"/>
  <note>
uni10D7
</note>
  <outline>
    <contour>
      <point x="257" y="-10" type="curve" smooth="yes"/>
      <point x="381" y="-10"/>
      <point x="450" y="79"/>
      <point x="450" y="267" type="curve" smooth="yes"/>
      <point x="450" y="293" type="line" smooth="yes"/>
      <point x="450" y="446"/>
      <point x="495" y="521"/>
      <point x="595" y="521" type="curve" smooth="yes"/>
      <point x="692" y="521"/>
      <point x="739" y="442"/>
      <point x="739" y="267" type="curve" smooth="yes"/>
      <point x="739" y="130"/>
      <point x="696" y="11"/>
      <point x="624" y="11" type="curve"/>
      <point x="625" y="-1"/>
      <point x="632" y="-6"/>
      <point x="646" y="-6" type="curve" smooth="yes"/>
      <point x="707" y="-6"/>
      <point x="767" y="102"/>
      <point x="767" y="267" type="curve" smooth="yes"/>
      <point x="767" y="463"/>
      <point x="704" y="546"/>
      <point x="597" y="546" type="curve" smooth="yes"/>
      <point x="509" y="546"/>
      <point x="449" y="492"/>
      <point x="435" y="394" type="curve"/>
      <point x="433" y="394" type="line"/>
      <point x="419" y="492"/>
      <point x="353" y="546"/>
      <point x="262" y="546" type="curve" smooth="yes"/>
      <point x="135" y="546"/>
      <point x="65" y="454"/>
      <point x="65" y="267" type="curve" smooth="yes"/>
      <point x="65" y="79"/>
      <point x="141" y="-10"/>
    </contour>
    <contour>
      <point x="257" y="15" type="curve" smooth="yes"/>
      <point x="146" y="15"/>
      <point x="93" y="108"/>
      <point x="93" y="267" type="curve" smooth="yes"/>
      <point x="93" y="434"/>
      <point x="144" y="521"/>
      <point x="262" y="521" type="curve" smooth="yes"/>
      <point x="374" y="521"/>
      <point x="422" y="442"/>
      <point x="422" y="267" type="curve" smooth="yes"/>
      <point x="422" y="115"/>
      <point x="377" y="15"/>
    </contour>
  </outline>
</glyph>
<glyph name="in-georgian" format="2">
  <advance width="521"/>
  <unicode hex="10D8"/>
  <note>
uni10D8
</note>
  <anchor x="261" y="536" name="top"/>
  <outline>
    <contour>
      <point x="191" y="-8" type="curve" smooth="yes"/>
      <point x="205" y="-8"/>
      <point x="209" y="0"/>
      <point x="210" y="15" type="curve"/>
      <point x="133" y="15"/>
      <point x="93" y="123"/>
      <point x="93" y="267" type="curve" smooth="yes"/>
      <point x="93" y="438"/>
      <point x="144" y="521"/>
      <point x="255" y="521" type="curve" smooth="yes"/>
      <point x="376" y="521"/>
      <point x="428" y="442"/>
      <point x="428" y="267" type="curve" smooth="yes"/>
      <point x="428" y="130"/>
      <point x="391" y="15"/>
      <point x="311" y="15" type="curve"/>
      <point x="312" y="0"/>
      <point x="318" y="-6"/>
      <point x="334" y="-6" type="curve" smooth="yes"/>
      <point x="401" y="-6"/>
      <point x="456" y="102"/>
      <point x="456" y="267" type="curve" smooth="yes"/>
      <point x="456" y="463"/>
      <point x="386" y="546"/>
      <point x="255" y="546" type="curve" smooth="yes"/>
      <point x="135" y="546"/>
      <point x="65" y="458"/>
      <point x="65" y="267" type="curve" smooth="yes"/>
      <point x="65" y="97"/>
      <point x="120" y="-8"/>
    </contour>
  </outline>
</glyph>
<glyph name="kan-georgian" format="2">
  <advance width="510"/>
  <unicode hex="10D9"/>
  <note>
uni10D9
</note>
  <outline>
    <contour>
      <point x="252" y="-250" type="curve" smooth="yes"/>
      <point x="370" y="-250"/>
      <point x="450" y="-162"/>
      <point x="450" y="-13" type="curve"/>
      <point x="450" y="121"/>
      <point x="376" y="191"/>
      <point x="302" y="206" type="curve"/>
      <point x="302" y="209" type="line"/>
      <point x="376" y="230"/>
      <point x="429" y="280"/>
      <point x="429" y="374" type="curve" smooth="yes"/>
      <point x="429" y="483"/>
      <point x="342" y="542"/>
      <point x="253" y="542" type="curve"/>
      <point x="253" y="521" type="line"/>
      <point x="330" y="521"/>
      <point x="401" y="467"/>
      <point x="401" y="371" type="curve" smooth="yes"/>
      <point x="401" y="271"/>
      <point x="330" y="220"/>
      <point x="243" y="220" type="curve" smooth="yes"/>
      <point x="197" y="220" type="line"/>
      <point x="197" y="195" type="line"/>
      <point x="247" y="195" type="line" smooth="yes"/>
      <point x="344" y="195"/>
      <point x="422" y="121"/>
      <point x="422" y="-15" type="curve" smooth="yes"/>
      <point x="422" y="-139"/>
      <point x="359" y="-226"/>
      <point x="253" y="-226" type="curve" smooth="yes"/>
      <point x="146" y="-226"/>
      <point x="83" y="-145"/>
      <point x="83" y="-50" type="curve" smooth="yes"/>
      <point x="83" y="-10"/>
      <point x="94" y="25"/>
      <point x="113" y="52" type="curve"/>
      <point x="110" y="54"/>
      <point x="107" y="55"/>
      <point x="104" y="55" type="curve" smooth="yes"/>
      <point x="82" y="55"/>
      <point x="55" y="12"/>
      <point x="55" y="-50" type="curve" smooth="yes"/>
      <point x="55" y="-162"/>
      <point x="130" y="-250"/>
    </contour>
  </outline>
</glyph>
<glyph name="las-georgian" format="2">
  <advance width="1039"/>
  <unicode hex="10DA"/>
  <note>
uni10DA
</note>
  <outline>
    <contour>
      <point x="815" y="546" type="curve" smooth="yes"/>
      <point x="749" y="546"/>
      <point x="676" y="502"/>
      <point x="664" y="394" type="curve"/>
      <point x="662" y="394" type="line"/>
      <point x="651" y="504"/>
      <point x="592" y="546"/>
      <point x="520" y="546" type="curve" smooth="yes"/>
      <point x="454" y="546"/>
      <point x="389" y="502"/>
      <point x="377" y="394" type="curve"/>
      <point x="375" y="394" type="line"/>
      <point x="364" y="504"/>
      <point x="295" y="546"/>
      <point x="232" y="546" type="curve" smooth="yes"/>
      <point x="128" y="546"/>
      <point x="65" y="463"/>
      <point x="65" y="277" type="curve" smooth="yes"/>
      <point x="65" y="90"/>
      <point x="172" y="-50"/>
      <point x="352" y="-95" type="curve"/>
      <point x="352" y="-97" type="line"/>
      <point x="292" y="-99"/>
      <point x="252" y="-110"/>
      <point x="224" y="-125" type="curve"/>
      <point x="233" y="-143" type="line"/>
      <point x="260" y="-129"/>
      <point x="310" y="-116"/>
      <point x="374" y="-116" type="curve" smooth="yes"/>
      <point x="494" y="-116"/>
      <point x="640" y="-169"/>
      <point x="640" y="-250" type="curve"/>
      <point x="654" y="-250"/>
      <point x="663" y="-242"/>
      <point x="663" y="-229" type="curve" smooth="yes"/>
      <point x="663" y="-170"/>
      <point x="551" y="-114"/>
      <point x="442" y="-96" type="curve" smooth="yes"/>
      <point x="297" y="-72"/>
      <point x="93" y="17"/>
      <point x="93" y="277" type="curve" smooth="yes"/>
      <point x="93" y="438"/>
      <point x="139" y="521"/>
      <point x="233" y="521" type="curve" smooth="yes"/>
      <point x="316" y="521"/>
      <point x="362" y="449"/>
      <point x="362" y="293" type="curve" smooth="yes"/>
      <point x="362" y="180" type="line"/>
      <point x="390" y="180" type="line"/>
      <point x="390" y="293" type="line" smooth="yes"/>
      <point x="390" y="456"/>
      <point x="437" y="521"/>
      <point x="520" y="521" type="curve" smooth="yes"/>
      <point x="603" y="521"/>
      <point x="649" y="459"/>
      <point x="649" y="293" type="curve" smooth="yes"/>
      <point x="649" y="180" type="line"/>
      <point x="677" y="180" type="line"/>
      <point x="677" y="293" type="line" smooth="yes"/>
      <point x="677" y="445"/>
      <point x="722" y="521"/>
      <point x="813" y="521" type="curve" smooth="yes"/>
      <point x="899" y="521"/>
      <point x="946" y="442"/>
      <point x="946" y="267" type="curve" smooth="yes"/>
      <point x="946" y="130"/>
      <point x="903" y="11"/>
      <point x="831" y="11" type="curve"/>
      <point x="832" y="-1"/>
      <point x="839" y="-6"/>
      <point x="853" y="-6" type="curve" smooth="yes"/>
      <point x="914" y="-6"/>
      <point x="974" y="102"/>
      <point x="974" y="267" type="curve" smooth="yes"/>
      <point x="974" y="463"/>
      <point x="911" y="546"/>
    </contour>
  </outline>
</glyph>
<glyph name="man-georgian" format="2">
  <advance width="549"/>
  <unicode hex="10DB"/>
  <note>
uni10DB
</note>
  <outline>
    <contour>
      <point x="263" y="-10" type="curve" smooth="yes"/>
      <point x="385" y="-10"/>
      <point x="459" y="88"/>
      <point x="459" y="267" type="curve" smooth="yes"/>
      <point x="459" y="574" type="line" smooth="yes"/>
      <point x="459" y="707"/>
      <point x="370" y="770"/>
      <point x="267" y="770" type="curve" smooth="yes"/>
      <point x="165" y="770"/>
      <point x="95" y="713"/>
      <point x="95" y="649" type="curve" smooth="yes"/>
      <point x="95" y="628"/>
      <point x="105" y="611"/>
      <point x="118" y="611" type="curve" smooth="yes"/>
      <point x="121" y="611"/>
      <point x="123" y="611"/>
      <point x="127" y="612" type="curve"/>
      <point x="124" y="622"/>
      <point x="123" y="631"/>
      <point x="123" y="643" type="curve" smooth="yes"/>
      <point x="123" y="703"/>
      <point x="185" y="745"/>
      <point x="267" y="745" type="curve" smooth="yes"/>
      <point x="358" y="745"/>
      <point x="431" y="694"/>
      <point x="431" y="571" type="curve" smooth="yes"/>
      <point x="431" y="543" type="line" smooth="yes"/>
      <point x="431" y="515"/>
      <point x="432" y="478"/>
      <point x="433" y="441" type="curve"/>
      <point x="429" y="441" type="line"/>
      <point x="402" y="505"/>
      <point x="344" y="543"/>
      <point x="255" y="543" type="curve" smooth="yes"/>
      <point x="125" y="543"/>
      <point x="65" y="443"/>
      <point x="65" y="267" type="curve" smooth="yes"/>
      <point x="65" y="88"/>
      <point x="140" y="-10"/>
    </contour>
    <contour>
      <point x="254" y="14" type="curve" smooth="yes"/>
      <point x="161" y="14"/>
      <point x="93" y="105"/>
      <point x="93" y="264" type="curve" smooth="yes"/>
      <point x="93" y="426"/>
      <point x="140" y="518"/>
      <point x="258" y="518" type="curve" smooth="yes"/>
      <point x="391" y="518"/>
      <point x="432" y="432"/>
      <point x="432" y="265" type="curve" smooth="yes"/>
      <point x="432" y="111"/>
      <point x="374" y="14"/>
    </contour>
  </outline>
</glyph>
<glyph name="nar-georgian" format="2">
  <advance width="549"/>
  <unicode hex="10DC"/>
  <note>
uni10DC
</note>
  <outline>
    <contour>
      <point x="286" y="-10" type="curve" smooth="yes"/>
      <point x="409" y="-10"/>
      <point x="484" y="88"/>
      <point x="484" y="267" type="curve" smooth="yes"/>
      <point x="484" y="446"/>
      <point x="424" y="546"/>
      <point x="294" y="546" type="curve" smooth="yes"/>
      <point x="205" y="546"/>
      <point x="147" y="508"/>
      <point x="120" y="444" type="curve"/>
      <point x="116" y="444" type="line"/>
      <point x="117" y="481"/>
      <point x="118" y="518"/>
      <point x="118" y="546" type="curve" smooth="yes"/>
      <point x="118" y="591" type="line" smooth="yes"/>
      <point x="118" y="702"/>
      <point x="179" y="740"/>
      <point x="247" y="740" type="curve" smooth="yes"/>
      <point x="275" y="740"/>
      <point x="294" y="738"/>
      <point x="311" y="733" type="curve" smooth="yes"/>
      <point x="333" y="727"/>
      <point x="354" y="722"/>
      <point x="380" y="722" type="curve" smooth="yes"/>
      <point x="418" y="722"/>
      <point x="447" y="737"/>
      <point x="447" y="755" type="curve" smooth="yes"/>
      <point x="447" y="763"/>
      <point x="443" y="768"/>
      <point x="438" y="770" type="curve"/>
      <point x="431" y="757"/>
      <point x="409" y="747"/>
      <point x="378" y="747" type="curve" smooth="yes"/>
      <point x="358" y="747"/>
      <point x="341" y="750"/>
      <point x="321" y="756" type="curve" smooth="yes"/>
      <point x="301" y="762"/>
      <point x="278" y="765"/>
      <point x="248" y="765" type="curve" smooth="yes"/>
      <point x="169" y="765"/>
      <point x="90" y="715"/>
      <point x="90" y="594" type="curve" smooth="yes"/>
      <point x="90" y="267" type="line" smooth="yes"/>
      <point x="90" y="88"/>
      <point x="164" y="-10"/>
    </contour>
    <contour>
      <point x="295" y="14" type="curve" smooth="yes"/>
      <point x="175" y="14"/>
      <point x="117" y="111"/>
      <point x="117" y="265" type="curve" smooth="yes"/>
      <point x="117" y="435"/>
      <point x="158" y="521"/>
      <point x="291" y="521" type="curve" smooth="yes"/>
      <point x="409" y="521"/>
      <point x="456" y="429"/>
      <point x="456" y="264" type="curve" smooth="yes"/>
      <point x="456" y="105"/>
      <point x="388" y="14"/>
    </contour>
  </outline>
</glyph>
<glyph name="on-georgian" format="2">
  <advance width="792"/>
  <unicode hex="10DD"/>
  <note>
uni10DD
</note>
  <anchor x="396" y="536" name="top"/>
  <outline>
    <contour>
      <point x="189" y="-8" type="curve" smooth="yes"/>
      <point x="202" y="-8"/>
      <point x="207" y="-2"/>
      <point x="208" y="10" type="curve"/>
      <point x="139" y="10"/>
      <point x="93" y="123"/>
      <point x="93" y="267" type="curve" smooth="yes"/>
      <point x="93" y="438"/>
      <point x="139" y="521"/>
      <point x="242" y="521" type="curve" smooth="yes"/>
      <point x="336" y="521"/>
      <point x="382" y="449"/>
      <point x="382" y="293" type="curve" smooth="yes"/>
      <point x="382" y="180" type="line"/>
      <point x="410" y="180" type="line"/>
      <point x="410" y="293" type="line" smooth="yes"/>
      <point x="410" y="446"/>
      <point x="455" y="521"/>
      <point x="555" y="521" type="curve" smooth="yes"/>
      <point x="652" y="521"/>
      <point x="699" y="442"/>
      <point x="699" y="267" type="curve" smooth="yes"/>
      <point x="699" y="130"/>
      <point x="656" y="11"/>
      <point x="584" y="11" type="curve"/>
      <point x="585" y="-1"/>
      <point x="592" y="-6"/>
      <point x="606" y="-6" type="curve" smooth="yes"/>
      <point x="667" y="-6"/>
      <point x="727" y="102"/>
      <point x="727" y="267" type="curve" smooth="yes"/>
      <point x="727" y="463"/>
      <point x="664" y="546"/>
      <point x="557" y="546" type="curve" smooth="yes"/>
      <point x="482" y="546"/>
      <point x="409" y="502"/>
      <point x="397" y="394" type="curve"/>
      <point x="395" y="394" type="line"/>
      <point x="384" y="504"/>
      <point x="315" y="546"/>
      <point x="241" y="546" type="curve" smooth="yes"/>
      <point x="128" y="546"/>
      <point x="65" y="463"/>
      <point x="65" y="267" type="curve" smooth="yes"/>
      <point x="65" y="97"/>
      <point x="125" y="-8"/>
    </contour>
  </outline>
</glyph>
<glyph name="par-georgian" format="2">
  <advance width="521"/>
  <unicode hex="10DE"/>
  <note>
uni10DE
</note>
  <outline>
    <contour>
      <point x="258" y="-10" type="curve" smooth="yes"/>
      <point x="371" y="-10"/>
      <point x="456" y="67"/>
      <point x="456" y="193" type="curve" smooth="yes"/>
      <point x="456" y="299"/>
      <point x="388" y="375"/>
      <point x="314" y="385" type="curve"/>
      <point x="314" y="387" type="line"/>
      <point x="376" y="397"/>
      <point x="432" y="432"/>
      <point x="432" y="498" type="curve" smooth="yes"/>
      <point x="432" y="577"/>
      <point x="376" y="610"/>
      <point x="328" y="641" type="curve" smooth="yes"/>
      <point x="295" y="663"/>
      <point x="267" y="685"/>
      <point x="267" y="724" type="curve" smooth="yes"/>
      <point x="267" y="738"/>
      <point x="271" y="754"/>
      <point x="278" y="764" type="curve"/>
      <point x="275" y="768"/>
      <point x="270" y="770"/>
      <point x="265" y="770" type="curve" smooth="yes"/>
      <point x="248" y="770"/>
      <point x="239" y="747"/>
      <point x="239" y="727" type="curve" smooth="yes"/>
      <point x="239" y="673"/>
      <point x="275" y="647"/>
      <point x="313" y="622" type="curve" smooth="yes"/>
      <point x="357" y="593"/>
      <point x="404" y="565"/>
      <point x="404" y="498" type="curve" smooth="yes"/>
      <point x="404" y="434"/>
      <point x="347" y="400"/>
      <point x="254" y="400" type="curve" smooth="yes"/>
      <point x="201" y="400" type="line"/>
      <point x="201" y="375" type="line"/>
      <point x="254" y="375" type="line" smooth="yes"/>
      <point x="357" y="375"/>
      <point x="428" y="301"/>
      <point x="428" y="193" type="curve" smooth="yes"/>
      <point x="428" y="79"/>
      <point x="350" y="15"/>
      <point x="258" y="15" type="curve" smooth="yes"/>
      <point x="167" y="15"/>
      <point x="89" y="69"/>
      <point x="89" y="178" type="curve" smooth="yes"/>
      <point x="89" y="214"/>
      <point x="98" y="245"/>
      <point x="114" y="267" type="curve"/>
      <point x="111" y="270"/>
      <point x="108" y="271"/>
      <point x="105" y="271" type="curve" smooth="yes"/>
      <point x="82" y="271"/>
      <point x="60" y="229"/>
      <point x="60" y="174" type="curve" smooth="yes"/>
      <point x="60" y="56"/>
      <point x="149" y="-10"/>
    </contour>
  </outline>
</glyph>
<glyph name="zhar-georgian" format="2">
  <advance width="560"/>
  <unicode hex="10DF"/>
  <note>
uni10DF
</note>
  <outline>
    <contour>
      <point x="277" y="-250" type="curve" smooth="yes"/>
      <point x="395" y="-250"/>
      <point x="470" y="-162"/>
      <point x="470" y="-13" type="curve" smooth="yes"/>
      <point x="470" y="536" type="line"/>
      <point x="442" y="536" type="line"/>
      <point x="367" y="496"/>
      <point x="276" y="468"/>
      <point x="171" y="454" type="curve"/>
      <point x="171" y="433" type="line"/>
      <point x="237" y="417"/>
      <point x="269" y="363"/>
      <point x="269" y="314" type="curve" smooth="yes"/>
      <point x="269" y="259"/>
      <point x="245" y="206"/>
      <point x="175" y="206" type="curve" smooth="yes"/>
      <point x="118" y="206"/>
      <point x="87" y="243"/>
      <point x="87" y="288" type="curve" smooth="yes"/>
      <point x="87" y="297"/>
      <point x="88" y="305"/>
      <point x="91" y="315" type="curve"/>
      <point x="89" y="316"/>
      <point x="85" y="317"/>
      <point x="82" y="317" type="curve" smooth="yes"/>
      <point x="67" y="317"/>
      <point x="60" y="296"/>
      <point x="60" y="280" type="curve" smooth="yes"/>
      <point x="60" y="240"/>
      <point x="93" y="184"/>
      <point x="175" y="184" type="curve" smooth="yes"/>
      <point x="252" y="184"/>
      <point x="294" y="239"/>
      <point x="294" y="312" type="curve" smooth="yes"/>
      <point x="294" y="349"/>
      <point x="279" y="415"/>
      <point x="204" y="438" type="curve"/>
      <point x="204" y="440" type="line"/>
      <point x="295" y="452"/>
      <point x="373" y="477"/>
      <point x="442" y="513" type="curve"/>
      <point x="446" y="513" type="line"/>
      <point x="443" y="490"/>
      <point x="442" y="468"/>
      <point x="442" y="445" type="curve" smooth="yes"/>
      <point x="442" y="-15" type="line" smooth="yes"/>
      <point x="442" y="-139"/>
      <point x="384" y="-226"/>
      <point x="278" y="-226" type="curve" smooth="yes"/>
      <point x="181" y="-226"/>
      <point x="113" y="-153"/>
      <point x="113" y="-55" type="curve" smooth="yes"/>
      <point x="113" y="-10"/>
      <point x="124" y="25"/>
      <point x="143" y="52" type="curve"/>
      <point x="140" y="54"/>
      <point x="137" y="55"/>
      <point x="134" y="55" type="curve" smooth="yes"/>
      <point x="112" y="55"/>
      <point x="85" y="12"/>
      <point x="85" y="-55" type="curve" smooth="yes"/>
      <point x="85" y="-170"/>
      <point x="165" y="-250"/>
    </contour>
  </outline>
</glyph>
<glyph name="san-georgian" format="2">
  <advance width="572"/>
  <unicode hex="10E1"/>
  <note>
uni10E1
</note>
  <outline>
    <contour>
      <point x="308" y="-10" type="curve" smooth="yes"/>
      <point x="426" y="-10"/>
      <point x="507" y="68"/>
      <point x="507" y="198" type="curve" smooth="yes"/>
      <point x="507" y="278"/>
      <point x="473" y="324"/>
      <point x="443" y="368" type="curve" smooth="yes"/>
      <point x="418" y="405"/>
      <point x="395" y="440"/>
      <point x="395" y="494" type="curve" smooth="yes"/>
      <point x="395" y="514"/>
      <point x="400" y="530"/>
      <point x="410" y="540" type="curve"/>
      <point x="407" y="544"/>
      <point x="402" y="546"/>
      <point x="397" y="546" type="curve" smooth="yes"/>
      <point x="379" y="546"/>
      <point x="367" y="519"/>
      <point x="367" y="491" type="curve" smooth="yes"/>
      <point x="367" y="430"/>
      <point x="395" y="389"/>
      <point x="422" y="350" type="curve" smooth="yes"/>
      <point x="451" y="308"/>
      <point x="479" y="267"/>
      <point x="479" y="198" type="curve" smooth="yes"/>
      <point x="479" y="92"/>
      <point x="418" y="15"/>
      <point x="308" y="15" type="curve" smooth="yes"/>
      <point x="197" y="15"/>
      <point x="140" y="105"/>
      <point x="140" y="230" type="curve" smooth="yes"/>
      <point x="140" y="760" type="line"/>
      <point x="27" y="760" type="line"/>
      <point x="27" y="740" type="line"/>
      <point x="40" y="740" type="line" smooth="yes"/>
      <point x="104" y="740"/>
      <point x="112" y="732"/>
      <point x="112" y="667" type="curve" smooth="yes"/>
      <point x="112" y="226" type="line" smooth="yes"/>
      <point x="112" y="79"/>
      <point x="189" y="-10"/>
    </contour>
  </outline>
</glyph>
<glyph name="tar-georgian" format="2">
  <advance width="721"/>
  <unicode hex="10E2"/>
  <note>
uni10E2
</note>
  <outline>
    <contour>
      <point x="360" y="-250" type="curve" smooth="yes"/>
      <point x="562" y="-250"/>
      <point x="656" y="-86"/>
      <point x="656" y="152" type="curve" smooth="yes"/>
      <point x="656" y="381"/>
      <point x="567" y="522"/>
      <point x="392" y="539" type="curve"/>
      <point x="392" y="541" type="line"/>
      <point x="451" y="572"/>
      <point x="480" y="614"/>
      <point x="480" y="664" type="curve" smooth="yes"/>
      <point x="480" y="720"/>
      <point x="432" y="770"/>
      <point x="361" y="770" type="curve" smooth="yes"/>
      <point x="292" y="770"/>
      <point x="241" y="725"/>
      <point x="241" y="664" type="curve" smooth="yes"/>
      <point x="241" y="614"/>
      <point x="272" y="572"/>
      <point x="327" y="541" type="curve"/>
      <point x="327" y="539" type="line"/>
      <point x="161" y="522"/>
      <point x="65" y="383"/>
      <point x="65" y="153" type="curve" smooth="yes"/>
      <point x="65" y="-96"/>
      <point x="170" y="-250"/>
    </contour>
    <contour>
      <point x="360" y="-225" type="curve" smooth="yes"/>
      <point x="189" y="-225"/>
      <point x="93" y="-78"/>
      <point x="93" y="152" type="curve" smooth="yes"/>
      <point x="93" y="353"/>
      <point x="164" y="488"/>
      <point x="323" y="520" type="curve"/>
      <point x="323" y="518" type="line"/>
      <point x="264" y="485"/>
      <point x="238" y="435"/>
      <point x="238" y="369" type="curve" smooth="yes"/>
      <point x="238" y="285"/>
      <point x="293" y="238"/>
      <point x="361" y="238" type="curve" smooth="yes"/>
      <point x="428" y="238"/>
      <point x="483" y="285"/>
      <point x="483" y="368" type="curve" smooth="yes"/>
      <point x="483" y="435"/>
      <point x="456" y="485"/>
      <point x="397" y="518" type="curve"/>
      <point x="397" y="520" type="line"/>
      <point x="560" y="488"/>
      <point x="628" y="358"/>
      <point x="628" y="152" type="curve" smooth="yes"/>
      <point x="628" y="-76"/>
      <point x="541" y="-225"/>
    </contour>
    <contour>
      <point x="361" y="261" type="curve" smooth="yes"/>
      <point x="305" y="261"/>
      <point x="265" y="302"/>
      <point x="265" y="368" type="curve" smooth="yes"/>
      <point x="265" y="430"/>
      <point x="288" y="485"/>
      <point x="360" y="520" type="curve"/>
      <point x="429" y="485"/>
      <point x="456" y="430"/>
      <point x="456" y="367" type="curve" smooth="yes"/>
      <point x="456" y="302"/>
      <point x="420" y="261"/>
    </contour>
    <contour>
      <point x="360" y="540" type="curve"/>
      <point x="292" y="579"/>
      <point x="268" y="620"/>
      <point x="268" y="662" type="curve" smooth="yes"/>
      <point x="268" y="712"/>
      <point x="302" y="748"/>
      <point x="361" y="748" type="curve" smooth="yes"/>
      <point x="427" y="748"/>
      <point x="453" y="700"/>
      <point x="453" y="662" type="curve" smooth="yes"/>
      <point x="453" y="620"/>
      <point x="432" y="579"/>
    </contour>
  </outline>
</glyph>
<glyph name="un-georgian" format="2">
  <advance width="608"/>
  <unicode hex="10E3"/>
  <note>
uni10E3
</note>
  <anchor x="304" y="536" name="top"/>
  <outline>
    <contour>
      <point x="289" y="-250" type="curve" smooth="yes"/>
      <point x="434" y="-250"/>
      <point x="523" y="-163"/>
      <point x="523" y="13" type="curve" smooth="yes"/>
      <point x="523" y="375" type="line" smooth="yes"/>
      <point x="523" y="484"/>
      <point x="479" y="546"/>
      <point x="388" y="546" type="curve" smooth="yes"/>
      <point x="322" y="546"/>
      <point x="278" y="505"/>
      <point x="268" y="445" type="curve"/>
      <point x="266" y="445" type="line"/>
      <point x="260" y="502"/>
      <point x="225" y="543"/>
      <point x="174" y="543" type="curve" smooth="yes"/>
      <point x="153" y="543"/>
      <point x="136" y="537"/>
      <point x="125" y="532" type="curve" smooth="yes"/>
      <point x="109" y="525"/>
      <point x="96" y="523"/>
      <point x="83" y="523" type="curve" smooth="yes"/>
      <point x="64" y="523"/>
      <point x="46" y="533"/>
      <point x="39" y="546" type="curve"/>
      <point x="34" y="544"/>
      <point x="30" y="539"/>
      <point x="30" y="531" type="curve" smooth="yes"/>
      <point x="30" y="513"/>
      <point x="55" y="498"/>
      <point x="78" y="498" type="curve" smooth="yes"/>
      <point x="94" y="498"/>
      <point x="109" y="502"/>
      <point x="123" y="507" type="curve" smooth="yes"/>
      <point x="139" y="513"/>
      <point x="154" y="518"/>
      <point x="174" y="518" type="curve" smooth="yes"/>
      <point x="221" y="518"/>
      <point x="250" y="476"/>
      <point x="250" y="406" type="curve" smooth="yes"/>
      <point x="250" y="257" type="line"/>
      <point x="278" y="257" type="line"/>
      <point x="278" y="379" type="line" smooth="yes"/>
      <point x="278" y="459"/>
      <point x="309" y="521"/>
      <point x="388" y="521" type="curve" smooth="yes"/>
      <point x="467" y="521"/>
      <point x="495" y="466"/>
      <point x="495" y="367" type="curve" smooth="yes"/>
      <point x="495" y="13" type="line" smooth="yes"/>
      <point x="495" y="-151"/>
      <point x="411" y="-226"/>
      <point x="289" y="-226" type="curve" smooth="yes"/>
      <point x="169" y="-226"/>
      <point x="91" y="-145"/>
      <point x="91" y="-40" type="curve" smooth="yes"/>
      <point x="91" y="20"/>
      <point x="108" y="55"/>
      <point x="127" y="82" type="curve"/>
      <point x="124" y="84"/>
      <point x="121" y="85"/>
      <point x="118" y="85" type="curve" smooth="yes"/>
      <point x="96" y="85"/>
      <point x="63" y="42"/>
      <point x="63" y="-40" type="curve" smooth="yes"/>
      <point x="63" y="-162"/>
      <point x="153" y="-250"/>
    </contour>
  </outline>
</glyph>
<glyph name="phar-georgian" format="2">
  <advance width="832"/>
  <unicode hex="10E4"/>
  <note>
uni10E4
</note>
  <outline>
    <contour>
      <point x="515" y="-250" type="curve" smooth="yes"/>
      <point x="673" y="-250"/>
      <point x="758" y="-162"/>
      <point x="758" y="-33" type="curve" smooth="yes"/>
      <point x="758" y="61"/>
      <point x="714" y="129"/>
      <point x="640" y="146" type="curve"/>
      <point x="640" y="149" type="line"/>
      <point x="714" y="174"/>
      <point x="767" y="233"/>
      <point x="767" y="347" type="curve" smooth="yes"/>
      <point x="767" y="463"/>
      <point x="704" y="546"/>
      <point x="597" y="546" type="curve" smooth="yes"/>
      <point x="506" y="546"/>
      <point x="449" y="492"/>
      <point x="436" y="394" type="curve"/>
      <point x="434" y="394" type="line"/>
      <point x="420" y="492"/>
      <point x="353" y="546"/>
      <point x="262" y="546" type="curve" smooth="yes"/>
      <point x="135" y="546"/>
      <point x="65" y="454"/>
      <point x="65" y="297" type="curve" smooth="yes"/>
      <point x="65" y="139"/>
      <point x="141" y="50"/>
      <point x="257" y="50" type="curve" smooth="yes"/>
      <point x="381" y="50"/>
      <point x="450" y="139"/>
      <point x="450" y="297" type="curve" smooth="yes"/>
      <point x="450" y="323" type="line" smooth="yes"/>
      <point x="450" y="442"/>
      <point x="495" y="521"/>
      <point x="595" y="521" type="curve" smooth="yes"/>
      <point x="692" y="521"/>
      <point x="739" y="442"/>
      <point x="739" y="344" type="curve" smooth="yes"/>
      <point x="739" y="224"/>
      <point x="668" y="160"/>
      <point x="581" y="160" type="curve" smooth="yes"/>
      <point x="555" y="160" type="line"/>
      <point x="555" y="135" type="line"/>
      <point x="585" y="135" type="line" smooth="yes"/>
      <point x="682" y="135"/>
      <point x="730" y="61"/>
      <point x="730" y="-35" type="curve" smooth="yes"/>
      <point x="730" y="-139"/>
      <point x="662" y="-226"/>
      <point x="516" y="-226" type="curve" smooth="yes"/>
      <point x="394" y="-226"/>
      <point x="316" y="-166"/>
      <point x="316" y="-75" type="curve" smooth="yes"/>
      <point x="316" y="-67"/>
      <point x="317" y="-57"/>
      <point x="319" y="-48" type="curve"/>
      <point x="317" y="-47"/>
      <point x="313" y="-46"/>
      <point x="310" y="-46" type="curve" smooth="yes"/>
      <point x="299" y="-46"/>
      <point x="288" y="-57"/>
      <point x="288" y="-82" type="curve" smooth="yes"/>
      <point x="288" y="-160"/>
      <point x="359" y="-250"/>
    </contour>
    <contour>
      <point x="257" y="75" type="curve" smooth="yes"/>
      <point x="146" y="75"/>
      <point x="93" y="168"/>
      <point x="93" y="297" type="curve" smooth="yes"/>
      <point x="93" y="434"/>
      <point x="144" y="521"/>
      <point x="262" y="521" type="curve" smooth="yes"/>
      <point x="374" y="521"/>
      <point x="422" y="442"/>
      <point x="422" y="297" type="curve" smooth="yes"/>
      <point x="422" y="175"/>
      <point x="377" y="75"/>
    </contour>
  </outline>
</glyph>
<glyph name="khar-georgian" format="2">
  <advance width="539"/>
  <unicode hex="10E5"/>
  <note>
uni10E5
</note>
  <outline>
    <contour>
      <point x="252" y="-250" type="curve" smooth="yes"/>
      <point x="370" y="-250"/>
      <point x="444" y="-162"/>
      <point x="444" y="7" type="curve" smooth="yes"/>
      <point x="444" y="760" type="line"/>
      <point x="344" y="760" type="line"/>
      <point x="344" y="740" type="line"/>
      <point x="357" y="740" type="line" smooth="yes"/>
      <point x="408" y="740"/>
      <point x="416" y="732"/>
      <point x="416" y="667" type="curve" smooth="yes"/>
      <point x="416" y="543" type="line" smooth="yes"/>
      <point x="416" y="515"/>
      <point x="417" y="478"/>
      <point x="418" y="441" type="curve"/>
      <point x="414" y="441" type="line"/>
      <point x="387" y="505"/>
      <point x="329" y="546"/>
      <point x="245" y="546" type="curve" smooth="yes"/>
      <point x="162" y="546"/>
      <point x="80" y="485"/>
      <point x="80" y="366" type="curve" smooth="yes"/>
      <point x="80" y="328"/>
      <point x="92" y="283"/>
      <point x="116" y="283" type="curve" smooth="yes"/>
      <point x="119" y="283"/>
      <point x="122" y="284"/>
      <point x="126" y="286" type="curve"/>
      <point x="116" y="305"/>
      <point x="108" y="330"/>
      <point x="108" y="370" type="curve" smooth="yes"/>
      <point x="108" y="465"/>
      <point x="169" y="521"/>
      <point x="248" y="521" type="curve" smooth="yes"/>
      <point x="358" y="521"/>
      <point x="416" y="447"/>
      <point x="416" y="306" type="curve" smooth="yes"/>
      <point x="416" y="5" type="line" smooth="yes"/>
      <point x="416" y="-139"/>
      <point x="359" y="-226"/>
      <point x="253" y="-226" type="curve" smooth="yes"/>
      <point x="146" y="-226"/>
      <point x="88" y="-145"/>
      <point x="88" y="-50" type="curve" smooth="yes"/>
      <point x="88" y="20"/>
      <point x="105" y="55"/>
      <point x="124" y="82" type="curve"/>
      <point x="121" y="84"/>
      <point x="118" y="85"/>
      <point x="115" y="85" type="curve" smooth="yes"/>
      <point x="93" y="85"/>
      <point x="60" y="42"/>
      <point x="60" y="-50" type="curve" smooth="yes"/>
      <point x="60" y="-162"/>
      <point x="130" y="-250"/>
    </contour>
  </outline>
</glyph>
<glyph name="ghan-georgian" format="2">
  <advance width="792"/>
  <unicode hex="10E6"/>
  <note>
uni10E6
</note>
  <outline>
    <contour>
      <point x="547" y="-250" type="curve"/>
      <point x="561" y="-250"/>
      <point x="570" y="-242"/>
      <point x="570" y="-229" type="curve" smooth="yes"/>
      <point x="570" y="-167"/>
      <point x="488" y="-113"/>
      <point x="369" y="-94" type="curve" smooth="yes"/>
      <point x="245" y="-74"/>
      <point x="93" y="17"/>
      <point x="93" y="267" type="curve" smooth="yes"/>
      <point x="93" y="438"/>
      <point x="140" y="521"/>
      <point x="243" y="521" type="curve" smooth="yes"/>
      <point x="337" y="521"/>
      <point x="382" y="449"/>
      <point x="382" y="293" type="curve" smooth="yes"/>
      <point x="382" y="180" type="line"/>
      <point x="410" y="180" type="line"/>
      <point x="410" y="293" type="line" smooth="yes"/>
      <point x="410" y="446"/>
      <point x="455" y="521"/>
      <point x="555" y="521" type="curve" smooth="yes"/>
      <point x="652" y="521"/>
      <point x="699" y="442"/>
      <point x="699" y="267" type="curve" smooth="yes"/>
      <point x="699" y="130"/>
      <point x="656" y="11"/>
      <point x="584" y="11" type="curve"/>
      <point x="585" y="-1"/>
      <point x="592" y="-6"/>
      <point x="606" y="-6" type="curve" smooth="yes"/>
      <point x="667" y="-6"/>
      <point x="727" y="102"/>
      <point x="727" y="267" type="curve" smooth="yes"/>
      <point x="727" y="463"/>
      <point x="664" y="546"/>
      <point x="557" y="546" type="curve" smooth="yes"/>
      <point x="482" y="546"/>
      <point x="409" y="502"/>
      <point x="397" y="394" type="curve"/>
      <point x="395" y="394" type="line"/>
      <point x="384" y="504"/>
      <point x="316" y="546"/>
      <point x="242" y="546" type="curve" smooth="yes"/>
      <point x="129" y="546"/>
      <point x="65" y="463"/>
      <point x="65" y="267" type="curve" smooth="yes"/>
      <point x="65" y="100"/>
      <point x="138" y="-43"/>
      <point x="290" y="-95" type="curve"/>
      <point x="290" y="-97" type="line"/>
      <point x="239" y="-99"/>
      <point x="200" y="-109"/>
      <point x="171" y="-123" type="curve"/>
      <point x="180" y="-141" type="line"/>
      <point x="207" y="-129"/>
      <point x="257" y="-116"/>
      <point x="311" y="-116" type="curve" smooth="yes"/>
      <point x="441" y="-116"/>
      <point x="547" y="-166"/>
    </contour>
  </outline>
</glyph>
<glyph name="qar-georgian" format="2">
  <advance width="540"/>
  <unicode hex="10E7"/>
  <note>
uni10E7
</note>
  <outline>
    <contour>
      <point x="257" y="-250" type="curve" smooth="yes"/>
      <point x="375" y="-250"/>
      <point x="450" y="-162"/>
      <point x="450" y="-13" type="curve" smooth="yes"/>
      <point x="450" y="536" type="line"/>
      <point x="422" y="536" type="line"/>
      <point x="422" y="416" type="line" smooth="yes"/>
      <point x="422" y="285"/>
      <point x="356" y="216"/>
      <point x="258" y="216" type="curve" smooth="yes"/>
      <point x="179" y="216"/>
      <point x="108" y="272"/>
      <point x="108" y="392" type="curve" smooth="yes"/>
      <point x="108" y="476"/>
      <point x="136" y="518"/>
      <point x="146" y="537" type="curve"/>
      <point x="142" y="539"/>
      <point x="139" y="540"/>
      <point x="136" y="540" type="curve" smooth="yes"/>
      <point x="112" y="540"/>
      <point x="80" y="478"/>
      <point x="80" y="396" type="curve" smooth="yes"/>
      <point x="80" y="252"/>
      <point x="167" y="191"/>
      <point x="255" y="191" type="curve" smooth="yes"/>
      <point x="339" y="191"/>
      <point x="397" y="234"/>
      <point x="424" y="301" type="curve"/>
      <point x="427" y="301" type="line"/>
      <point x="423" y="274"/>
      <point x="422" y="247"/>
      <point x="422" y="220" type="curve" smooth="yes"/>
      <point x="422" y="-15" type="line" smooth="yes"/>
      <point x="422" y="-139"/>
      <point x="364" y="-226"/>
      <point x="258" y="-226" type="curve" smooth="yes"/>
      <point x="161" y="-226"/>
      <point x="93" y="-153"/>
      <point x="93" y="-55" type="curve" smooth="yes"/>
      <point x="93" y="-10"/>
      <point x="104" y="25"/>
      <point x="123" y="52" type="curve"/>
      <point x="120" y="54"/>
      <point x="117" y="55"/>
      <point x="114" y="55" type="curve" smooth="yes"/>
      <point x="92" y="55"/>
      <point x="65" y="12"/>
      <point x="65" y="-55" type="curve" smooth="yes"/>
      <point x="65" y="-170"/>
      <point x="145" y="-250"/>
    </contour>
  </outline>
</glyph>
<glyph name="shin-georgian" format="2">
  <advance width="550"/>
  <unicode hex="10E8"/>
  <note>
uni10E8
</note>
  <outline>
    <contour>
      <point x="264" y="-10" type="curve" smooth="yes"/>
      <point x="386" y="-10"/>
      <point x="460" y="88"/>
      <point x="460" y="257" type="curve" smooth="yes"/>
      <point x="460" y="629" type="line" smooth="yes"/>
      <point x="460" y="718"/>
      <point x="421" y="770"/>
      <point x="345" y="770" type="curve" smooth="yes"/>
      <point x="295" y="770"/>
      <point x="255" y="747"/>
      <point x="243" y="701" type="curve"/>
      <point x="241" y="701" type="line"/>
      <point x="229" y="747"/>
      <point x="189" y="770"/>
      <point x="143" y="770" type="curve" smooth="yes"/>
      <point x="79" y="770"/>
      <point x="30" y="731"/>
      <point x="30" y="656" type="curve" smooth="yes"/>
      <point x="30" y="615"/>
      <point x="44" y="592"/>
      <point x="58" y="592" type="curve" smooth="yes"/>
      <point x="60" y="592"/>
      <point x="64" y="593"/>
      <point x="66" y="594" type="curve"/>
      <point x="62" y="605"/>
      <point x="57" y="626"/>
      <point x="57" y="653" type="curve" smooth="yes"/>
      <point x="57" y="717"/>
      <point x="90" y="745"/>
      <point x="143" y="745" type="curve" smooth="yes"/>
      <point x="198" y="745"/>
      <point x="227" y="713"/>
      <point x="227" y="643" type="curve" smooth="yes"/>
      <point x="227" y="602" type="line"/>
      <point x="255" y="602" type="line"/>
      <point x="255" y="643" type="line" smooth="yes"/>
      <point x="255" y="713"/>
      <point x="282" y="745"/>
      <point x="345" y="745" type="curve" smooth="yes"/>
      <point x="409" y="745"/>
      <point x="432" y="700"/>
      <point x="432" y="621" type="curve" smooth="yes"/>
      <point x="432" y="523" type="line" smooth="yes"/>
      <point x="432" y="495"/>
      <point x="433" y="458"/>
      <point x="434" y="421" type="curve"/>
      <point x="430" y="421" type="line"/>
      <point x="403" y="485"/>
      <point x="345" y="523"/>
      <point x="259" y="523" type="curve" smooth="yes"/>
      <point x="126" y="523"/>
      <point x="66" y="423"/>
      <point x="66" y="257" type="curve" smooth="yes"/>
      <point x="66" y="88"/>
      <point x="141" y="-10"/>
    </contour>
    <contour>
      <point x="255" y="14" type="curve" smooth="yes"/>
      <point x="162" y="14"/>
      <point x="94" y="105"/>
      <point x="94" y="254" type="curve" smooth="yes"/>
      <point x="94" y="406"/>
      <point x="141" y="498"/>
      <point x="262" y="498" type="curve" smooth="yes"/>
      <point x="392" y="498"/>
      <point x="433" y="412"/>
      <point x="433" y="255" type="curve" smooth="yes"/>
      <point x="433" y="111"/>
      <point x="375" y="14"/>
    </contour>
  </outline>
</glyph>
<glyph name="chin-georgian" format="2">
  <advance width="546"/>
  <unicode hex="10E9"/>
  <note>
uni10E9
</note>
  <outline>
    <contour>
      <point x="359" y="-6" type="curve" smooth="yes"/>
      <point x="426" y="-6"/>
      <point x="481" y="102"/>
      <point x="481" y="257" type="curve" smooth="yes"/>
      <point x="481" y="413"/>
      <point x="397" y="488"/>
      <point x="293" y="488" type="curve" smooth="yes"/>
      <point x="225" y="488"/>
      <point x="157" y="452"/>
      <point x="124" y="382" type="curve"/>
      <point x="119" y="382" type="line" smooth="yes"/>
      <point x="121" y="403"/>
      <point x="123" y="440"/>
      <point x="123" y="466" type="curve" smooth="yes"/>
      <point x="123" y="495" type="line"/>
      <point x="254" y="536"/>
      <point x="393" y="568"/>
      <point x="393" y="668" type="curve" smooth="yes"/>
      <point x="393" y="722"/>
      <point x="356" y="770"/>
      <point x="254" y="770" type="curve" smooth="yes"/>
      <point x="168" y="770"/>
      <point x="95" y="715"/>
      <point x="95" y="611" type="curve" smooth="yes"/>
      <point x="95" y="0" type="line"/>
      <point x="123" y="0" type="line"/>
      <point x="123" y="277" type="line" smooth="yes"/>
      <point x="123" y="360"/>
      <point x="171" y="463"/>
      <point x="292" y="463" type="curve" smooth="yes"/>
      <point x="412" y="463"/>
      <point x="453" y="346"/>
      <point x="453" y="257" type="curve" smooth="yes"/>
      <point x="453" y="130"/>
      <point x="416" y="15"/>
      <point x="336" y="15" type="curve"/>
      <point x="337" y="0"/>
      <point x="343" y="-6"/>
    </contour>
    <contour>
      <point x="123" y="520" type="curve"/>
      <point x="123" y="606" type="line" smooth="yes"/>
      <point x="123" y="699"/>
      <point x="179" y="745"/>
      <point x="253" y="745" type="curve" smooth="yes"/>
      <point x="332" y="745"/>
      <point x="365" y="714"/>
      <point x="365" y="668" type="curve" smooth="yes"/>
      <point x="365" y="587"/>
      <point x="235" y="553"/>
    </contour>
  </outline>
</glyph>
<glyph name="can-georgian" format="2">
  <advance width="615"/>
  <unicode hex="10EA"/>
  <note>
uni10EA
</note>
  <outline>
    <contour>
      <point x="323" y="-250" type="curve" smooth="yes"/>
      <point x="449" y="-250"/>
      <point x="555" y="-173"/>
      <point x="555" y="-36" type="curve" smooth="yes"/>
      <point x="555" y="92"/>
      <point x="487" y="168"/>
      <point x="413" y="178" type="curve"/>
      <point x="413" y="180" type="line"/>
      <point x="475" y="190"/>
      <point x="531" y="225"/>
      <point x="531" y="294" type="curve" smooth="yes"/>
      <point x="531" y="358"/>
      <point x="491" y="391"/>
      <point x="454" y="419" type="curve" smooth="yes"/>
      <point x="424" y="442"/>
      <point x="396" y="464"/>
      <point x="396" y="500" type="curve" smooth="yes"/>
      <point x="396" y="514"/>
      <point x="400" y="530"/>
      <point x="407" y="540" type="curve"/>
      <point x="404" y="544"/>
      <point x="399" y="546"/>
      <point x="394" y="546" type="curve" smooth="yes"/>
      <point x="379" y="546"/>
      <point x="368" y="523"/>
      <point x="368" y="503" type="curve" smooth="yes"/>
      <point x="368" y="452"/>
      <point x="403" y="426"/>
      <point x="438" y="399" type="curve" smooth="yes"/>
      <point x="471" y="373"/>
      <point x="503" y="345"/>
      <point x="503" y="294" type="curve" smooth="yes"/>
      <point x="503" y="227"/>
      <point x="446" y="193"/>
      <point x="353" y="193" type="curve" smooth="yes"/>
      <point x="300" y="193" type="line"/>
      <point x="300" y="168" type="line"/>
      <point x="353" y="168" type="line" smooth="yes"/>
      <point x="456" y="168"/>
      <point x="527" y="94"/>
      <point x="527" y="-36" type="curve" smooth="yes"/>
      <point x="527" y="-161"/>
      <point x="428" y="-225"/>
      <point x="324" y="-225" type="curve" smooth="yes"/>
      <point x="171" y="-225"/>
      <point x="93" y="-88"/>
      <point x="93" y="148" type="curve" smooth="yes"/>
      <point x="93" y="327"/>
      <point x="146" y="452"/>
      <point x="208" y="533" type="curve"/>
      <point x="192" y="546" type="line"/>
      <point x="135" y="489"/>
      <point x="65" y="335"/>
      <point x="65" y="148" type="curve" smooth="yes"/>
      <point x="65" y="-163"/>
      <point x="189" y="-250"/>
    </contour>
  </outline>
</glyph>
<glyph name="jil-georgian" format="2">
  <advance width="554"/>
  <unicode hex="10EB"/>
  <note>
uni10EB
</note>
  <outline>
    <contour>
      <point x="263" y="-10" type="curve" smooth="yes"/>
      <point x="385" y="-10"/>
      <point x="459" y="88"/>
      <point x="459" y="267" type="curve" smooth="yes"/>
      <point x="459" y="760" type="line"/>
      <point x="359" y="760" type="line"/>
      <point x="359" y="740" type="line"/>
      <point x="372" y="740" type="line" smooth="yes"/>
      <point x="423" y="740"/>
      <point x="431" y="732"/>
      <point x="431" y="667" type="curve" smooth="yes"/>
      <point x="431" y="543" type="line" smooth="yes"/>
      <point x="431" y="515"/>
      <point x="432" y="478"/>
      <point x="433" y="441" type="curve"/>
      <point x="429" y="441" type="line"/>
      <point x="402" y="505"/>
      <point x="344" y="543"/>
      <point x="255" y="543" type="curve" smooth="yes"/>
      <point x="125" y="543"/>
      <point x="65" y="443"/>
      <point x="65" y="267" type="curve" smooth="yes"/>
      <point x="65" y="88"/>
      <point x="140" y="-10"/>
    </contour>
    <contour>
      <point x="257" y="14" type="curve" smooth="yes"/>
      <point x="160" y="14"/>
      <point x="93" y="103"/>
      <point x="93" y="264" type="curve" smooth="yes"/>
      <point x="93" y="426"/>
      <point x="140" y="518"/>
      <point x="258" y="518" type="curve" smooth="yes"/>
      <point x="391" y="518"/>
      <point x="432" y="432"/>
      <point x="432" y="265" type="curve" smooth="yes"/>
      <point x="432" y="112"/>
      <point x="373" y="14"/>
    </contour>
  </outline>
</glyph>
<glyph name="cil-georgian" format="2">
  <advance width="544"/>
  <unicode hex="10EC"/>
  <note>
uni10EC
</note>
  <guideline x="196" y="63" angle="284.2952"/>
  <outline>
    <contour>
      <point x="251" y="-240" type="line"/>
      <point x="282" y="-240" type="line"/>
      <point x="416" y="106" type="line" smooth="yes"/>
      <point x="429" y="139"/>
      <point x="471" y="239"/>
      <point x="471" y="317" type="curve" smooth="yes"/>
      <point x="471" y="423"/>
      <point x="421" y="523"/>
      <point x="288" y="523" type="curve" smooth="yes"/>
      <point x="202" y="523"/>
      <point x="117" y="480"/>
      <point x="112" y="366" type="curve"/>
      <point x="108" y="366" type="line"/>
      <point x="90" y="440" type="line" smooth="yes"/>
      <point x="74" y="506"/>
      <point x="68" y="563"/>
      <point x="68" y="615" type="curve" smooth="yes"/>
      <point x="68" y="700"/>
      <point x="101" y="745"/>
      <point x="164" y="745" type="curve" smooth="yes"/>
      <point x="218" y="745"/>
      <point x="251" y="713"/>
      <point x="251" y="643" type="curve" smooth="yes"/>
      <point x="251" y="602" type="line"/>
      <point x="279" y="602" type="line"/>
      <point x="279" y="643" type="line" smooth="yes"/>
      <point x="279" y="713"/>
      <point x="312" y="745"/>
      <point x="369" y="745" type="curve" smooth="yes"/>
      <point x="424" y="745"/>
      <point x="457" y="713"/>
      <point x="457" y="657" type="curve" smooth="yes"/>
      <point x="457" y="626"/>
      <point x="450" y="605"/>
      <point x="445" y="594" type="curve"/>
      <point x="447" y="593"/>
      <point x="451" y="592"/>
      <point x="453" y="592" type="curve" smooth="yes"/>
      <point x="467" y="592"/>
      <point x="484" y="615"/>
      <point x="484" y="660" type="curve" smooth="yes"/>
      <point x="484" y="727"/>
      <point x="435" y="770"/>
      <point x="369" y="770" type="curve" smooth="yes"/>
      <point x="321" y="770"/>
      <point x="282" y="747"/>
      <point x="266" y="701" type="curve"/>
      <point x="264" y="701" type="line"/>
      <point x="252" y="747"/>
      <point x="205" y="770"/>
      <point x="164" y="770" type="curve" smooth="yes"/>
      <point x="89" y="770"/>
      <point x="40" y="718"/>
      <point x="40" y="611" type="curve" smooth="yes"/>
      <point x="40" y="536"/>
      <point x="55" y="461"/>
      <point x="73" y="396" type="curve" smooth="yes"/>
    </contour>
    <contour>
      <point x="267" y="-217" type="curve"/>
      <point x="256" y="-175"/>
      <point x="240" y="-93"/>
      <point x="223" y="-34" type="curve" smooth="yes"/>
      <point x="164" y="174" type="line" smooth="yes"/>
      <point x="149" y="226"/>
      <point x="132" y="292"/>
      <point x="132" y="350" type="curve" smooth="yes"/>
      <point x="132" y="431"/>
      <point x="188" y="498"/>
      <point x="285" y="498" type="curve" smooth="yes"/>
      <point x="406" y="498"/>
      <point x="443" y="406"/>
      <point x="443" y="314" type="curve" smooth="yes"/>
      <point x="443" y="237"/>
      <point x="410" y="160"/>
      <point x="388" y="106" type="curve" smooth="yes"/>
      <point x="332" y="-34" type="line" smooth="yes"/>
      <point x="295" y="-127"/>
      <point x="279" y="-175"/>
    </contour>
  </outline>
</glyph>
<glyph name="char-georgian" format="2">
  <advance width="526"/>
  <unicode hex="10ED"/>
  <note>
uni10ED
</note>
  <outline>
    <contour>
      <point x="466" y="484" type="curve" smooth="yes"/>
      <point x="466" y="521"/>
      <point x="453" y="546"/>
      <point x="438" y="546" type="curve" smooth="yes"/>
      <point x="435" y="546"/>
      <point x="433" y="546"/>
      <point x="430" y="545" type="curve"/>
      <point x="437" y="522"/>
      <point x="438" y="500"/>
      <point x="438" y="478" type="curve" smooth="yes"/>
      <point x="438" y="391"/>
      <point x="407" y="303"/>
      <point x="304" y="292" type="curve"/>
      <point x="304" y="760" type="line"/>
      <point x="197" y="760" type="line"/>
      <point x="197" y="740" type="line"/>
      <point x="219" y="740" type="line" smooth="yes"/>
      <point x="271" y="740"/>
      <point x="276" y="729"/>
      <point x="276" y="662" type="curve" smooth="yes"/>
      <point x="276" y="486" type="line"/>
      <point x="258" y="518"/>
      <point x="226" y="536"/>
      <point x="178" y="536" type="curve" smooth="yes"/>
      <point x="122" y="536"/>
      <point x="62" y="497"/>
      <point x="62" y="414" type="curve" smooth="yes"/>
      <point x="62" y="309"/>
      <point x="142" y="265"/>
      <point x="277" y="265" type="curve"/>
      <point x="286" y="203"/>
      <point x="321" y="163"/>
      <point x="358" y="123" type="curve" smooth="yes"/>
      <point x="395" y="83"/>
      <point x="431" y="38"/>
      <point x="431" y="-52" type="curve" smooth="yes"/>
      <point x="431" y="-169"/>
      <point x="370" y="-226"/>
      <point x="251" y="-226" type="curve" smooth="yes"/>
      <point x="155" y="-226"/>
      <point x="88" y="-152"/>
      <point x="88" y="-55" type="curve" smooth="yes"/>
      <point x="88" y="-10"/>
      <point x="99" y="25"/>
      <point x="118" y="52" type="curve"/>
      <point x="115" y="54"/>
      <point x="112" y="55"/>
      <point x="109" y="55" type="curve" smooth="yes"/>
      <point x="87" y="55"/>
      <point x="60" y="12"/>
      <point x="60" y="-55" type="curve" smooth="yes"/>
      <point x="60" y="-170"/>
      <point x="140" y="-250"/>
      <point x="252" y="-250" type="curve" smooth="yes"/>
      <point x="411" y="-250"/>
      <point x="459" y="-154"/>
      <point x="459" y="-52" type="curve" smooth="yes"/>
      <point x="459" y="46"/>
      <point x="420" y="94"/>
      <point x="380" y="136" type="curve" smooth="yes"/>
      <point x="344" y="174"/>
      <point x="312" y="210"/>
      <point x="305" y="268" type="curve"/>
      <point x="433" y="281"/>
      <point x="466" y="393"/>
    </contour>
    <contour>
      <point x="90" y="410" type="curve" smooth="yes"/>
      <point x="90" y="474"/>
      <point x="126" y="511"/>
      <point x="184" y="511" type="curve" smooth="yes"/>
      <point x="243" y="511"/>
      <point x="276" y="475"/>
      <point x="276" y="411" type="curve" smooth="yes"/>
      <point x="276" y="289" type="line"/>
      <point x="164" y="289"/>
      <point x="90" y="321"/>
    </contour>
  </outline>
</glyph>
<glyph name="xan-georgian" format="2">
  <advance width="574"/>
  <unicode hex="10EE"/>
  <note>
uni10EE
</note>
  <outline>
    <contour>
      <point x="319" y="543" type="curve" smooth="yes"/>
      <point x="230" y="543"/>
      <point x="172" y="505"/>
      <point x="145" y="441" type="curve"/>
      <point x="141" y="441" type="line"/>
      <point x="142" y="478"/>
      <point x="143" y="515"/>
      <point x="143" y="543" type="curve" smooth="yes"/>
      <point x="143" y="760" type="line"/>
      <point x="27" y="760" type="line"/>
      <point x="27" y="740" type="line"/>
      <point x="58" y="740" type="line" smooth="yes"/>
      <point x="108" y="740"/>
      <point x="115" y="736"/>
      <point x="115" y="662" type="curve" smooth="yes"/>
      <point x="115" y="267" type="line" smooth="yes"/>
      <point x="115" y="88"/>
      <point x="189" y="-10"/>
      <point x="311" y="-10" type="curve" smooth="yes"/>
      <point x="434" y="-10"/>
      <point x="509" y="88"/>
      <point x="509" y="267" type="curve" smooth="yes"/>
      <point x="509" y="443"/>
      <point x="449" y="543"/>
    </contour>
    <contour>
      <point x="317" y="14" type="curve" smooth="yes"/>
      <point x="201" y="14"/>
      <point x="142" y="112"/>
      <point x="142" y="265" type="curve" smooth="yes"/>
      <point x="142" y="432"/>
      <point x="183" y="518"/>
      <point x="316" y="518" type="curve" smooth="yes"/>
      <point x="434" y="518"/>
      <point x="481" y="426"/>
      <point x="481" y="264" type="curve" smooth="yes"/>
      <point x="481" y="103"/>
      <point x="414" y="14"/>
    </contour>
  </outline>
</glyph>
<glyph name="jhan-georgian" format="2">
  <advance width="712"/>
  <unicode hex="10EF"/>
  <note>
uni10EF
</note>
  <outline>
    <contour>
      <point x="616" y="202" type="curve" smooth="yes"/>
      <point x="613" y="202"/>
      <point x="610" y="201"/>
      <point x="606" y="199" type="curve"/>
      <point x="616" y="180"/>
      <point x="624" y="155"/>
      <point x="624" y="120" type="curve" smooth="yes"/>
      <point x="624" y="40"/>
      <point x="575" y="15"/>
      <point x="530" y="15" type="curve" smooth="yes"/>
      <point x="452" y="15"/>
      <point x="426" y="70"/>
      <point x="405" y="148" type="curve" smooth="yes"/>
      <point x="377" y="250" type="line"/>
      <point x="504" y="302"/>
      <point x="623" y="353"/>
      <point x="623" y="454" type="curve" smooth="yes"/>
      <point x="623" y="513"/>
      <point x="585" y="546"/>
      <point x="527" y="546" type="curve" smooth="yes"/>
      <point x="493" y="546"/>
      <point x="456" y="530"/>
      <point x="456" y="510" type="curve" smooth="yes"/>
      <point x="456" y="507"/>
      <point x="457" y="504"/>
      <point x="459" y="500" type="curve"/>
      <point x="477" y="513"/>
      <point x="493" y="521"/>
      <point x="525" y="521" type="curve" smooth="yes"/>
      <point x="573" y="521"/>
      <point x="595" y="495"/>
      <point x="595" y="454" type="curve" smooth="yes"/>
      <point x="595" y="369"/>
      <point x="488" y="321"/>
      <point x="370" y="272" type="curve"/>
      <point x="334" y="402" type="line" smooth="yes"/>
      <point x="312" y="481"/>
      <point x="272" y="546"/>
      <point x="185" y="546" type="curve" smooth="yes"/>
      <point x="122" y="546"/>
      <point x="60" y="507"/>
      <point x="60" y="416" type="curve" smooth="yes"/>
      <point x="60" y="380"/>
      <point x="76" y="334"/>
      <point x="100" y="334" type="curve" smooth="yes"/>
      <point x="103" y="334"/>
      <point x="106" y="335"/>
      <point x="110" y="337" type="curve"/>
      <point x="100" y="356"/>
      <point x="88" y="381"/>
      <point x="88" y="416" type="curve" smooth="yes"/>
      <point x="88" y="496"/>
      <point x="137" y="521"/>
      <point x="185" y="521" type="curve" smooth="yes"/>
      <point x="260" y="521"/>
      <point x="286" y="467"/>
      <point x="308" y="388" type="curve" smooth="yes"/>
      <point x="343" y="261" type="line"/>
      <point x="248" y="220"/>
      <point x="152" y="156"/>
      <point x="113" y="60" type="curve"/>
      <point x="113" y="33" type="line"/>
      <point x="141" y="33" type="line" smooth="yes"/>
      <point x="216" y="33"/>
      <point x="281" y="-18"/>
      <point x="281" y="-100" type="curve" smooth="yes"/>
      <point x="281" y="-175"/>
      <point x="237" y="-228"/>
      <point x="167" y="-228" type="curve" smooth="yes"/>
      <point x="100" y="-228"/>
      <point x="57" y="-191"/>
      <point x="57" y="-116" type="curve" smooth="yes"/>
      <point x="57" y="-107"/>
      <point x="59" y="-89"/>
      <point x="62" y="-79" type="curve"/>
      <point x="60" y="-78"/>
      <point x="56" y="-77"/>
      <point x="53" y="-77" type="curve" smooth="yes"/>
      <point x="38" y="-77"/>
      <point x="30" y="-101"/>
      <point x="30" y="-124" type="curve" smooth="yes"/>
      <point x="30" y="-194"/>
      <point x="75" y="-250"/>
      <point x="167" y="-250" type="curve" smooth="yes"/>
      <point x="244" y="-250"/>
      <point x="306" y="-195"/>
      <point x="306" y="-100" type="curve" smooth="yes"/>
      <point x="306" y="-15"/>
      <point x="241" y="54"/>
      <point x="138" y="54" type="curve"/>
      <point x="138" y="56" type="line"/>
      <point x="169" y="141"/>
      <point x="259" y="199"/>
      <point x="350" y="238" type="curve"/>
      <point x="379" y="134" type="line" smooth="yes"/>
      <point x="401" y="56"/>
      <point x="440" y="-10"/>
      <point x="530" y="-10" type="curve" smooth="yes"/>
      <point x="590" y="-10"/>
      <point x="652" y="30"/>
      <point x="652" y="121" type="curve" smooth="yes"/>
      <point x="652" y="157"/>
      <point x="640" y="202"/>
    </contour>
  </outline>
</glyph>
<glyph name="hae-georgian" format="2">
  <advance width="501"/>
  <unicode hex="10F0"/>
  <note>
uni10F0
</note>
  <outline>
    <contour>
      <point x="244" y="-10" type="curve" smooth="yes"/>
      <point x="379" y="-10"/>
      <point x="436" y="61"/>
      <point x="436" y="137" type="curve" smooth="yes"/>
      <point x="436" y="204"/>
      <point x="393" y="254"/>
      <point x="330" y="266" type="curve"/>
      <point x="330" y="268" type="line"/>
      <point x="384" y="274"/>
      <point x="426" y="311"/>
      <point x="426" y="372" type="curve" smooth="yes"/>
      <point x="426" y="426"/>
      <point x="384" y="463"/>
      <point x="330" y="470" type="curve"/>
      <point x="330" y="472" type="line"/>
      <point x="384" y="480"/>
      <point x="421" y="512"/>
      <point x="421" y="554" type="curve" smooth="yes"/>
      <point x="421" y="611"/>
      <point x="361" y="636"/>
      <point x="310" y="661" type="curve" smooth="yes"/>
      <point x="271" y="680"/>
      <point x="237" y="700"/>
      <point x="237" y="738" type="curve" smooth="yes"/>
      <point x="237" y="748"/>
      <point x="239" y="755"/>
      <point x="244" y="764" type="curve"/>
      <point x="241" y="768"/>
      <point x="236" y="770"/>
      <point x="231" y="770" type="curve" smooth="yes"/>
      <point x="218" y="770"/>
      <point x="209" y="757"/>
      <point x="209" y="741" type="curve" smooth="yes"/>
      <point x="209" y="687"/>
      <point x="254" y="662"/>
      <point x="300" y="641" type="curve" smooth="yes"/>
      <point x="349" y="619"/>
      <point x="393" y="600"/>
      <point x="393" y="554" type="curve" smooth="yes"/>
      <point x="393" y="503"/>
      <point x="347" y="484"/>
      <point x="285" y="484" type="curve" smooth="yes"/>
      <point x="213" y="484" type="line"/>
      <point x="213" y="459" type="line"/>
      <point x="281" y="459" type="line" smooth="yes"/>
      <point x="353" y="459"/>
      <point x="398" y="430"/>
      <point x="398" y="372" type="curve" smooth="yes"/>
      <point x="398" y="307"/>
      <point x="353" y="279"/>
      <point x="285" y="279" type="curve" smooth="yes"/>
      <point x="213" y="279" type="line"/>
      <point x="213" y="254" type="line"/>
      <point x="281" y="254" type="line" smooth="yes"/>
      <point x="357" y="254"/>
      <point x="408" y="207"/>
      <point x="408" y="136" type="curve" smooth="yes"/>
      <point x="408" y="61"/>
      <point x="347" y="15"/>
      <point x="244" y="15" type="curve" smooth="yes"/>
      <point x="141" y="15"/>
      <point x="88" y="59"/>
      <point x="88" y="131" type="curve" smooth="yes"/>
      <point x="88" y="139"/>
      <point x="89" y="145"/>
      <point x="91" y="151" type="curve"/>
      <point x="88" y="153"/>
      <point x="85" y="153"/>
      <point x="83" y="153" type="curve" smooth="yes"/>
      <point x="67" y="153"/>
      <point x="60" y="137"/>
      <point x="60" y="117" type="curve" smooth="yes"/>
      <point x="60" y="54"/>
      <point x="120" y="-10"/>
    </contour>
  </outline>
</glyph>
<glyph name="he-georgian" format="2">
  <advance width="620"/>
  <unicode hex="10F1"/>
  <note>
uni10F1
</note>
  <outline>
    <contour>
      <point x="343" y="-10" type="curve" smooth="yes"/>
      <point x="459" y="-10"/>
      <point x="555" y="47"/>
      <point x="555" y="147" type="curve" smooth="yes"/>
      <point x="555" y="214"/>
      <point x="512" y="254"/>
      <point x="449" y="266" type="curve"/>
      <point x="449" y="268" type="line"/>
      <point x="503" y="274"/>
      <point x="545" y="311"/>
      <point x="545" y="372" type="curve" smooth="yes"/>
      <point x="545" y="426"/>
      <point x="503" y="463"/>
      <point x="449" y="470" type="curve"/>
      <point x="449" y="472" type="line"/>
      <point x="503" y="480"/>
      <point x="540" y="512"/>
      <point x="540" y="554" type="curve" smooth="yes"/>
      <point x="540" y="606"/>
      <point x="496" y="637"/>
      <point x="459" y="658" type="curve" smooth="yes"/>
      <point x="421" y="680"/>
      <point x="396" y="700"/>
      <point x="396" y="738" type="curve" smooth="yes"/>
      <point x="396" y="748"/>
      <point x="398" y="755"/>
      <point x="403" y="764" type="curve"/>
      <point x="400" y="768"/>
      <point x="395" y="770"/>
      <point x="390" y="770" type="curve" smooth="yes"/>
      <point x="377" y="770"/>
      <point x="368" y="757"/>
      <point x="368" y="741" type="curve" smooth="yes"/>
      <point x="368" y="691"/>
      <point x="397" y="663"/>
      <point x="439" y="641" type="curve" smooth="yes"/>
      <point x="476" y="622"/>
      <point x="512" y="594"/>
      <point x="512" y="554" type="curve" smooth="yes"/>
      <point x="512" y="503"/>
      <point x="466" y="484"/>
      <point x="404" y="484" type="curve" smooth="yes"/>
      <point x="332" y="484" type="line"/>
      <point x="332" y="459" type="line"/>
      <point x="400" y="459" type="line" smooth="yes"/>
      <point x="472" y="459"/>
      <point x="517" y="430"/>
      <point x="517" y="372" type="curve" smooth="yes"/>
      <point x="517" y="307"/>
      <point x="472" y="279"/>
      <point x="404" y="279" type="curve" smooth="yes"/>
      <point x="332" y="279" type="line"/>
      <point x="332" y="254" type="line"/>
      <point x="400" y="254" type="line" smooth="yes"/>
      <point x="476" y="254"/>
      <point x="527" y="217"/>
      <point x="527" y="146" type="curve" smooth="yes"/>
      <point x="527" y="59"/>
      <point x="438" y="15"/>
      <point x="344" y="15" type="curve" smooth="yes"/>
      <point x="181" y="15"/>
      <point x="93" y="152"/>
      <point x="93" y="388" type="curve" smooth="yes"/>
      <point x="93" y="551"/>
      <point x="146" y="676"/>
      <point x="208" y="757" type="curve"/>
      <point x="192" y="770" type="line"/>
      <point x="135" y="713"/>
      <point x="65" y="559"/>
      <point x="65" y="388" type="curve" smooth="yes"/>
      <point x="65" y="83"/>
      <point x="199" y="-10"/>
    </contour>
  </outline>
</glyph>
<glyph name="hie-georgian" format="2">
  <advance width="531"/>
  <unicode hex="10F2"/>
  <note>
uni10F2
</note>
  <outline>
    <contour>
      <point x="108" y="-10" type="curve" smooth="yes"/>
      <point x="158" y="-10"/>
      <point x="212" y="8"/>
      <point x="264" y="37" type="curve"/>
      <point x="319" y="7"/>
      <point x="377" y="-10"/>
      <point x="432" y="-10" type="curve" smooth="yes"/>
      <point x="451" y="-10"/>
      <point x="459" y="-3"/>
      <point x="461" y="15" type="curve"/>
      <point x="398" y="15"/>
      <point x="342" y="25"/>
      <point x="292" y="52" type="curve"/>
      <point x="388" y="115"/>
      <point x="465" y="205"/>
      <point x="466" y="324" type="curve" smooth="yes"/>
      <point x="467" y="463"/>
      <point x="381" y="546"/>
      <point x="265" y="546" type="curve" smooth="yes"/>
      <point x="150" y="546"/>
      <point x="62" y="457"/>
      <point x="65" y="324" type="curve" smooth="yes"/>
      <point x="68" y="192"/>
      <point x="145" y="109"/>
      <point x="237" y="51" type="curve"/>
      <point x="191" y="25"/>
      <point x="139" y="15"/>
      <point x="80" y="15" type="curve"/>
      <point x="80" y="-1"/>
      <point x="88" y="-10"/>
    </contour>
    <contour>
      <point x="265" y="64" type="curve"/>
      <point x="171" y="118"/>
      <point x="95" y="197"/>
      <point x="93" y="324" type="curve" smooth="yes"/>
      <point x="93" y="437"/>
      <point x="159" y="521"/>
      <point x="265" y="521" type="curve" smooth="yes"/>
      <point x="371" y="521"/>
      <point x="441" y="442"/>
      <point x="438" y="324" type="curve" smooth="yes"/>
      <point x="435" y="206"/>
      <point x="364" y="122"/>
    </contour>
  </outline>
</glyph>
<glyph name="we-georgian" format="2">
  <advance width="525"/>
  <unicode hex="10F3"/>
  <note>
uni10F3
</note>
  <outline>
    <contour>
      <point x="262" y="-250" type="curve" smooth="yes"/>
      <point x="380" y="-250"/>
      <point x="465" y="-162"/>
      <point x="465" y="-23" type="curve" smooth="yes"/>
      <point x="465" y="109"/>
      <point x="403" y="207"/>
      <point x="247" y="211" type="curve"/>
      <point x="444" y="518" type="line"/>
      <point x="444" y="536" type="line"/>
      <point x="97" y="536" type="line"/>
      <point x="92" y="419" type="line"/>
      <point x="112" y="419" type="line"/>
      <point x="118" y="476" type="line" smooth="yes"/>
      <point x="121" y="505"/>
      <point x="128" y="511"/>
      <point x="159" y="511" type="curve" smooth="yes"/>
      <point x="408" y="511" type="line"/>
      <point x="218" y="212" type="line"/>
      <point x="218" y="186" type="line"/>
      <point x="244" y="186" type="line" smooth="yes"/>
      <point x="366" y="186"/>
      <point x="437" y="117"/>
      <point x="437" y="-25" type="curve" smooth="yes"/>
      <point x="437" y="-139"/>
      <point x="369" y="-226"/>
      <point x="263" y="-226" type="curve" smooth="yes"/>
      <point x="156" y="-226"/>
      <point x="88" y="-145"/>
      <point x="88" y="-50" type="curve" smooth="yes"/>
      <point x="88" y="-10"/>
      <point x="99" y="25"/>
      <point x="118" y="52" type="curve"/>
      <point x="115" y="54"/>
      <point x="112" y="55"/>
      <point x="109" y="55" type="curve" smooth="yes"/>
      <point x="87" y="55"/>
      <point x="60" y="12"/>
      <point x="60" y="-50" type="curve" smooth="yes"/>
      <point x="60" y="-162"/>
      <point x="140" y="-250"/>
    </contour>
  </outline>
</glyph>
<glyph name="har-georgian" format="2">
  <advance width="525"/>
  <unicode hex="10F4"/>
  <note>
uni10F4
</note>
  <outline>
    <contour>
      <point x="262" y="-250" type="curve" smooth="yes"/>
      <point x="379" y="-250"/>
      <point x="465" y="-164"/>
      <point x="465" y="-35" type="curve" smooth="yes"/>
      <point x="465" y="86"/>
      <point x="406" y="181"/>
      <point x="242" y="184" type="curve"/>
      <point x="449" y="471" type="line"/>
      <point x="449" y="488" type="line"/>
      <point x="268" y="488" type="line" smooth="yes"/>
      <point x="160" y="488"/>
      <point x="108" y="530"/>
      <point x="108" y="616" type="curve" smooth="yes"/>
      <point x="108" y="707"/>
      <point x="179" y="745"/>
      <point x="245" y="745" type="curve" smooth="yes"/>
      <point x="324" y="745"/>
      <point x="375" y="700"/>
      <point x="375" y="605" type="curve"/>
      <point x="385" y="605"/>
      <point x="396" y="616"/>
      <point x="396" y="647" type="curve" smooth="yes"/>
      <point x="396" y="722"/>
      <point x="330" y="770"/>
      <point x="245" y="770" type="curve" smooth="yes"/>
      <point x="135" y="770"/>
      <point x="80" y="698"/>
      <point x="80" y="616" type="curve" smooth="yes"/>
      <point x="80" y="519"/>
      <point x="140" y="463"/>
      <point x="266" y="463" type="curve" smooth="yes"/>
      <point x="409" y="463" type="line"/>
      <point x="210" y="183" type="line"/>
      <point x="210" y="158" type="line"/>
      <point x="236" y="158" type="line" smooth="yes"/>
      <point x="382" y="158"/>
      <point x="437" y="79"/>
      <point x="437" y="-34" type="curve" smooth="yes"/>
      <point x="437" y="-138"/>
      <point x="369" y="-226"/>
      <point x="263" y="-226" type="curve" smooth="yes"/>
      <point x="156" y="-226"/>
      <point x="88" y="-145"/>
      <point x="88" y="-50" type="curve" smooth="yes"/>
      <point x="88" y="-10"/>
      <point x="99" y="25"/>
      <point x="118" y="52" type="curve"/>
      <point x="115" y="54"/>
      <point x="112" y="55"/>
      <point x="109" y="55" type="curve" smooth="yes"/>
      <point x="87" y="55"/>
      <point x="60" y="12"/>
      <point x="60" y="-50" type="curve" smooth="yes"/>
      <point x="60" y="-162"/>
      <point x="140" y="-250"/>
    </contour>
  </outline>
</glyph>
<glyph name="hoe-georgian" format="2">
  <advance width="574"/>
  <unicode hex="10F5"/>
  <note>
uni10F5
</note>
  <outline>
    <contour>
      <point x="251" y="-10" type="curve" smooth="yes"/>
      <point x="386" y="-10"/>
      <point x="429" y="95"/>
      <point x="429" y="189" type="curve" smooth="yes"/>
      <point x="429" y="287" type="line"/>
      <point x="534" y="287" type="line"/>
      <point x="534" y="312" type="line"/>
      <point x="429" y="312" type="line"/>
      <point x="429" y="448" type="line"/>
      <point x="534" y="448" type="line"/>
      <point x="534" y="473" type="line"/>
      <point x="429" y="473" type="line"/>
      <point x="429" y="571" type="line" smooth="yes"/>
      <point x="429" y="665"/>
      <point x="386" y="770"/>
      <point x="251" y="770" type="curve" smooth="yes"/>
      <point x="130" y="770"/>
      <point x="65" y="716"/>
      <point x="65" y="608" type="curve" smooth="yes"/>
      <point x="65" y="494"/>
      <point x="166" y="448"/>
      <point x="267" y="448" type="curve" smooth="yes"/>
      <point x="401" y="448" type="line"/>
      <point x="401" y="312" type="line"/>
      <point x="267" y="312" type="line" smooth="yes"/>
      <point x="166" y="312"/>
      <point x="65" y="266"/>
      <point x="65" y="152" type="curve" smooth="yes"/>
      <point x="65" y="44"/>
      <point x="130" y="-10"/>
    </contour>
    <contour>
      <point x="252" y="15" type="curve" smooth="yes"/>
      <point x="143" y="15"/>
      <point x="93" y="69"/>
      <point x="93" y="153" type="curve" smooth="yes"/>
      <point x="93" y="251"/>
      <point x="192" y="287"/>
      <point x="267" y="287" type="curve" smooth="yes"/>
      <point x="401" y="287" type="line"/>
      <point x="401" y="190" type="line" smooth="yes"/>
      <point x="401" y="113"/>
      <point x="372" y="15"/>
    </contour>
    <contour>
      <point x="267" y="473" type="line" smooth="yes"/>
      <point x="192" y="473"/>
      <point x="93" y="509"/>
      <point x="93" y="607" type="curve" smooth="yes"/>
      <point x="93" y="691"/>
      <point x="143" y="745"/>
      <point x="252" y="745" type="curve" smooth="yes"/>
      <point x="372" y="745"/>
      <point x="401" y="647"/>
      <point x="401" y="570" type="curve" smooth="yes"/>
      <point x="401" y="473" type="line"/>
    </contour>
  </outline>
</glyph>
<glyph name="fi-georgian" format="2">
  <advance width="878"/>
  <unicode hex="10F6"/>
  <note>
uni10F6
</note>
  <outline>
    <contour>
      <point x="343" y="-250" type="curve" smooth="yes"/>
      <point x="408" y="-250"/>
      <point x="453" y="-217"/>
      <point x="453" y="-93" type="curve" smooth="yes"/>
      <point x="453" y="-21" type="line" smooth="yes"/>
      <point x="453" y="18"/>
      <point x="452" y="76"/>
      <point x="448" y="119" type="curve"/>
      <point x="451" y="119" type="line"/>
      <point x="477" y="36"/>
      <point x="531" y="-10"/>
      <point x="623" y="-10" type="curve" smooth="yes"/>
      <point x="750" y="-10"/>
      <point x="813" y="75"/>
      <point x="813" y="265" type="curve" smooth="yes"/>
      <point x="813" y="455"/>
      <point x="750" y="546"/>
      <point x="623" y="546" type="curve" smooth="yes"/>
      <point x="531" y="546"/>
      <point x="477" y="499"/>
      <point x="451" y="416" type="curve"/>
      <point x="448" y="416" type="line"/>
      <point x="451" y="453"/>
      <point x="453" y="498"/>
      <point x="453" y="536" type="curve" smooth="yes"/>
      <point x="453" y="579" type="line" smooth="yes"/>
      <point x="453" y="680"/>
      <point x="460" y="745"/>
      <point x="531" y="745" type="curve" smooth="yes"/>
      <point x="574" y="745"/>
      <point x="592" y="716"/>
      <point x="592" y="664" type="curve"/>
      <point x="609" y="664"/>
      <point x="613" y="684"/>
      <point x="613" y="699" type="curve" smooth="yes"/>
      <point x="613" y="732"/>
      <point x="593" y="770"/>
      <point x="534" y="770" type="curve" smooth="yes"/>
      <point x="469" y="770"/>
      <point x="425" y="732"/>
      <point x="425" y="608" type="curve" smooth="yes"/>
      <point x="425" y="536" type="line" smooth="yes"/>
      <point x="425" y="493"/>
      <point x="427" y="453"/>
      <point x="430" y="416" type="curve"/>
      <point x="427" y="416" type="line"/>
      <point x="401" y="499"/>
      <point x="347" y="546"/>
      <point x="255" y="546" type="curve" smooth="yes"/>
      <point x="128" y="546"/>
      <point x="66" y="455"/>
      <point x="65" y="265" type="curve" smooth="yes"/>
      <point x="64" y="75"/>
      <point x="128" y="-10"/>
      <point x="255" y="-10" type="curve" smooth="yes"/>
      <point x="347" y="-10"/>
      <point x="401" y="36"/>
      <point x="427" y="119" type="curve"/>
      <point x="430" y="119" type="line"/>
      <point x="427" y="77"/>
      <point x="425" y="27"/>
      <point x="425" y="-21" type="curve" smooth="yes"/>
      <point x="425" y="-69" type="line" smooth="yes"/>
      <point x="425" y="-165"/>
      <point x="417" y="-225"/>
      <point x="346" y="-225" type="curve" smooth="yes"/>
      <point x="303" y="-225"/>
      <point x="283" y="-197"/>
      <point x="283" y="-145" type="curve"/>
      <point x="266" y="-145"/>
      <point x="262" y="-165"/>
      <point x="262" y="-180" type="curve" smooth="yes"/>
      <point x="262" y="-213"/>
      <point x="284" y="-250"/>
    </contour>
    <contour>
      <point x="259" y="15" type="curve" smooth="yes"/>
      <point x="142" y="15"/>
      <point x="93" y="93"/>
      <point x="93" y="265" type="curve" smooth="yes"/>
      <point x="93" y="437"/>
      <point x="142" y="521"/>
      <point x="259" y="521" type="curve" smooth="yes"/>
      <point x="370" y="521"/>
      <point x="426" y="436"/>
      <point x="426" y="264" type="curve" smooth="yes"/>
      <point x="426" y="110"/>
      <point x="377" y="15"/>
    </contour>
    <contour>
      <point x="619" y="15" type="curve" smooth="yes"/>
      <point x="501" y="15"/>
      <point x="452" y="109"/>
      <point x="452" y="264" type="curve" smooth="yes"/>
      <point x="452" y="426"/>
      <point x="501" y="521"/>
      <point x="619" y="521" type="curve" smooth="yes"/>
      <point x="736" y="521"/>
      <point x="785" y="437"/>
      <point x="785" y="265" type="curve" smooth="yes"/>
      <point x="785" y="93"/>
      <point x="736" y="15"/>
    </contour>
  </outline>
</glyph>
<glyph name="yn-georgian" format="2">
  <advance width="493"/>
  <unicode hex="10F7"/>
  <note>
uni10F7
</note>
  <anchor x="247" y="536" name="top"/>
  <outline>
    <contour>
      <point x="247" y="-250" type="curve" smooth="yes"/>
      <point x="353" y="-250"/>
      <point x="433" y="-190"/>
      <point x="433" y="-75" type="curve" smooth="yes"/>
      <point x="433" y="-28"/>
      <point x="414" y="15"/>
      <point x="392" y="15" type="curve" smooth="yes"/>
      <point x="389" y="15"/>
      <point x="386" y="14"/>
      <point x="383" y="12" type="curve"/>
      <point x="402" y="-15"/>
      <point x="405" y="-50"/>
      <point x="405" y="-75" type="curve" smooth="yes"/>
      <point x="405" y="-173"/>
      <point x="337" y="-226"/>
      <point x="246" y="-226" type="curve" smooth="yes"/>
      <point x="132" y="-226"/>
      <point x="88" y="-148"/>
      <point x="88" y="-45" type="curve" smooth="yes"/>
      <point x="88" y="72"/>
      <point x="166" y="118"/>
      <point x="246" y="164" type="curve" smooth="yes"/>
      <point x="332" y="213"/>
      <point x="422" y="262"/>
      <point x="422" y="396" type="curve" smooth="yes"/>
      <point x="422" y="502"/>
      <point x="336" y="546"/>
      <point x="252" y="546" type="curve" smooth="yes"/>
      <point x="181" y="546"/>
      <point x="88" y="504"/>
      <point x="88" y="409" type="curve" smooth="yes"/>
      <point x="88" y="382"/>
      <point x="103" y="356"/>
      <point x="117" y="356" type="curve" smooth="yes"/>
      <point x="119" y="356"/>
      <point x="123" y="357"/>
      <point x="125" y="358" type="curve"/>
      <point x="119" y="375"/>
      <point x="116" y="391"/>
      <point x="116" y="405" type="curve" smooth="yes"/>
      <point x="116" y="483"/>
      <point x="182" y="521"/>
      <point x="252" y="521" type="curve" smooth="yes"/>
      <point x="332" y="521"/>
      <point x="394" y="480"/>
      <point x="394" y="390" type="curve" smooth="yes"/>
      <point x="394" y="285"/>
      <point x="325" y="240"/>
      <point x="250" y="197" type="curve" smooth="yes"/>
      <point x="160" y="146"/>
      <point x="60" y="97"/>
      <point x="60" y="-46" type="curve" smooth="yes"/>
      <point x="60" y="-187"/>
      <point x="144" y="-250"/>
    </contour>
  </outline>
</glyph>
<glyph name="elifi-georgian" format="2">
  <advance width="540"/>
  <unicode hex="10F8"/>
  <note>
uni10F8
</note>
  <outline>
    <contour>
      <point x="283" y="-250" type="curve" smooth="yes"/>
      <point x="395" y="-250"/>
      <point x="475" y="-170"/>
      <point x="475" y="-55" type="curve" smooth="yes"/>
      <point x="475" y="12"/>
      <point x="448" y="55"/>
      <point x="426" y="55" type="curve" smooth="yes"/>
      <point x="423" y="55"/>
      <point x="420" y="54"/>
      <point x="417" y="52" type="curve"/>
      <point x="436" y="25"/>
      <point x="447" y="-10"/>
      <point x="447" y="-55" type="curve" smooth="yes"/>
      <point x="447" y="-153"/>
      <point x="379" y="-226"/>
      <point x="282" y="-226" type="curve" smooth="yes"/>
      <point x="176" y="-226"/>
      <point x="118" y="-139"/>
      <point x="118" y="-15" type="curve" smooth="yes"/>
      <point x="118" y="220" type="line" smooth="yes"/>
      <point x="118" y="247"/>
      <point x="117" y="274"/>
      <point x="113" y="301" type="curve"/>
      <point x="116" y="301" type="line"/>
      <point x="143" y="234"/>
      <point x="201" y="191"/>
      <point x="285" y="191" type="curve" smooth="yes"/>
      <point x="373" y="191"/>
      <point x="460" y="252"/>
      <point x="460" y="396" type="curve" smooth="yes"/>
      <point x="460" y="478"/>
      <point x="428" y="540"/>
      <point x="404" y="540" type="curve" smooth="yes"/>
      <point x="401" y="540"/>
      <point x="398" y="539"/>
      <point x="394" y="537" type="curve"/>
      <point x="404" y="518"/>
      <point x="432" y="476"/>
      <point x="432" y="392" type="curve" smooth="yes"/>
      <point x="432" y="272"/>
      <point x="361" y="216"/>
      <point x="282" y="216" type="curve" smooth="yes"/>
      <point x="184" y="216"/>
      <point x="118" y="285"/>
      <point x="118" y="416" type="curve" smooth="yes"/>
      <point x="118" y="536" type="line"/>
      <point x="90" y="536" type="line"/>
      <point x="90" y="-13" type="line" smooth="yes"/>
      <point x="90" y="-162"/>
      <point x="165" y="-250"/>
    </contour>
  </outline>
</glyph>
<glyph name="turnedgan-georgian" format="2">
  <advance width="531"/>
  <unicode hex="10F9"/>
  <note>
uni10F9
</note>
  <outline>
    <contour>
      <point x="266" y="546" type="curve" smooth="yes"/>
      <point x="134" y="546"/>
      <point x="65" y="457"/>
      <point x="65" y="269" type="curve" smooth="yes"/>
      <point x="65" y="92"/>
      <point x="126" y="7"/>
      <point x="240" y="-1" type="curve"/>
      <point x="240" y="-3" type="line"/>
      <point x="164" y="-18"/>
      <point x="129" y="-72"/>
      <point x="129" y="-127" type="curve" smooth="yes"/>
      <point x="129" y="-195"/>
      <point x="187" y="-250"/>
      <point x="271" y="-250" type="curve" smooth="yes"/>
      <point x="342" y="-250"/>
      <point x="415" y="-208"/>
      <point x="415" y="-133" type="curve" smooth="yes"/>
      <point x="415" y="-106"/>
      <point x="400" y="-80"/>
      <point x="386" y="-80" type="curve" smooth="yes"/>
      <point x="384" y="-80"/>
      <point x="380" y="-81"/>
      <point x="378" y="-82" type="curve"/>
      <point x="384" y="-99"/>
      <point x="387" y="-115"/>
      <point x="387" y="-129" type="curve" smooth="yes"/>
      <point x="387" y="-187"/>
      <point x="341" y="-225"/>
      <point x="271" y="-225" type="curve" smooth="yes"/>
      <point x="206" y="-225"/>
      <point x="157" y="-187"/>
      <point x="157" y="-124" type="curve" smooth="yes"/>
      <point x="157" y="-63"/>
      <point x="201" y="-21"/>
      <point x="285" y="-8" type="curve" smooth="yes"/>
      <point x="404" y="11"/>
      <point x="466" y="93"/>
      <point x="466" y="269" type="curve" smooth="yes"/>
      <point x="466" y="457"/>
      <point x="390" y="546"/>
    </contour>
    <contour>
      <point x="266" y="521" type="curve" smooth="yes"/>
      <point x="386" y="521"/>
      <point x="438" y="426"/>
      <point x="438" y="264" type="curve" smooth="yes"/>
      <point x="438" y="99"/>
      <point x="386" y="18"/>
      <point x="261" y="18" type="curve" smooth="yes"/>
      <point x="145" y="18"/>
      <point x="93" y="99"/>
      <point x="93" y="269" type="curve" smooth="yes"/>
      <point x="93" y="421"/>
      <point x="138" y="521"/>
    </contour>
  </outline>
</glyph>
<glyph name="ain-georgian" format="2">
  <advance width="470"/>
  <unicode hex="10FA"/>
  <note>
uni10FA
</note>
  <outline>
    <contour>
      <point x="99" y="-70" type="line"/>
      <point x="410" y="55" type="line"/>
      <point x="410" y="85" type="line"/>
      <point x="372" y="62"/>
      <point x="304" y="33"/>
      <point x="260" y="33" type="curve" smooth="yes"/>
      <point x="170" y="33"/>
      <point x="93" y="103"/>
      <point x="93" y="274" type="curve" smooth="yes"/>
      <point x="93" y="442"/>
      <point x="161" y="517"/>
      <point x="259" y="517" type="curve" smooth="yes"/>
      <point x="344" y="517"/>
      <point x="385" y="462"/>
      <point x="385" y="406" type="curve"/>
      <point x="400" y="407"/>
      <point x="410" y="417"/>
      <point x="410" y="433" type="curve" smooth="yes"/>
      <point x="410" y="490"/>
      <point x="351" y="542"/>
      <point x="259" y="542" type="curve" smooth="yes"/>
      <point x="145" y="542"/>
      <point x="65" y="462"/>
      <point x="65" y="273" type="curve" smooth="yes"/>
      <point x="65" y="105"/>
      <point x="143" y="13"/>
      <point x="243" y="13" type="curve"/>
      <point x="99" y="-44" type="line"/>
    </contour>
  </outline>
</glyph>
<glyph name="paragraph-georgian" format="2">
  <advance width="558"/>
  <unicode hex="10FB"/>
  <note>
uni10FB
</note>
  <outline>
    <contour>
      <point x="429" y="172" type="curve" smooth="yes"/>
      <point x="444" y="172"/>
      <point x="458" y="181"/>
      <point x="458" y="212" type="curve" smooth="yes"/>
      <point x="458" y="242"/>
      <point x="444" y="250"/>
      <point x="429" y="250" type="curve" smooth="yes"/>
      <point x="413" y="250"/>
      <point x="400" y="242"/>
      <point x="400" y="212" type="curve" smooth="yes"/>
      <point x="400" y="181"/>
      <point x="413" y="172"/>
    </contour>
    <contour>
      <point x="129" y="-8" type="curve" smooth="yes"/>
      <point x="144" y="-8"/>
      <point x="158" y="1"/>
      <point x="158" y="32" type="curve" smooth="yes"/>
      <point x="158" y="62"/>
      <point x="144" y="70"/>
      <point x="129" y="70" type="curve" smooth="yes"/>
      <point x="113" y="70"/>
      <point x="100" y="62"/>
      <point x="100" y="32" type="curve" smooth="yes"/>
      <point x="100" y="1"/>
      <point x="113" y="-8"/>
    </contour>
    <contour>
      <point x="129" y="342" type="curve" smooth="yes"/>
      <point x="144" y="342"/>
      <point x="158" y="351"/>
      <point x="158" y="382" type="curve" smooth="yes"/>
      <point x="158" y="412"/>
      <point x="144" y="420"/>
      <point x="129" y="420" type="curve" smooth="yes"/>
      <point x="113" y="420"/>
      <point x="100" y="412"/>
      <point x="100" y="382" type="curve" smooth="yes"/>
      <point x="100" y="351"/>
      <point x="113" y="342"/>
    </contour>
  </outline>
</glyph>
<glyph name="narMod-georgian" format="2">
  <advance width="326"/>
  <unicode hex="10FC"/>
  <note>
uni10FC
</note>
  <outline>
    <contour>
      <point x="171" y="381" type="curve" smooth="yes"/>
      <point x="242" y="381"/>
      <point x="286" y="433"/>
      <point x="286" y="538" type="curve" smooth="yes"/>
      <point x="286" y="645"/>
      <point x="248" y="697"/>
      <point x="178" y="697" type="curve" smooth="yes"/>
      <point x="131" y="697"/>
      <point x="98" y="676"/>
      <point x="81" y="642" type="curve"/>
      <point x="78" y="642" type="line"/>
      <point x="80" y="661"/>
      <point x="80" y="684"/>
      <point x="80" y="701" type="curve" smooth="yes"/>
      <point x="80" y="724" type="line" smooth="yes"/>
      <point x="80" y="779"/>
      <point x="117" y="797"/>
      <point x="148" y="797" type="curve" smooth="yes"/>
      <point x="194" y="797"/>
      <point x="200" y="787"/>
      <point x="232" y="787" type="curve" smooth="yes"/>
      <point x="253" y="787"/>
      <point x="268" y="795"/>
      <point x="268" y="807" type="curve" smooth="yes"/>
      <point x="268" y="814"/>
      <point x="264" y="822"/>
      <point x="255" y="824" type="curve"/>
      <point x="251" y="816"/>
      <point x="238" y="810"/>
      <point x="222" y="810" type="curve" smooth="yes"/>
      <point x="197" y="810"/>
      <point x="182" y="819"/>
      <point x="148" y="819" type="curve" smooth="yes"/>
      <point x="95" y="819"/>
      <point x="55" y="785"/>
      <point x="55" y="717" type="curve" smooth="yes"/>
      <point x="55" y="538" type="line" smooth="yes"/>
      <point x="55" y="433"/>
      <point x="98" y="381"/>
    </contour>
    <contour>
      <point x="175" y="402" type="curve" smooth="yes"/>
      <point x="111" y="402"/>
      <point x="80" y="450"/>
      <point x="80" y="538" type="curve" smooth="yes"/>
      <point x="80" y="627"/>
      <point x="103" y="674"/>
      <point x="175" y="674" type="curve" smooth="yes"/>
      <point x="234" y="674"/>
      <point x="260" y="625"/>
      <point x="260" y="537" type="curve" smooth="yes"/>
      <point x="260" y="448"/>
      <point x="227" y="402"/>
    </contour>
  </outline>
</glyph>
<glyph name="aen-georgian" format="2">
  <advance width="493"/>
  <unicode hex="10FD"/>
  <outline>
    <contour>
      <point x="246" y="-10" type="curve" smooth="yes"/>
      <point x="349" y="-10"/>
      <point x="433" y="53"/>
      <point x="433" y="194" type="curve" smooth="yes"/>
      <point x="433" y="331"/>
      <point x="333" y="376"/>
      <point x="243" y="427" type="curve" smooth="yes"/>
      <point x="168" y="470"/>
      <point x="107" y="509"/>
      <point x="107" y="614" type="curve" smooth="yes"/>
      <point x="107" y="704"/>
      <point x="169" y="745"/>
      <point x="249" y="745" type="curve" smooth="yes"/>
      <point x="319" y="745"/>
      <point x="385" y="707"/>
      <point x="385" y="629" type="curve" smooth="yes"/>
      <point x="385" y="615"/>
      <point x="382" y="599"/>
      <point x="376" y="582" type="curve"/>
      <point x="378" y="581"/>
      <point x="382" y="580"/>
      <point x="384" y="580" type="curve" smooth="yes"/>
      <point x="398" y="580"/>
      <point x="413" y="606"/>
      <point x="413" y="633" type="curve" smooth="yes"/>
      <point x="413" y="728"/>
      <point x="320" y="770"/>
      <point x="249" y="770" type="curve" smooth="yes"/>
      <point x="165" y="770"/>
      <point x="79" y="726"/>
      <point x="79" y="620" type="curve" smooth="yes"/>
      <point x="79" y="486"/>
      <point x="161" y="443"/>
      <point x="247" y="394" type="curve" smooth="yes"/>
      <point x="327" y="348"/>
      <point x="405" y="306"/>
      <point x="405" y="195" type="curve" smooth="yes"/>
      <point x="405" y="92"/>
      <point x="361" y="14"/>
      <point x="247" y="14" type="curve" smooth="yes"/>
      <point x="156" y="14"/>
      <point x="88" y="67"/>
      <point x="88" y="165" type="curve" smooth="yes"/>
      <point x="88" y="190"/>
      <point x="91" y="225"/>
      <point x="110" y="252" type="curve"/>
      <point x="107" y="254"/>
      <point x="104" y="255"/>
      <point x="101" y="255" type="curve" smooth="yes"/>
      <point x="79" y="255"/>
      <point x="60" y="212"/>
      <point x="60" y="165" type="curve" smooth="yes"/>
      <point x="60" y="50"/>
      <point x="140" y="-10"/>
    </contour>
  </outline>
</glyph>
<glyph name="hardsign-georgian" format="2">
  <advance width="531"/>
  <unicode hex="10FE"/>
  <outline>
    <contour>
      <point x="108" y="546" type="curve" smooth="yes"/>
      <point x="88" y="546"/>
      <point x="80" y="537"/>
      <point x="80" y="521" type="curve"/>
      <point x="139" y="521"/>
      <point x="191" y="511"/>
      <point x="237" y="485" type="curve"/>
      <point x="145" y="427"/>
      <point x="68" y="344"/>
      <point x="65" y="212" type="curve" smooth="yes"/>
      <point x="62" y="79"/>
      <point x="150" y="-10"/>
      <point x="265" y="-10" type="curve" smooth="yes"/>
      <point x="381" y="-10"/>
      <point x="467" y="73"/>
      <point x="466" y="212" type="curve" smooth="yes"/>
      <point x="465" y="331"/>
      <point x="388" y="421"/>
      <point x="292" y="484" type="curve"/>
      <point x="342" y="511"/>
      <point x="398" y="521"/>
      <point x="461" y="521" type="curve"/>
      <point x="459" y="539"/>
      <point x="451" y="546"/>
      <point x="432" y="546" type="curve" smooth="yes"/>
      <point x="377" y="546"/>
      <point x="319" y="529"/>
      <point x="264" y="499" type="curve"/>
      <point x="212" y="528"/>
      <point x="158" y="546"/>
    </contour>
    <contour>
      <point x="265" y="472" type="curve"/>
      <point x="364" y="414"/>
      <point x="435" y="330"/>
      <point x="438" y="212" type="curve" smooth="yes"/>
      <point x="441" y="94"/>
      <point x="371" y="15"/>
      <point x="265" y="15" type="curve" smooth="yes"/>
      <point x="159" y="15"/>
      <point x="93" y="99"/>
      <point x="93" y="212" type="curve" smooth="yes"/>
      <point x="95" y="339"/>
      <point x="171" y="418"/>
    </contour>
  </outline>
</glyph>
<glyph name="labial-georgian" format="2">
  <advance width="531"/>
  <unicode hex="10FF"/>
  <outline>
    <contour>
      <point x="265" y="-10" type="curve" smooth="yes"/>
      <point x="397" y="-10"/>
      <point x="466" y="79"/>
      <point x="466" y="267" type="curve" smooth="yes"/>
      <point x="466" y="463"/>
      <point x="396" y="546"/>
      <point x="270" y="546" type="curve" smooth="yes"/>
      <point x="135" y="546"/>
      <point x="65" y="458"/>
      <point x="65" y="267" type="curve" smooth="yes"/>
      <point x="65" y="79"/>
      <point x="141" y="-10"/>
    </contour>
    <contour>
      <point x="265" y="15" type="curve" smooth="yes"/>
      <point x="146" y="15"/>
      <point x="93" y="108"/>
      <point x="93" y="267" type="curve" smooth="yes"/>
      <point x="93" y="438"/>
      <point x="144" y="521"/>
      <point x="270" y="521" type="curve" smooth="yes"/>
      <point x="386" y="521"/>
      <point x="438" y="442"/>
      <point x="438" y="267" type="curve" smooth="yes"/>
      <point x="438" y="115"/>
      <point x="393" y="15"/>
    </contour>
  </outline>
</glyph>
<glyph name="An-georgian" format="2">
  <advance width="533"/>
  <unicode hex="1C90"/>
  <anchor x="273" y="714" name="top"/>
  <outline>
    <contour>
      <point x="264" y="-10" type="curve" smooth="yes"/>
      <point x="381" y="-10"/>
      <point x="461" y="73"/>
      <point x="461" y="221" type="curve" smooth="yes"/>
      <point x="461" y="337"/>
      <point x="404" y="421"/>
      <point x="355" y="480" type="curve" smooth="yes"/>
      <point x="314" y="529"/>
      <point x="282" y="583"/>
      <point x="282" y="653" type="curve" smooth="yes"/>
      <point x="282" y="679"/>
      <point x="287" y="705"/>
      <point x="298" y="718" type="curve"/>
      <point x="295" y="722"/>
      <point x="291" y="725"/>
      <point x="285" y="725" type="curve" smooth="yes"/>
      <point x="266" y="725"/>
      <point x="254" y="684"/>
      <point x="254" y="653" type="curve" smooth="yes"/>
      <point x="254" y="566"/>
      <point x="294" y="511"/>
      <point x="337" y="458" type="curve" smooth="yes"/>
      <point x="384" y="401"/>
      <point x="433" y="324"/>
      <point x="433" y="221" type="curve" smooth="yes"/>
      <point x="433" y="94"/>
      <point x="369" y="15"/>
      <point x="264" y="15" type="curve" smooth="yes"/>
      <point x="159" y="15"/>
      <point x="94" y="94"/>
      <point x="94" y="221" type="curve" smooth="yes"/>
      <point x="94" y="285"/>
      <point x="117" y="324"/>
      <point x="131" y="348" type="curve"/>
      <point x="128" y="351"/>
      <point x="125" y="352"/>
      <point x="123" y="352" type="curve" smooth="yes"/>
      <point x="99" y="352"/>
      <point x="66" y="298"/>
      <point x="66" y="217" type="curve" smooth="yes"/>
      <point x="66" y="73"/>
      <point x="147" y="-10"/>
    </contour>
  </outline>
</glyph>
<glyph name="Ban-georgian" format="2">
  <advance width="560"/>
  <unicode hex="1C91"/>
  <outline>
    <contour>
      <point x="279" y="-10" type="curve" smooth="yes"/>
      <point x="416" y="-10"/>
      <point x="488" y="74"/>
      <point x="488" y="251" type="curve" smooth="yes"/>
      <point x="488" y="407"/>
      <point x="428" y="514"/>
      <point x="285" y="514" type="curve" smooth="yes"/>
      <point x="150" y="514"/>
      <point x="72" y="431"/>
      <point x="72" y="251" type="curve" smooth="yes"/>
      <point x="72" y="75"/>
      <point x="151" y="-10"/>
    </contour>
    <contour>
      <point x="279" y="15" type="curve" smooth="yes"/>
      <point x="155" y="15"/>
      <point x="100" y="103"/>
      <point x="100" y="251" type="curve" smooth="yes"/>
      <point x="100" y="410"/>
      <point x="155" y="489"/>
      <point x="284" y="489" type="curve" smooth="yes"/>
      <point x="397" y="489"/>
      <point x="460" y="415"/>
      <point x="460" y="251" type="curve" smooth="yes"/>
      <point x="460" y="109"/>
      <point x="413" y="15"/>
    </contour>
    <contour>
      <point x="280" y="507" type="curve"/>
      <point x="307" y="507" type="line"/>
      <point x="317" y="521"/>
      <point x="321" y="535"/>
      <point x="321" y="551" type="curve" smooth="yes"/>
      <point x="321" y="621"/>
      <point x="233" y="630"/>
      <point x="233" y="683" type="curve" smooth="yes"/>
      <point x="233" y="697"/>
      <point x="236" y="708"/>
      <point x="245" y="719" type="curve"/>
      <point x="242" y="723"/>
      <point x="237" y="725"/>
      <point x="232" y="725" type="curve" smooth="yes"/>
      <point x="214" y="725"/>
      <point x="205" y="704"/>
      <point x="205" y="685" type="curve" smooth="yes"/>
      <point x="205" y="610"/>
      <point x="293" y="612"/>
      <point x="293" y="551" type="curve" smooth="yes"/>
      <point x="293" y="535"/>
      <point x="288" y="520"/>
    </contour>
  </outline>
</glyph>
<glyph name="Gan-georgian" format="2">
  <advance width="548"/>
  <unicode hex="1C92"/>
  <outline>
    <contour>
      <point x="273" y="-10" type="curve" smooth="yes"/>
      <point x="410" y="-10"/>
      <point x="482" y="74"/>
      <point x="482" y="247" type="curve" smooth="yes"/>
      <point x="482" y="387"/>
      <point x="433" y="484"/>
      <point x="314" y="496" type="curve"/>
      <point x="314" y="498" type="line"/>
      <point x="383" y="506"/>
      <point x="420" y="557"/>
      <point x="420" y="612" type="curve" smooth="yes"/>
      <point x="420" y="675"/>
      <point x="358" y="725"/>
      <point x="272" y="725" type="curve" smooth="yes"/>
      <point x="199" y="725"/>
      <point x="123" y="686"/>
      <point x="123" y="615" type="curve" smooth="yes"/>
      <point x="123" y="592"/>
      <point x="134" y="569"/>
      <point x="152" y="569" type="curve" smooth="yes"/>
      <point x="155" y="569"/>
      <point x="158" y="570"/>
      <point x="160" y="571" type="curve"/>
      <point x="154" y="586"/>
      <point x="151" y="602"/>
      <point x="151" y="614" type="curve" smooth="yes"/>
      <point x="151" y="667"/>
      <point x="200" y="701"/>
      <point x="272" y="701" type="curve" smooth="yes"/>
      <point x="340" y="701"/>
      <point x="391" y="667"/>
      <point x="391" y="609" type="curve" smooth="yes"/>
      <point x="391" y="547"/>
      <point x="347" y="511"/>
      <point x="258" y="504" type="curve" smooth="yes"/>
      <point x="136" y="495"/>
      <point x="66" y="413"/>
      <point x="66" y="247" type="curve" smooth="yes"/>
      <point x="66" y="75"/>
      <point x="145" y="-10"/>
    </contour>
    <contour>
      <point x="273" y="15" type="curve" smooth="yes"/>
      <point x="149" y="15"/>
      <point x="94" y="103"/>
      <point x="94" y="247" type="curve" smooth="yes"/>
      <point x="94" y="401"/>
      <point x="149" y="480"/>
      <point x="278" y="480" type="curve" smooth="yes"/>
      <point x="391" y="480"/>
      <point x="454" y="406"/>
      <point x="454" y="247" type="curve" smooth="yes"/>
      <point x="454" y="109"/>
      <point x="407" y="15"/>
    </contour>
  </outline>
</glyph>
<glyph name="Don-georgian" format="2">
  <advance width="873"/>
  <unicode hex="1C93"/>
  <outline>
    <contour>
      <point x="602" y="258" type="curve" smooth="yes"/>
      <point x="722" y="258"/>
      <point x="801" y="340"/>
      <point x="801" y="491" type="curve" smooth="yes"/>
      <point x="801" y="639"/>
      <point x="728" y="724"/>
      <point x="597" y="724" type="curve" smooth="yes"/>
      <point x="507" y="724"/>
      <point x="433" y="674"/>
      <point x="419" y="586" type="curve"/>
      <point x="417" y="586" type="line"/>
      <point x="403" y="676"/>
      <point x="341" y="724"/>
      <point x="253" y="724" type="curve" smooth="yes"/>
      <point x="137" y="724"/>
      <point x="72" y="643"/>
      <point x="72" y="476" type="curve" smooth="yes"/>
      <point x="72" y="314"/>
      <point x="148" y="191"/>
      <point x="318" y="138" type="curve"/>
      <point x="318" y="136" type="line"/>
      <point x="273" y="134"/>
      <point x="235" y="125"/>
      <point x="203" y="110" type="curve"/>
      <point x="212" y="93" type="line"/>
      <point x="240" y="106"/>
      <point x="292" y="118"/>
      <point x="348" y="118" type="curve" smooth="yes"/>
      <point x="483" y="118"/>
      <point x="615" y="67"/>
      <point x="615" y="-5" type="curve"/>
      <point x="628" y="-5"/>
      <point x="638" y="3"/>
      <point x="638" y="16" type="curve" smooth="yes"/>
      <point x="638" y="64"/>
      <point x="538" y="124"/>
      <point x="409" y="141" type="curve" smooth="yes"/>
      <point x="277" y="158"/>
      <point x="100" y="234"/>
      <point x="100" y="476" type="curve" smooth="yes"/>
      <point x="100" y="622"/>
      <point x="149" y="700"/>
      <point x="255" y="700" type="curve" smooth="yes"/>
      <point x="364" y="700"/>
      <point x="402" y="618"/>
      <point x="402" y="505" type="curve" smooth="yes"/>
      <point x="402" y="491" type="line" smooth="yes"/>
      <point x="402" y="339"/>
      <point x="474" y="258"/>
    </contour>
    <contour>
      <point x="597" y="700" type="curve" smooth="yes"/>
      <point x="720" y="700"/>
      <point x="773" y="620"/>
      <point x="773" y="491" type="curve" smooth="yes"/>
      <point x="773" y="367"/>
      <point x="718" y="282"/>
      <point x="602" y="282" type="curve" smooth="yes"/>
      <point x="477" y="282"/>
      <point x="430" y="373"/>
      <point x="430" y="491" type="curve" smooth="yes"/>
      <point x="430" y="626"/>
      <point x="484" y="700"/>
    </contour>
  </outline>
</glyph>
<glyph name="En-georgian" format="2">
  <advance width="559"/>
  <unicode hex="1C94"/>
  <anchor x="274" y="714" name="top"/>
  <outline>
    <contour>
      <point x="265" y="-10" type="curve" smooth="yes"/>
      <point x="387" y="-10"/>
      <point x="465" y="72"/>
      <point x="465" y="227" type="curve" smooth="yes"/>
      <point x="465" y="527" type="line" smooth="yes"/>
      <point x="465" y="664"/>
      <point x="373" y="725"/>
      <point x="271" y="725" type="curve" smooth="yes"/>
      <point x="172" y="725"/>
      <point x="87" y="666"/>
      <point x="87" y="558" type="curve" smooth="yes"/>
      <point x="87" y="523"/>
      <point x="99" y="481"/>
      <point x="124" y="481" type="curve" smooth="yes"/>
      <point x="126" y="481"/>
      <point x="130" y="482"/>
      <point x="134" y="484" type="curve"/>
      <point x="123" y="502"/>
      <point x="115" y="526"/>
      <point x="115" y="561" type="curve" smooth="yes"/>
      <point x="115" y="648"/>
      <point x="188" y="700"/>
      <point x="271" y="700" type="curve" smooth="yes"/>
      <point x="362" y="700"/>
      <point x="437" y="652"/>
      <point x="437" y="526" type="curve" smooth="yes"/>
      <point x="437" y="225" type="line" smooth="yes"/>
      <point x="437" y="94"/>
      <point x="377" y="15"/>
      <point x="266" y="15" type="curve" smooth="yes"/>
      <point x="155" y="15"/>
      <point x="94" y="88"/>
      <point x="94" y="175" type="curve" smooth="yes"/>
      <point x="94" y="241"/>
      <point x="113" y="273"/>
      <point x="131" y="296" type="curve"/>
      <point x="128" y="299"/>
      <point x="125" y="300"/>
      <point x="123" y="300" type="curve" smooth="yes"/>
      <point x="100" y="300"/>
      <point x="66" y="259"/>
      <point x="66" y="175" type="curve" smooth="yes"/>
      <point x="66" y="72"/>
      <point x="139" y="-10"/>
    </contour>
  </outline>
</glyph>
